<svg id="Calque_1" data-name="Calque 1" xmlns="http://www.w3.org/2000/svg" viewBox="0 0 261.1 240.32"><defs><style>.cls-1{fill:#3de987;}.cls-2{fill:none;}.cls-3{fill:#555c63;}.cls-4{fill:#545f64;}.cls-5{fill:#546264;}.cls-6{fill:#546064;}.cls-7{fill:#546164;}.cls-8{fill:#536365;}.cls-9{fill:#536565;}.cls-10{fill:#586467;}.cls-11{fill:#cbf9df;}.cls-12{fill:#48a776;}.cls-13{fill:#fefefe;}</style></defs><title>GAMP-t</title><path class="cls-1" d="M486.32,616.15h-1.57a4.51,4.51,0,0,1-2.83-5,33.4,33.4,0,0,0-.25-4.47c-.16-4.49-.1-9-.42-13.48-.25-3.63-.1-7.28-.34-10.93-.31-4.6-.12-9.24-.44-13.87-.19-2.79-.08-5.61-.09-8.42a2.61,2.61,0,0,0-.73-2.24,33.61,33.61,0,0,1,0,4c-.57,4.58-.73,9.19-1.1,13.78-.19,2.26-.3,4.55-.5,6.81-.42,4.59-.72,9.19-1.07,13.78-.18,2.26-.39,4.53-.49,6.8-.13,2.9-2.48,4.17-5.16,3-1.19-.5-2.36-1.06-3.55-1.6l-26.83-12.1q-12.17-5.5-24.34-11c-2.66-1.19-3.33-3.22-1.9-5.84q3.31-6.08,6.6-12.18,7.29-13.57,14.55-27.18c.16-.29.5-.6.05-1a3,3,0,0,0-.44.43l-17.16,25.18c-1.33,1.94-2.65,3.88-4,5.78s-3.53,2.08-5.09.29c-.34-.4-.66-.82-1-1.24q-7.9-11-15.8-22.08-7.47-10.4-15-20.76c-1.57-2.18-1.21-4,1.05-5.44,3.2-2,6.43-4,9.63-5.95l23.74-14.71a1.16,1.16,0,0,0,.63-.78,4.39,4.39,0,0,0-2,.69l-22.67,10.93c-1.82.88-3.63,1.78-5.48,2.58-2.31,1-4-.1-4.24-2.56-.2-2.26-.55-4.51-.74-6.77q-.66-8-1.56-15.88c-.52-4.64-.74-9.31-1.32-13.94-.23-1.86-.37-3.74-.57-5.61a42.16,42.16,0,0,1-.55-7.19c.1-1.38.81-2.31,2.13-2.3,1.64,0,3.23-.35,4.86-.39,3.9-.09,7.81-.1,11.71-.31,4.88-.27,9.77-.18,14.66-.46,1.69-.1,3.39-.08,5.09-.12a19.23,19.23,0,0,0,3.82.06,5.55,5.55,0,0,0-3.81-.68,15.82,15.82,0,0,1-1.95-.08c-4-.61-8.14-.57-12.19-1.06-2.64-.31-5.33-.23-8-.52-1.81-.2-3.63-.23-5.43-.38-4-.35-5-1.5-3.1-5.37,1.54-3.21,2.95-6.5,4.42-9.75,4.32-9.58,8.68-19.16,13-28.76a2.75,2.75,0,0,1,4.11-1.42c4.24,2.4,8.59,4.62,12.89,6.91L430,421.18c.19.09.27.55.55.29s0-.47-.26-.58c-3.42-2.81-7.27-5-10.86-7.6-3.23-2.31-6.57-4.47-9.83-6.73-1.77-1.23-1.83-2.77-.21-4.17a9.46,9.46,0,0,1,.79-.58l12.23-8.75c6.25-4.48,12.48-9,18.74-13.42,1.86-1.32,3-1.09,4.19.8,2.85,4.52,5.62,9.08,8.47,13.59,2,3.25,3.91,6.6,6.16,9.72,0,.22.07.45.32.55a.68.68,0,0,0,0-.82q-3.13-6.5-6.26-13c-1.16-2.41-2.31-4.81-3.42-7.24-.81-1.8-.25-2.9,1.67-3.16,3.07-.41,6.16-.79,9.25-1.1,4.65-.45,9.31-.83,14-1.25,1.69-.16,3.36-.36,5-.52a70.21,70.21,0,0,1,7.38-.65c1.68,0,2.31.51,2.32,2.14,0,4.17.32,8.33.37,12.49.06,4.76.41,9.51.47,14.27a3.42,3.42,0,0,0,.14.64c.39-.94.11-1.86.24-2.73.59-4.19.64-8.41,1.07-12.61.25-2.39.31-4.8.49-7.2.11-1.46.9-2.05,2.36-1.91a4.57,4.57,0,0,1,1.44.55c3.2,1.43,6.39,2.88,9.59,4.32l18.14,8.16c1.83.83,2.18,1.82,1.28,3.57-.09.18-.2.34-.29.51l-8.51,16c-.41.31-.49.82-.73,1.23l-.27.83a.21.21,0,0,0-.21.26.39.39,0,0,0,.1.16l.22-.27c.36-.09.43-.39.49-.7a2,2,0,0,0,.79-1.16,4.54,4.54,0,0,0,1.33-1.65c2.32-3.38,4.69-6.73,6.9-10.18,1.06-1.66,2.73-1.68,3.73-.09.17.28.36.54.55.8l10.25,14.26q2.73,3.8,5.45,7.61c1,1.4.86,2.09-.5,3.09-.21.15-.43.29-.65.43-3.59,2.22-7.15,4.49-10.78,6.66-3.34,2-6.52,4.27-10,6-.24,0-.47.09-.53.38l0,0c-.32,0-.7,0-.81.43l0,0c-.78-.14-1.36.35-2,.65q-6,2.84-11.95,5.71c-5.2,2.5-10.39,5-15.58,7.56-1.28-.52-2.14-1.35-2-2.83-1.43-.24-2.91-.21-3.07-2.06a24.5,24.5,0,0,0,3.53-1.63,1.91,1.91,0,0,0,1.09-1.72,8.15,8.15,0,0,0,0-1.56c-.45-5.57-.36-11.17-.59-16.75-.23-5.84-.46-11.69-.52-17.54v-3.08a3.52,3.52,0,0,0-.62,3.14c-.27,3.25-.57,6.49-.81,9.73-.34,4.42-.57,8.84-.94,13.26-.46,5.38-1,10.76-1.15,16.16a4.28,4.28,0,0,1-4.47.32c-.92,1.51-2,2.71-4,2.42,0,2-.15,3.9-2.57,4.25q-1.09-2.3-2.18-4.6a3,3,0,0,0-3.16-1.84c-4.68.48-9.38.15-14.06.53-3.89.31-7.82.21-11.73.38-4.88.21-9.77.25-14.66.45-2.54.1-5.09,0-7.63.13-1.42.05-2.84.27-4.25.41,6.57.68,13.12,1.21,19.67,1.72q10.13.81,20.26,1.56c5.91.45,11.82.86,17.73,1.28.94,1.93,2.39,3.83.18,5.81,3.8,3.1,3.8,3.1,3.07,5.74-1.94-.19-3.89-.36-5.83-.57a4.08,4.08,0,0,0-4.38,2.53c-2.69,5.15-5.49,10.23-8.23,15.35Q451.28,507,441,526.25a3.13,3.13,0,0,0-.58,1.64c-.17.08-.31.16-.1.34l.18-.26a3.43,3.43,0,0,0,1.16-1.29l21.5-31.47L480,470.53a12.78,12.78,0,0,0,1.74.1c2.28-.13,3.9.69,4.57,3,0,.09.2.13.42.28,2.46-1.33,5-3,7.63,0l1.4-1.81c1.38.59,2.77,1.16,4.14,1.77l24.65,11,18.76,8.4a9.7,9.7,0,0,1,3.72,2.78q6.72,8.42,13.48,16.79l28.71,35.67q9.46,11.73,18.92,23.47c2.33,2.89,4.6,5.83,6.89,8.75-1.92,1.34-3.85,2.67-5.75,4Q598,593,586.62,601.12c-4.45,3.18-8.89,6.37-13.36,9.52a4.23,4.23,0,0,1-6.42-1.22c-3.08-4.9-6.13-9.83-9.17-14.75l-21-34c-.24-.39-.44-.93-1.14-.84,2.74,5.73,5.41,11.35,8.11,17q5.32,11.09,10.68,22.15c.78,1.64,1.62,3.26,2.34,4.93,1,2.2.1,4.51-1.9,5.18a9.26,9.26,0,0,1-2.09.44c-6,.56-12,1-18,1.68-1.55.17-3.11.27-4.66.43-3.22.35-6.45.72-9.67,1s-6.48.56-9.71.88-6.56.75-9.85,1.07-6.61.42-9.87.95C489.35,615.77,487.74,615.36,486.32,616.15Zm25-191.77c-1,1.36-2,2.7-3,4.09q-7.47,10.88-14.9,21.76a10.63,10.63,0,0,0-2,3.41c.84.72,1.74.4,2.55.53a2.49,2.49,0,0,0,2.78-1.63c3.82-7.18,7.71-14.33,11.5-21.53,1.11-2.13,2.51-4.11,3.26-6.43.13-.14.24-.29,0-.44C511.57,424.13,511.43,424.3,511.35,424.38Zm-73.59,1.18a1,1,0,0,0-1-.56,1,1,0,0,0,.92.65,29.94,29.94,0,0,0,4.08,3q16.86,11.57,33.75,23.08c1.21.83,2.46,1.62,3.76,2.47.56-1.4.31-2.65.45-3.86.24-2-.08-2.65-1.86-3.6q-17.94-9.6-35.89-19.17C440.6,426.85,439.37,425.8,437.76,425.56ZM531.1,551.94l.48-.19c-3.89-8.73-8.22-17.25-12.29-25.89S511,508.69,506.91,500.1s-8.27-17.19-12.53-26.06c-1.53,2.21-2.79,4.1-4.14,5.94a4.73,4.73,0,0,0-.23,5.81c4.23,6.74,8.41,13.51,12.61,20.28l19.11,30.76Zm-44.82-77.72a41.81,41.81,0,0,0-6,2.68,4,4,0,0,0-2.65,4.11c.12,3.78.15,7.56.37,11.34.23,4,.14,7.94.38,11.91.26,4.29.16,8.6.41,12.9.22,3.83.28,7.69.35,11.52.14,7.11.62,14.21.57,21.32a7.29,7.29,0,0,0,.58,3.37c.31-4.59.59-9,.93-13.49.46-6,1-11.94,1.43-17.91.34-4.35.6-8.7.93-13.05.46-5.84.95-11.68,1.43-17.51.25-3.18.51-6.36.74-9.54C486,479.41,486.11,477,486.28,474.22Zm-66.2,17.2c1.83-.14,55.13-25.63,56.36-26.83-1-1-2.39-1.61-3.48-2.52-1.85-1.55-3.56-1.32-5.52-.07-6.17,3.92-12.42,7.72-18.63,11.57ZM483.5,452c.85-1.21,1.46-2.12,2.1-3a3,3,0,0,0,.08-3.78c-2.21-3.45-4.34-7-6.51-10.45l-13.95-22.4c-.22-.35-.29-.92-1.08-.71C470.54,425,476.93,438.34,483.5,452Zm28.59-28.54-.11-.08v.13ZM439.86,528.8l-.06.12h.11Z" transform="translate(-373.02 -375.83)"/><path class="cls-2" d="M523.68,442.11c3.48-1.77,6.66-4.05,10-6,3.63-2.17,7.19-4.44,10.78-6.66.22-.14.44-.28.65-.43,1.36-1,1.48-1.69.5-3.09q-2.72-3.81-5.45-7.61L529.91,404c-.19-.26-.38-.52-.55-.8-1-1.59-2.67-1.57-3.73.09-2.21,3.45-4.58,6.8-6.9,10.18a4.54,4.54,0,0,1-1.33,1.65l-.39-.35,8.51-16c.09-.17.2-.33.29-.51.9-1.75.55-2.74-1.28-3.57l-18.14-8.16c-3.2-1.44-6.39-2.89-9.59-4.32a4.57,4.57,0,0,0-1.44-.55c-1.46-.14-2.25.45-2.36,1.91-.18,2.4-.24,4.81-.49,7.2-.43,4.2-.48,8.42-1.07,12.61-.13.87.15,1.79-.24,2.73a3.42,3.42,0,0,1-.14-.64c-.06-4.76-.41-9.51-.47-14.27,0-4.16-.34-8.32-.37-12.49,0-1.63-.64-2.14-2.32-2.14a70.21,70.21,0,0,0-7.38.65c-1.68.16-3.35.36-5,.52-4.65.42-9.31.8-14,1.25-3.09.31-6.18.69-9.25,1.1-1.92.26-2.48,1.36-1.67,3.16,1.11,2.43,2.26,4.83,3.42,7.24q3.12,6.51,6.26,13l-.32.27c-2.25-3.12-4.12-6.47-6.16-9.72-2.85-4.51-5.62-9.07-8.47-13.59-1.19-1.89-2.33-2.12-4.19-.8-6.26,4.44-12.49,8.94-18.74,13.42l-12.23,8.75a9.46,9.46,0,0,0-.79.58c-1.62,1.4-1.56,2.94.21,4.17,3.26,2.26,6.6,4.42,9.83,6.73,3.59,2.57,7.44,4.79,10.86,7.6l-.29.29-14.44-7.71c-4.3-2.29-8.65-4.51-12.89-6.91a2.75,2.75,0,0,0-4.11,1.42c-4.28,9.6-8.64,19.18-13,28.76-1.47,3.25-2.88,6.54-4.42,9.75-1.86,3.87-.91,5,3.1,5.37,1.8.15,3.62.18,5.43.38,2.64.29,5.33.21,8,.52,4.05.49,8.15.45,12.19,1.06a15.82,15.82,0,0,0,1.95.08v.62c-1.7,0-3.4,0-5.09.12-4.89.28-9.78.19-14.66.46-3.9.21-7.81.22-11.71.31-1.63,0-3.22.41-4.86.39-1.32,0-2,.92-2.13,2.3a42.16,42.16,0,0,0,.55,7.19c.2,1.87.34,3.75.57,5.61.58,4.63.8,9.3,1.32,13.94q.9,7.94,1.56,15.88c.19,2.26.54,4.51.74,6.77.22,2.46,1.93,3.56,4.24,2.56,1.85-.8,3.66-1.7,5.48-2.58l22.67-10.93a4.39,4.39,0,0,1,2-.69,1.16,1.16,0,0,1-.63.78l-23.74,14.71c-3.2,2-6.43,3.95-9.63,5.95-2.26,1.4-2.62,3.26-1.05,5.44q7.49,10.38,15,20.76,7.92,11,15.8,22.08c.3.42.62.84,1,1.24,1.56,1.79,3.65,1.69,5.09-.29s2.69-3.84,4-5.78l17.16-25.18a3,3,0,0,1,.44-.43c.45.37.11.68-.05,1q-7.26,13.59-14.55,27.18-3.28,6.11-6.6,12.18c-1.43,2.62-.76,4.65,1.9,5.84q12.18,5.48,24.34,11l26.83,12.1c1.19.54,2.36,1.1,3.55,1.6,2.68,1.14,5-.13,5.16-3,.1-2.27.31-4.54.49-6.8.35-4.59.65-9.19,1.07-13.78.2-2.26.31-4.55.5-6.81.37-4.59.53-9.2,1.1-13.78a33.61,33.61,0,0,0,0-4,2.61,2.61,0,0,1,.73,2.24c0,2.81-.1,5.63.09,8.42.32,4.63.13,9.27.44,13.87.24,3.65.09,7.3.34,10.93.32,4.49.26,9,.42,13.48a33.4,33.4,0,0,1,.25,4.47,4.51,4.51,0,0,0,2.83,5H373V375.83h261.1v187c-.57-.44-.48-1.17-.72-1.74-3-7.23-6-14.48-9-21.73q-6.17-14.8-12.33-29.62-5.43-13.1-10.85-26.22-3.54-8.53-7.1-17a6.88,6.88,0,0,0-2.83-3.61,8.14,8.14,0,0,0-4.14-.86q-48.12,0-96.24,0c-.39,0-.79,0-1.18,0-1.22.09-1.46.35-1.47,1.57A18.81,18.81,0,0,0,489,467a4.19,4.19,0,0,0,2.78,3.24,19.48,19.48,0,0,1,4,1.91l-1.4,1.81c-2.6-3-5.17-1.37-7.63,0-.22-.15-.39-.19-.42-.28-.67-2.31-2.29-3.13-4.57-3a12.78,12.78,0,0,1-1.74-.1v0c.73-2.64.73-2.64-3.07-5.74,2.21-2,.76-3.88-.18-5.81v0c2.42-.35,2.54-2.21,2.57-4.25,2,.29,3.12-.91,4-2.42a4.28,4.28,0,0,0,4.47-.32h0c.16,1.85,1.64,1.82,3.07,2.06-.15,1.48.71,2.31,2,2.83a12.09,12.09,0,0,1,1.4,1c1.35,1.31,2.58,1.11,4.11.12,6-3.8,12-7.44,18-11.2a52.51,52.51,0,0,0,6-3.88l0,0a1.06,1.06,0,0,0,.81-.43l0,0A.54.54,0,0,0,523.68,442.11Z" transform="translate(-373.02 -375.83)"/><path class="cls-3" d="M495.79,472.14a19.48,19.48,0,0,0-4-1.91A4.19,4.19,0,0,1,489,467a18.81,18.81,0,0,1-.77-3.4c0-1.22.25-1.48,1.47-1.57.39,0,.79,0,1.18,0q48.12,0,96.24,0a8.14,8.14,0,0,1,4.14.86,6.88,6.88,0,0,1,2.83,3.61q3.57,8.52,7.1,17,5.45,13.11,10.85,26.22,6.15,14.82,12.33,29.62c3,7.25,6,14.5,9,21.73.24.57.15,1.3.72,1.74v2.75c-.1.07-.24.13-.28.23q-2.79,6.91-5.56,13.83c-1,2.39-1.88,4.8-2.9,7.17s-3.11,2.57-4.71.67c-.34-.39-.65-.81-1-1.2-1.57-1.8-2.83-3.86-4.62-5.48-2.29-2.92-4.56-5.86-6.89-8.75q-9.43-11.76-18.92-23.47l-28.71-35.67q-6.75-8.38-13.48-16.79a9.7,9.7,0,0,0-3.72-2.78l-18.76-8.4-24.65-11C498.56,473.3,497.17,472.73,495.79,472.14Z" transform="translate(-373.02 -375.83)"/><path class="cls-4" d="M531.1,551.94l-9.37-15.11-19.11-30.76c-4.2-6.77-8.38-13.54-12.61-20.28a4.73,4.73,0,0,1,.23-5.81c1.35-1.84,2.61-3.73,4.14-5.94,4.26,8.87,8.39,17.47,12.53,26.06s8.32,17.14,12.38,25.76,8.4,17.16,12.29,25.89Z" transform="translate(-373.02 -375.83)"/><path class="cls-5" d="M486.28,474.22c-.17,2.73-.31,5.19-.49,7.65-.23,3.18-.49,6.36-.74,9.54-.48,5.83-1,11.67-1.43,17.51-.33,4.35-.59,8.7-.93,13.05-.46,6-1,11.94-1.43,17.91-.34,4.45-.62,8.9-.93,13.49a7.29,7.29,0,0,1-.58-3.37c.05-7.11-.43-14.21-.57-21.32-.07-3.83-.13-7.69-.35-11.52-.25-4.3-.15-8.61-.41-12.9-.24-4-.15-7.95-.38-11.91-.22-3.78-.25-7.56-.37-11.34a4,4,0,0,1,2.65-4.11A41.81,41.81,0,0,1,486.28,474.22Z" transform="translate(-373.02 -375.83)"/><path class="cls-6" d="M480,470.48v0l-16.89,24.68-21.5,31.47a3.43,3.43,0,0,1-1.16,1.29l-.08-.08a3.13,3.13,0,0,1,.58-1.64q10.29-19.23,20.6-38.46c2.74-5.12,5.54-10.2,8.23-15.35a4.08,4.08,0,0,1,4.38-2.53C476.13,470.12,478.08,470.29,480,470.48Z" transform="translate(-373.02 -375.83)"/><path class="cls-7" d="M420.08,491.42l28.73-17.85c6.21-3.85,12.46-7.65,18.63-11.57,2-1.25,3.67-1.48,5.52.07,1.09.91,2.44,1.5,3.48,2.52C475.21,465.79,421.91,491.28,420.08,491.42Z" transform="translate(-373.02 -375.83)"/><path class="cls-8" d="M476.78,458.91v0c-5.91-.42-11.82-.83-17.73-1.28q-10.14-.75-20.26-1.56c-6.55-.51-13.1-1-19.67-1.72,1.41-.14,2.83-.36,4.25-.41,2.54-.09,5.09,0,7.63-.13,4.89-.2,9.78-.24,14.66-.45,3.91-.17,7.84-.07,11.73-.38,4.68-.38,9.38-.05,14.06-.53a3,3,0,0,1,3.16,1.84Q475.68,456.62,476.78,458.91Z" transform="translate(-373.02 -375.83)"/><path class="cls-7" d="M437.76,425.56c1.61.24,2.84,1.29,4.2,2q18,9.54,35.89,19.17c1.78.95,2.1,1.61,1.86,3.6-.14,1.21.11,2.46-.45,3.86-1.3-.85-2.55-1.64-3.76-2.47q-16.89-11.52-33.75-23.08a29.94,29.94,0,0,1-4.08-3Z" transform="translate(-373.02 -375.83)"/><path class="cls-5" d="M483.5,452c-6.57-13.7-13-27-19.36-40.34.79-.21.86.36,1.08.71l13.95,22.4c2.17,3.49,4.3,7,6.51,10.45a3,3,0,0,1-.08,3.78C485,449.92,484.35,450.83,483.5,452Z" transform="translate(-373.02 -375.83)"/><path class="cls-9" d="M491.38,412.71c.06,5.85.29,11.7.52,17.54.23,5.58.14,11.18.59,16.75a8.15,8.15,0,0,1,0,1.56,1.91,1.91,0,0,1-1.09,1.72,24.5,24.5,0,0,1-3.53,1.63h0c.18-5.4.69-10.78,1.15-16.16.37-4.42.6-8.84.94-13.26.24-3.24.54-6.48.81-9.73Z" transform="translate(-373.02 -375.83)"/><path class="cls-8" d="M511.56,424.58c-.75,2.32-2.15,4.3-3.26,6.43-3.79,7.2-7.68,14.35-11.5,21.53a2.49,2.49,0,0,1-2.78,1.63c-.81-.13-1.71.19-2.55-.53a10.63,10.63,0,0,1,2-3.41q7.41-10.91,14.9-21.76c1-1.39,2-2.73,3-4.09Z" transform="translate(-373.02 -375.83)"/><path class="cls-10" d="M522.42,442.88a52.51,52.51,0,0,1-6,3.88c-6,3.76-12,7.4-18,11.2-1.53,1-2.76,1.19-4.11-.12a12.09,12.09,0,0,0-1.4-1c5.19-2.52,10.38-5.06,15.58-7.56q6-2.88,11.95-5.71C521.06,443.23,521.64,442.74,522.42,442.88Z" transform="translate(-373.02 -375.83)"/><path class="cls-11" d="M411.8,454.52v-.62a5.55,5.55,0,0,1,3.81.68A19.23,19.23,0,0,1,411.8,454.52Z" transform="translate(-373.02 -375.83)"/><path class="cls-12" d="M491.38,412.71l-.62.06a3.52,3.52,0,0,1,.62-3.14Z" transform="translate(-373.02 -375.83)"/><path class="cls-13" d="M516.28,416c.24-.41.32-.92.73-1.23l.39.35a2,2,0,0,1-.79,1.16Z" transform="translate(-373.02 -375.83)"/><path class="cls-7" d="M437.67,425.65a1,1,0,0,1-.92-.65,1,1,0,0,1,1,.56Z" transform="translate(-373.02 -375.83)"/><path class="cls-13" d="M460.28,403.48a.68.68,0,0,1,0,.82c-.25-.1-.29-.33-.32-.55Z" transform="translate(-373.02 -375.83)"/><path class="cls-13" d="M516.61,416.3c-.06.31-.13.61-.49.7l-.11-.15.27-.83Z" transform="translate(-373.02 -375.83)"/><path class="cls-13" d="M430.28,420.89c.3.11.46.38.26.58s-.36-.2-.55-.29Z" transform="translate(-373.02 -375.83)"/><path class="cls-10" d="M523.19,442.47a1.06,1.06,0,0,1-.81.43C522.49,442.45,522.87,442.51,523.19,442.47Z" transform="translate(-373.02 -375.83)"/><path class="cls-13" d="M516.12,417l-.22.27a.39.39,0,0,1-.1-.16.21.21,0,0,1,.21-.26Z" transform="translate(-373.02 -375.83)"/><polygon class="cls-8" points="139.07 47.67 138.95 47.72 138.96 47.59 139.07 47.67"/><path class="cls-8" d="M511.35,424.38c.08-.08.22-.25.24-.24.21.15.1.3,0,.44Z" transform="translate(-373.02 -375.83)"/><path class="cls-10" d="M523.68,442.11a.54.54,0,0,1-.53.38C523.21,442.2,523.44,442.15,523.68,442.11Z" transform="translate(-373.02 -375.83)"/><path class="cls-6" d="M440.48,528l-.18.26c-.21-.18-.07-.26.1-.34Z" transform="translate(-373.02 -375.83)"/><polygon class="cls-6" points="66.84 152.97 66.89 153.1 66.78 153.09 66.84 152.97"/></svg>