<svg id="Calque_1" data-name="Calque 1" xmlns="http://www.w3.org/2000/svg" viewBox="0 0 998.44 776.4">
  <defs>
    <style>
      .cls-1 {
        fill: #fff;
      }
    </style>
  </defs>
  <title>cardio</title>
  <path class="cls-1" d="M1014.79,546.39H953.57c88.58-184.22-12-367.4-178.36-404.79a14.63,14.63,0,0,0-6.41,28.54C920.29,204.2,1012,375.85,921.12,546.39H866.87L816.3,444.75c-5.83-11.73-23-10.42-27,2L742.63,591.44,690.25,472a14.62,14.62,0,1,0-26.79,11.74l67.85,154.79c5.39,12.29,23.2,11.41,27.32-1.39l47.48-147.18,38.6,77.62a14.67,14.67,0,0,0,13.11,8.11h45.53c-93.19,141.57-295,249.54-373.15,303.69C405.47,798.53,240.08,701.78,157.05,575.65h70.89a14.65,14.65,0,0,0,13.16-8.24l62.46-128.49L381.8,668.54c4.58,13.43,23.83,13.08,27.87-.58l61.9-209.39,55.81,93.83a14.63,14.63,0,0,0,26.12-2l66.93-164.89,20,45.58a14.62,14.62,0,1,0,26.79-11.74L633.31,342c-5.25-12-22.14-11.48-27,.37L537.46,512.15l-57.87-97.29A14.63,14.63,0,0,0,453,418.19L394.66,615.58,319.78,395.84c-4.19-12.31-21.28-13.42-27-1.68l-74,152.23H139.29c-102.79-192.88,28-382.15,205.59-382.15a239.76,239.76,0,0,1,174.75,74.68,14.61,14.61,0,0,0,21.14,0,241.57,241.57,0,0,1,151.69-73.59,14.62,14.62,0,1,0-2.75-29.12,270.71,270.71,0,0,0-159.5,72C479.83,160.89,414.59,135,344.88,135c-192.42,0-339.48,200.46-238,411.4H45.61a14.63,14.63,0,0,0,0,29.26h77.14C206.9,717,384.66,819.89,522.27,909a14.57,14.57,0,0,0,15.86,0c137.42-89,315.35-192,399.53-333.39h77.13a14.63,14.63,0,1,0,0-29.26Z" transform="translate(-30.98 -134.99)"/>
</svg>
