<?xml version="1.0" encoding="utf-8"?>
<!-- Generator: Adobe Illustrator 23.0.6, SVG Export Plug-In . SVG Version: 6.00 Build 0)  -->
<svg version="1.1" id="Calque_1" xmlns="http://www.w3.org/2000/svg" xmlns:xlink="http://www.w3.org/1999/xlink" x="0px" y="0px"
	 viewBox="0 0 997.4 776.3" style="enable-background:new 0 0 997.4 776.3;" xml:space="preserve">
<style type="text/css">
	.st0{fill:#FFFFFF;}
</style>
<title>cardio</title>
<path class="st0" d="M72,296C59.5,149.5,171.3,29.2,312.9,29.2c66-0.2,129.3,26.8,174.8,74.7c5.6,5.8,14.8,6.1,20.7,0.5l0,0
	c0.2-0.1,0.3-0.3,0.5-0.5c40.1-42,93.9-68.1,151.7-73.6c8-0.8,13.9-7.9,13.2-15.9s-7.9-13.9-15.9-13.2c-59.7,5.7-115.8,31-159.5,72
	C447.9,25.9,382.6,0,312.9,0C149.4,0,18.6,144.8,45.3,317.7"/>
<path class="st0" d="M392.8,485L443,318.8l54.9,90.3c4.2,6.7,12.9,8.8,19.7,4.8c2.7-1.5,4.8-3.9,6-6.8l65.8-158.7l19.7,43.9
	c3.3,7.2,11.7,10.4,18.9,7.2c7.1-3,10.5-11.2,7.5-18.3c0-0.1-0.1-0.1-0.1-0.2l0,0L602,206.6c-5.2-11.6-21.8-11.1-26.5,0.4
	l-67.7,163.4l-56.9-93.6c-4.2-6.7-12.9-8.9-19.7-4.9c-3.1,1.8-5.4,4.7-6.4,8.1l-54.2,176.2L392.8,485z"/>
<path class="st0" d="M407.2,720.8c28.5,18.4,56.5,36,83.1,53.2c4.8,3.1,11,3.1,15.9,0c137.4-89,315.4-192,399.5-333.4h76.8
	c7.6,0.1,14-5.5,14.9-13c0.9-8-4.9-15.3-12.9-16.2c-0.5-0.1-1.1-0.1-1.6-0.1l0,0l0,0h-61.2c88.6-184.2-12-367.4-178.4-404.8
	c-8-1.5-15.7,3.6-17.3,11.5c-1.5,7.6,3.2,15.1,10.8,17C888.3,69.2,980,240.9,889.1,411.4h-54.3l-50.6-101.6c-5.8-11.7-23-10.4-27,2
	l-46.7,144.7L658.3,337c-3.2-7.4-11.9-10.8-19.3-7.5c-7.4,3.2-10.8,11.9-7.5,19.3l0,0l67.8,154.8c5.4,12.3,23.2,11.4,27.3-1.4
	L774.1,355l38.6,77.6c2.5,5,7.6,8.1,13.1,8.1h45.5c-93.2,141.6-295,249.5-373.1,303.7c-24.7-16-51-32.6-77.9-50"/>
<g>
	<path class="st0" d="M445,582.3c0,14.3,0,28.7,0,43c-0.3,0.5-0.9,1-1,1.5c-0.7,14.9-4.3,29.4-8.7,43.5
		c-10.7,34.5-29.4,64.3-54.3,90.3c-7.8,8.1-17.4,13.3-28.1,16.7c-86.7,0-173.3,0-260,0c-5-2.2-10.2-3.9-14.9-6.5
		c-12.6-7.1-21.1-18.6-30-29.5c-12.8-15.8-22.9-33.3-30.7-52.1c-6-15-10.6-30.3-13.3-46.3c-1-5.9-2-11.7-3-17.5c0-14.7,0-29.3,0-44
		c0.3-0.5,0.9-1,1-1.5c1.5-18.2,5.9-35.6,12-52.8c9.9-27.8,25.2-52.3,45-74.1c3.7-4.1,5.2-8.5,3.1-13.9c-8.2-21.4-16.1-43-24.4-64.4
		c-8-20.3-9.8-40.7-1.6-61.3c10.2-25.7,29.2-41.2,56.2-46.9c4.2-0.9,8.5-1.4,12.8-2.1c78.3,0,156.7,0,235,0c1.3,0.3,2.6,0.8,4,1
		c4.4,0.6,8.9,0.6,13.1,1.7c16.4,4.3,30.3,12.4,41.2,25.9c9.3,11.6,14.9,24.7,16.5,39.2c1.4,13.2-0.2,26.2-5.1,38.8
		c-8.5,22-16.7,44.2-25.2,66.2c-2.7,7-1.9,11.1,3.2,16.5c4.2,4.6,8.3,9.3,12.1,14.3c12.4,16.5,22.8,34.2,30.2,53.6
		c6.1,16,10.9,32.4,13,49.5C443.5,574.9,444.3,578.6,445,582.3z M223.2,756.4c39.8,0,79.7-0.1,119.5,0.1c8.2,0,14.5-3,20.2-8.5
		c18.5-17.7,32.8-38.2,43.6-61.5c9.7-21,15.8-43,17.2-65.9c1.2-19.2,0.6-38.5-3.5-57.7c-7.6-36-23.8-67.4-48-94.6
		c-10.4-11.6-12.8-23.9-7.6-38.1c6.5-17.7,13.4-35.3,20-53.1c4.9-13.2,11-26,9.5-40.7c-1.5-14.6-7.8-26.7-18.2-36.5
		c-12-11.2-27.1-14.6-43.1-14.6c-68.2-0.1-136.3-0.1-204.5,0c-7.9,0-15.9,0.7-23.8,0.9c-16.4,0.5-29.6,7.2-39.9,19.8
		c-12.7,15.6-16.6,33.2-10.1,52c8,23.3,17.1,46.1,25.9,69.1c3.2,8.5,5.7,17.3,2.2,25.9c-2.7,6.8-7.2,13.2-12,18.8
		c-14.2,16.6-25.5,34.8-33.9,54.9c-7.9,19-13.1,38.8-14.5,59.2c-1.1,15.7-0.8,31.4,1.5,47.2c3,20.3,8.8,39.5,17.6,57.8
		c10.8,22.2,25.1,42,43.5,58.7c4.7,4.3,10.2,6.8,16.9,6.8C142.2,756.3,182.7,756.4,223.2,756.4z"/>
	<path class="st0" d="M222.6,318.4c27,0,54-0.1,81,0.1c8.9,0.1,17.6,1.3,25.5,5.9c13.2,7.6,19.7,19,20.9,34
		c1,11.9-4.6,21.9-8.8,32.3c-2.2,5.5-4.4,10.9-6.6,16.3c-5.1,12.6-18.5,17.7-31.8,11.6c-17.4-7.9-35.6-12.9-54.5-15.1
		c-17.9-2.1-35.9-2.1-53.9,0.6c-17.9,2.7-35.1,7.3-51.6,14.7c-14.7,6.6-28-0.9-32.3-13.9c-4-12-10.2-23.4-13.5-35.6
		c-5.3-20,5.7-40.8,26.2-47.8c5.8-2,12.2-3,18.3-3C168.6,318.2,195.6,318.4,222.6,318.4z M314.5,400.1c4.8-12,9.8-24,14.3-36.2
		c0.8-2.2,0.2-5.3-0.5-7.8c-3.4-12-11.2-16.7-23.9-16.8c-50.6-0.2-101.3-0.1-151.9-0.1c-5.6,0-11.2,0.7-16.8,0.9
		c-12.5,0.4-20.1,13-18.6,22.7c0.7,4.9,3,9.6,4.9,14.3c3.2,7.8,6.5,15.5,9.7,22.9C192.9,374.7,253.1,374.8,314.5,400.1z"/>
	<path class="st0" d="M325.5,603.3c0.7,23.6-7.1,44.4-21,62.7c-15.9,20.9-37.2,33.6-63.2,38.4c-23.3,4.2-45.3,0.6-66.2-10.1
		c-19.4-10-34.1-25-43.7-44.5c-3.3-6.6-2.4-15.1,6.5-16.8c4.3-0.8,8.9,1.2,11.5,5.2c5,7.7,9.4,16,15.7,22.4
		c11.5,11.8,25.7,19.5,42.1,22.8c24,4.8,46-0.6,65.2-15.3c16.6-12.7,27.4-29.6,30.7-50.8c2.7-17,1-33.5-6.6-49
		c-7.3-14.9-18.3-26.6-32.8-35.2c-15.2-8.9-31.5-12.3-48.7-10.7c-16.6,1.5-31.7,7.7-44.4,18.8c-9.8,8.7-18.1,18.6-22.8,31.1
		c-1.8,4.9-8.5,7.1-13.3,5c-5.6-2.4-8.2-8.6-5.8-14.2c11.4-26,30.1-44.3,56.5-55.1c16.1-6.6,32.7-8.1,49.4-6.5
		c21.5,2.1,40.4,10.9,56.7,25.5c16.8,15.1,27.2,33.7,32.1,55.5C325,589.3,324.9,596.4,325.5,603.3z"/>
	<path class="st0" d="M259,446.5c0-8.3,4.9-12.2,12.6-10.3c21.1,5.3,39.8,15.4,57,28.4c14.9,11.2,27.4,24.7,38.1,39.8
		c3.3,4.7,3.2,12.2-2.7,16c-4.4,2.9-11,1.9-14.6-3.4c-20.4-30.1-48.6-49.6-82.8-60.8C262,454.8,258.3,452.2,259,446.5z"/>
	<path class="st0" d="M213,439.6c0-6.7,3.5-10.2,10.3-10.2c6.3,0,11.2,4.1,11.5,9.7c0.3,5.8-5.1,11.2-11.2,11.2
		C216.8,450.3,213.1,446.5,213,439.6z"/>
	<path class="st0" d="M121,603.6c0-6.9,3.3-10.2,10.1-10.2c6,0,10.4,4.3,10.5,10.3s-4.7,10.7-10.9,10.6
		C124.4,614.2,121,610.5,121,603.6z"/>
</g>
</svg>
