<svg id="Capa_1" data-name="Capa 1" xmlns="http://www.w3.org/2000/svg" viewBox="0 0 508.95 512">
  <defs>
    <style>
      .cls-1 {
        fill: #fff;
      }
    </style>
  </defs>
  <title>fight</title>
  <path class="cls-1" d="M485.81,264.87,447.94,227a28,28,0,0,0,1-7.54V161.31a10,10,0,0,0-10-10H372L301.53,5.64A10,10,0,0,0,285,3.39l-71.27,81L147.33,60.18a10,10,0,0,0-12.81,6l-19.89,54.64A28,28,0,0,0,113,132.38l-11.92,6.11A117.2,117.2,0,0,0,44.23,202.9L6.44,306.73a80.82,80.82,0,0,0,48.3,103.58L163,449.71a50.38,50.38,0,0,0,17.28,3.07,49.73,49.73,0,0,0,45.09-28.84l19.13-40.8v48A80.9,80.9,0,0,0,325.3,512h80.93a80.9,80.9,0,0,0,80.82-80.82v-41a65.57,65.57,0,0,0,23.43-50.23V324.42A83.63,83.63,0,0,0,485.81,264.87Zm-120-93.55H429v18.07H373.19a10,10,0,1,0,0,20H429v10.07a8,8,0,0,1-8,8H310.55a8,8,0,0,1-8-8V171.32h63.22ZM290.09,27.91l59.73,123.41H292.55a10,10,0,0,0-10,10v55.47l-15.07-32.34a27.87,27.87,0,0,0,3.54-6.73l19.89-54.64a10,10,0,0,0-6-12.82l-51-18.56ZM133.42,127.63l4.78-13.13,60.88,22.15a9.8,9.8,0,0,0,3.42.61,10,10,0,0,0,3.42-19.4L145,95.7l4.85-13.31L268.7,125.63l-16.47,45.25A8,8,0,0,1,242,175.66L138.2,137.89a8,8,0,0,1-4.78-10.26ZM244.48,336l-37.24,79.43a29.84,29.84,0,0,1-37.42,15.46L61.58,391.52a60.82,60.82,0,0,1-36.35-77.95L63,209.75a97.28,97.28,0,0,1,47.19-53.46l11.27-5.78a27.8,27.8,0,0,0,9.88,6.17l103.78,37.77a27.61,27.61,0,0,0,15.43,1.08l16.49,35.37a91.4,91.4,0,0,1,5.17,13.94,117.2,117.2,0,0,0-27.75,75.86V336Zm246,3.91h0a45.73,45.73,0,0,1-45.68,45.68H428.48a25.18,25.18,0,0,1,0-50.35h18a10,10,0,0,0,0-20h-18a45.18,45.18,0,0,0,0,90.35H444.8a65.37,65.37,0,0,0,22.25-3.89v29.46A60.88,60.88,0,0,1,406.24,492H325.3a60.88,60.88,0,0,1-60.82-60.82V320.7a97.23,97.23,0,0,1,26.06-66.37l8.63-9.3a27.75,27.75,0,0,0,11.38,2.43H421a27.82,27.82,0,0,0,14.86-4.28L471.67,279a63.78,63.78,0,0,1,18.81,45.4Z" transform="translate(-1.52 0)"/>
  <path class="cls-1" d="M339.22,192.32a10,10,0,1,0,2.93,7.07A10.05,10.05,0,0,0,339.22,192.32Z" transform="translate(-1.52 0)"/>
  <path class="cls-1" d="M126.34,372.52l-.29-.11a10,10,0,1,0-6.81,18.81l.29.11a10,10,0,0,0,12.81-6A10,10,0,0,0,126.34,372.52Z" transform="translate(-1.52 0)"/>
  <path class="cls-1" d="M90.66,359.53l-15.4-5.6a20.84,20.84,0,0,1-12.44-26.69A10,10,0,0,0,44,320.4a40.81,40.81,0,0,0,24.39,52.32l15.4,5.61a10,10,0,1,0,6.84-18.8Z" transform="translate(-1.52 0)"/>
</svg>
