<svg id="Capa_1" data-name="Capa 1" xmlns="http://www.w3.org/2000/svg" xmlns:xlink="http://www.w3.org/1999/xlink" viewBox="0 0 496.98 500">
  <defs>
    <style>
      .cls-1 {
        fill: url(#Dégradé_sans_nom_34);
      }

      .cls-2 {
        fill: url(#Dégradé_sans_nom_34-2);
      }

      .cls-3 {
        fill: url(#Dégradé_sans_nom_34-3);
      }

      .cls-4 {
        fill: url(#Dégradé_sans_nom_34-4);
      }
    </style>
    <linearGradient id="Dégradé_sans_nom_34" data-name="Dégradé sans nom 34" x1="1.51" y1="252.17" x2="498.49" y2="252.17" gradientUnits="userSpaceOnUse">
      <stop offset="0" stop-color="#c8f9dd"/>
      <stop offset="1" stop-color="#f9c8e4"/>
    </linearGradient>
    <linearGradient id="Dégradé_sans_nom_34-2" x1="314.58" y1="196.91" x2="334.11" y2="196.91" xlink:href="#Dégradé_sans_nom_34"/>
    <linearGradient id="Dégradé_sans_nom_34-3" x1="109.99" y1="375.1" x2="129.82" y2="375.1" xlink:href="#Dégradé_sans_nom_34"/>
    <linearGradient id="Dégradé_sans_nom_34-4" x1="40.55" y1="340.43" x2="94.93" y2="340.43" xlink:href="#Dégradé_sans_nom_34"/>
  </defs>
  <title>fight</title>
  <g>
    <path class="cls-1" d="M474.4,260.85l-37-37a27.38,27.38,0,0,0,1-7.37V159.72a9.78,9.78,0,0,0-9.77-9.77H363.26L294.45,7.7a9.75,9.75,0,0,0-16.14-2.19L208.71,84.6,143.87,61a9.78,9.78,0,0,0-12.51,5.86h0l-19.42,53.36a27.44,27.44,0,0,0-1.6,11.29l-11.64,6a114.5,114.5,0,0,0-55.51,62.9L6.29,301.72A78.92,78.92,0,0,0,53.45,402.87l105.72,38.48a49.08,49.08,0,0,0,16.87,3,48.57,48.57,0,0,0,44-28.16l18.68-39.84v46.87a79,79,0,0,0,78.9,79h79a79,79,0,0,0,78.92-78.92v-40a64,64,0,0,0,22.88-49V319A81.64,81.64,0,0,0,474.4,260.85ZM357.22,169.49h61.71v17.65h-54.5a9.77,9.77,0,1,0,0,19.53h54.5v9.83a7.82,7.82,0,0,1-7.82,7.82H303.26a7.82,7.82,0,0,1-7.82-7.82v-47h61.78Zm-73.94-140L341.6,150H285.68a9.77,9.77,0,0,0-9.77,9.77V213.9L261.2,182.31a27.12,27.12,0,0,0,3.45-6.57l19.43-53.35a9.78,9.78,0,0,0-5.85-12.52h0l-49.8-18.13Zm-153,97.39h0L135,114l59.45,21.63a9.76,9.76,0,1,0,6.68-18.35L141.59,95.65l4.74-13,116.06,42.23-16.08,44.18a7.82,7.82,0,0,1-10,4.67L135,136.85A7.82,7.82,0,0,1,130.28,126.84ZM238.74,330.31l-36.37,77.56A29.14,29.14,0,0,1,165.83,423L60.13,384.52A59.38,59.38,0,0,1,24.64,308.4L61.52,207a95,95,0,0,1,46.08-52.2l11-5.65a27.17,27.17,0,0,0,9.64,6L229.6,192.08a26.88,26.88,0,0,0,15.07,1l16.1,34.54a89.44,89.44,0,0,1,5.05,13.62,114.42,114.42,0,0,0-27.1,74.08v14.94ZM479,334.12a44.65,44.65,0,0,1-44.61,44.61H418.42a24.59,24.59,0,0,1,0-49.17H436A9.77,9.77,0,1,0,436,310H418.42a44.12,44.12,0,0,0,0,88.23h15.93a63.65,63.65,0,0,0,21.73-3.8v28.77a59.44,59.44,0,0,1-59.38,59.41h-79a59.44,59.44,0,0,1-59.39-59.39V315.37a95,95,0,0,1,25.45-64.82l8.42-9.08a27.17,27.17,0,0,0,11.12,2.38H411.11a27.25,27.25,0,0,0,14.51-4.18l35,35A62.28,62.28,0,0,1,479,319Z" transform="translate(-1.51 -2.17)"/>
    <path class="cls-2" d="M331.26,203.81a9.77,9.77,0,1,0-13.81,0A9.77,9.77,0,0,0,331.26,203.81Z" transform="translate(-1.51 -2.17)"/>
    <path class="cls-3" d="M123.38,366h0l-.28-.11a9.77,9.77,0,1,0-6.65,18.37l.28.11a9.78,9.78,0,0,0,12.51-5.86h0A9.76,9.76,0,0,0,123.38,366Z" transform="translate(-1.51 -2.17)"/>
    <path class="cls-4" d="M88.5,353.28h0l-15-5.46a20.36,20.36,0,0,1-12.15-26.07A9.78,9.78,0,0,0,43,315.07a39.87,39.87,0,0,0,23.81,51.09h0l15,5.48a9.77,9.77,0,1,0,6.68-18.36Z" transform="translate(-1.51 -2.17)"/>
  </g>
</svg>
