<?xml version="1.0" encoding="utf-8"?>
<!-- Generator: Adobe Illustrator 23.0.6, SVG Export Plug-In . SVG Version: 6.00 Build 0)  -->
<svg version="1.1" id="Capa_1" xmlns="http://www.w3.org/2000/svg" xmlns:xlink="http://www.w3.org/1999/xlink" x="0px" y="0px"
	 viewBox="0 0 497 500" style="enable-background:new 0 0 497 500;" xml:space="preserve">
<style type="text/css">
	.st0{fill:#FFFFFF;}
</style>
<title>fight</title>
<g>
	<path class="st0" d="M472.9,258.7l-37-37c0.7-2.4,1-4.9,1-7.4v-56.8c0-5.4-4.4-9.8-9.8-9.8h-65.4L292.9,5.5
		c-2.3-4.9-8.2-6.9-13-4.6c-1.2,0.6-2.3,1.4-3.1,2.4l-69.6,79.1l-64.8-23.6c-5.1-1.8-10.7,0.8-12.5,5.9l0,0l-19.4,53.4
		c-1.3,3.6-1.9,7.5-1.6,11.3l-11.6,6c-25.8,13.2-45.6,35.7-55.5,62.9L4.8,299.5c-14.9,41,6.2,86.2,47.2,101.1l105.7,38.5
		c5.4,2,11.1,3,16.9,3c18.9,0,36.1-11,44-28.2l18.7-39.8V421c0,43.6,35.3,78.9,78.9,79h79c43.6,0,78.9-35.4,78.9-78.9v-40
		c14.5-12.2,22.9-30.1,22.9-49v-15.3C497,295,488.3,274.1,472.9,258.7z M355.7,167.3h61.7V185h-54.5c-5.4-0.2-9.9,4.1-10.1,9.5
		c-0.2,5.4,4.1,9.9,9.5,10.1c0.2,0,0.4,0,0.6,0h54.5v9.8c0,4.3-3.5,7.8-7.8,7.8l0,0H301.8c-4.3,0-7.8-3.5-7.8-7.8v0v-47L355.7,167.3
		L355.7,167.3z M281.8,27.3l58.3,120.5h-55.9c-5.4,0-9.8,4.4-9.8,9.8v54.1l-14.7-31.6c1.4-2,2.6-4.2,3.5-6.6l19.4-53.3
		c1.8-5.1-0.8-10.7-5.9-12.5l0,0l-49.8-18.1L281.8,27.3z M128.8,124.7L128.8,124.7l4.7-12.9l59.4,21.6c5.1,1.8,10.7-0.8,12.5-5.8
		c1.8-5.1-0.8-10.7-5.8-12.5l-59.5-21.6l4.7-13l116.1,42.2l-16.1,44.2c-1.5,4-5.9,6.1-10,4.7l-101.3-36.9
		C129.4,133.2,127.3,128.7,128.8,124.7C128.8,124.7,128.8,124.7,128.8,124.7L128.8,124.7z M237.2,328.1l-36.4,77.6
		c-6.4,13.8-22.3,20.4-36.5,15.1L58.6,382.3c-30.8-11.2-46.7-45.3-35.5-76.1c0,0,0,0,0,0L60,204.8c8.2-22.6,24.7-41.3,46.1-52.2
		l11-5.6c2.8,2.7,6,4.7,9.6,6l101.4,36.9c4.8,1.8,10.1,2.1,15.1,1l16.1,34.5c2,4.4,3.7,9,5,13.6c-17.5,20.7-27.1,47-27.1,74.1
		L237.2,328.1L237.2,328.1z M477.5,331.9c0,24.6-20,44.6-44.6,44.6h-16c-13.6-0.3-24.4-11.5-24.1-25.1c0.3-13.2,10.9-23.8,24.1-24.1
		h17.6c5.4,0,9.8-4.4,9.8-9.8s-4.4-9.8-9.8-9.8l0,0h-17.6c-24.4,0.4-43.8,20.4-43.5,44.8c0.4,23.8,19.6,43.1,43.5,43.5h15.9
		c7.4,0,14.8-1.3,21.7-3.8V421c0,32.8-26.6,59.4-59.4,59.4h-79c-32.8,0-59.4-26.6-59.4-59.4V313.2c0-24,9.1-47.2,25.5-64.8l8.4-9.1
		c3.5,1.6,7.3,2.4,11.1,2.4h107.8c5.1,0,10.2-1.4,14.5-4.2l35,35c11.8,11.7,18.4,27.7,18.4,44.3V331.9z"/>
	<path class="st0" d="M329.8,201.6c3.8-3.8,3.8-10,0-13.8s-10-3.8-13.8,0s-3.8,10,0,13.8c0,0,0,0,0,0
		C319.8,205.5,325.9,205.5,329.8,201.6z"/>
	<path class="st0" d="M121.9,363.8L121.9,363.8l-0.3-0.1c-5-1.9-10.7,0.6-12.6,5.6c-1.9,5,0.6,10.7,5.6,12.6c0.1,0,0.2,0.1,0.3,0.1
		l0.3,0.1c5.1,1.8,10.7-0.8,12.5-5.9l0,0C129.6,371.3,127,365.7,121.9,363.8C121.9,363.8,121.9,363.8,121.9,363.8z"/>
	<path class="st0" d="M87,351.1L87,351.1l-15-5.5c-10.5-3.9-16-15.5-12.1-26.1c1.6-5.2-1.4-10.6-6.6-12.2c-4.8-1.4-9.8,0.9-11.8,5.5
		c-7.5,20.7,3.1,43.6,23.8,51.1l0,0l15,5.5c5,1.9,10.7-0.6,12.6-5.6c1.9-5-0.6-10.7-5.6-12.6C87.2,351.2,87.1,351.1,87,351.1
		L87,351.1z"/>
</g>
</svg>
