<?xml version="1.0" encoding="utf-8"?>
<!-- Generator: Adobe Illustrator 23.0.6, SVG Export Plug-In . SVG Version: 6.00 Build 0)  -->
<svg version="1.1" id="Capa_1" xmlns="http://www.w3.org/2000/svg" xmlns:xlink="http://www.w3.org/1999/xlink" x="0px" y="0px"
	 viewBox="0 0 512 512" style="enable-background:new 0 0 512 512;" xml:space="preserve">
<style type="text/css">
	.st0{fill:url(#SVGID_1_);}
</style>
<g>
	<linearGradient id="SVGID_1_" gradientUnits="userSpaceOnUse" x1="-2.288818e-05" y1="256.0001" x2="512" y2="256.0001">
		<stop  offset="4.049120e-07" style="stop-color:#C8F9DD"/>
		<stop  offset="1" style="stop-color:#F9C8E4"/>
	</linearGradient>
	<path class="st0" d="M504,440.2h-33.6v-26.8c8.8-0.2,17.1-1.1,24.1-5.9c9.6-6.6,14-18.9,14-38.7c0-22-7.2-47.5-17.8-65.5
		c13.8-14,21.3-32.4,21.3-52.2c0-36.9-27.4-68.6-63.8-73.9c-5.4-11-14-20.2-24.6-26.1c-4.3-37.7-36-66.1-74.1-66.1
		c-9.9,0-19.5,1.9-28.5,5.6c-7.8-14.2-15.8-21.2-24.4-21.2c-8.7,0-16.7,7.1-24.6,21.6c-6.2,11.6-12.4,28-17.7,47.4
		c-3.7,13.4-6.9,27.8-9.5,42.5c-13.3-7.8-28.3-11.9-44-11.9c-4.6,0-9.1,0.4-13.6,1.1v-56.7c0-25.1-15.9-47.8-39.5-56.3
		c-3.9-1.4-8.2,0.6-9.6,4.5c-1.4,3.9,0.6,8.2,4.5,9.6c17.7,6.4,29.6,23.4,29.6,42.2V174c-14.5,5-27.4,13.8-37.4,25.4v-12.2
		l14.4-14.4c2.9-2.9,2.9-7.7,0-10.6c-2.9-2.9-7.7-2.9-10.6,0l-3.8,3.8v-45.7c0-4.1-3.4-7.5-7.5-7.5s-7.5,3.4-7.5,7.5v11.2l-7.6-7.6
		c-2.9-2.9-7.7-2.9-10.6,0c-2.9,2.9-2.9,7.7,0,10.6l18.2,18.2v58.2c-10.9-15.8-23.8-27.4-37.4-28.8v-68.5
		c0-18.8,11.8-35.7,29.5-42.2c3.9-1.4,5.9-5.7,4.5-9.6c-1.4-3.9-5.7-5.9-9.6-4.5c-23.5,8.6-39.3,31.2-39.3,56.3v71.2
		c-14.5,6.5-29.3,24.1-42,50.4C9.8,267.2,0.5,306.7,0.5,340.6c0,34.7,7.5,56.1,23.5,67.2c13.2,9.1,30,10,48,10v22.4H7.5
		c-4.1,0-7.5,3.4-7.5,7.5s3.4,7.5,7.5,7.5H504c4.1,0,7.5-3.4,7.5-7.5S508.1,440.2,504,440.2L504,440.2z M142.5,401.3
		c5.2,0.8,10.7,1,16.4,1v37.9h-24.2v-32.2C137.5,406.2,140.1,403.9,142.5,401.3L142.5,401.3z M173.9,402.3
		c6.7-0.1,13.3-0.3,19.3-1.5v39.5h-19.3V402.3z M252.9,357.3c7.1,8.7,15.7,12,24.8,13.2c-9.4,6-20.4,9.2-31.9,9.2
		c-8.1,0-16-1.6-23.3-4.7c2.9-8.4,4.3-18.9,4.3-31.8c0-1.3,0-2.6-0.1-3.8c5.2-1.6,10.2-3.7,15-6.3
		C244.4,343.6,248.1,351.5,252.9,357.3z M208.6,394.6c2.5-1.8,4.8-3.8,6.8-6.2c8.9,4,18.4,6.2,28.3,6.5v45.5h-35.3L208.6,394.6z
		 M258.6,393.7c11-1.9,21.4-6.2,30.5-12.7v59.2h-30.5V393.7z M304,371.4c5.8-0.1,11.7-0.5,17.2-1.9v70.8H304V371.4z M352.6,361.7
		v78.6h-16.4v-78.8c1.4-1.2,2.7-2.6,3.9-4.1c1.5-1.8,2.9-3.8,4.2-6.1C346.8,354.9,349.5,358.7,352.6,361.7L352.6,361.7z
		 M367.6,371.8c5.9,2.9,12.4,4.9,19.1,5.7v62.7h-19.1V371.8z M401.8,377.5c5.4-0.7,10.6-2.1,15.6-4.2c0.6,17.1,5.1,28.1,13.9,34.2
		c7,4.8,15.2,5.8,24.1,5.9v26.8h-53.6L401.8,377.5L401.8,377.5z M485.9,395.2c-3.6,2.5-9.1,3.1-15.5,3.3v-13.6
		c0.1-0.1,0.3-0.2,0.4-0.4l11.9-11.9c2.9-2.9,2.9-7.7,0-10.6c-2.9-2.9-7.7-2.9-10.6,0l-1.7,1.7v-21.4c0-4.1-3.4-7.5-7.5-7.5
		s-7.5,3.4-7.5,7.5v56.2c-6.5-0.1-11.9-0.8-15.5-3.3c-5.1-3.5-7.6-12.2-7.6-26.4c0-16.4,4.5-35.6,12.1-51.2
		c7.7-15.9,15.4-21.8,18.5-21.8s10.8,5.9,18.5,21.8c7.6,15.6,12.1,34.8,12.1,51.2C493.5,383,491,391.7,485.9,395.2L485.9,395.2z
		 M497,251.2c0,14.9-5.4,28.9-15.3,39.8c-5.9-6.4-12.3-10.2-18.8-10.2c-2.9,0-5.9,0.8-8.7,2.2v-79.6c0-3.3-0.3-6.5-0.8-9.7
		C478.7,200.8,497,224.3,497,251.2z M350.3,193c5.4-19.4,23.8-34.4,43.9-34.4c24.8,0,44.9,20.1,44.9,44.9v93.6
		c-10.6,14.8-18.7,37.7-21.1,59.1c0,0-0.1,0-0.1,0.1c-5,3.1-10.4,5.1-16.2,6.1v-44l14.4-14.4c2.9-2.9,2.9-7.7,0-10.6
		c-2.9-2.9-7.7-2.9-10.6,0l-3.8,3.8v-45.7c0-4.1-3.4-7.5-7.5-7.5s-7.5,3.4-7.5,7.5v11.2l-7.6-7.6c-2.9-2.9-7.7-2.9-10.6,0
		c-2.9,2.9-2.9,7.7,0,10.6l18.2,18.2v78.5c-16.2-2.7-29.8-14.1-35.1-30c0,0,0-0.1,0-0.1c3.6-14.5,5.3-33.8,5.3-58.9
		C356.9,247.9,354.6,220,350.3,193L350.3,193z M296.5,84.5c1.8,0,10.5,6.3,21.3,37.1c1.4,3.9,5.6,6,9.6,4.6c3.9-1.4,6-5.7,4.6-9.6
		c-1.6-4.4-3.1-8.5-4.7-12.3c7-2.8,14.4-4.2,22.1-4.2c27.7,0,51.2,18.8,57.8,44.9c-4.2-0.9-8.5-1.4-12.9-1.4
		c-19.5,0-37.3,9.5-48.4,24.6c-1.1-5.5-2.3-11-3.6-16.3c-1-4-5-6.5-9-5.5c-4,1-6.5,5-5.5,9.1c9,37.5,14.2,80.5,14.2,118
		c0,39.2-4.3,63.6-13.3,74.5c-5.8,7-13.1,8.3-24.6,8.5V318l24.3-24.3c2.9-2.9,2.9-7.7,0-10.6c-2.9-2.9-7.7-2.9-10.6,0L304,296.7
		v-62.5c0-4.1-3.4-7.5-7.5-7.5s-7.5,3.4-7.5,7.5v15.7l-10.7-10.7c-2.9-2.9-7.7-2.9-10.6,0c-2.9,2.9-2.9,7.7,0,10.6l21.3,21.3
		c0,0,0,0,0,0v85.2c-11.5-0.2-18.8-1.5-24.6-8.5c-8.9-10.9-13.3-35.3-13.3-74.5c0-42,6.6-90.9,17.5-130.7
		C281.8,94.8,294.2,84.5,296.5,84.5z M200.7,184.2c15,0,29.2,4.5,41.3,13c-3.8,25.7-5.9,52-5.9,76.1c0,17.5,0.8,32.1,2.5,44.3
		c-4.2,2.6-8.5,4.7-13.1,6.4c-2.4-20.2-8.4-41.1-17.3-59.5v-18.2l15.8-15.8c2.9-2.9,2.9-7.7,0-10.6c-2.9-2.9-7.7-2.9-10.6,0
		l-5.2,5.2v-8.7c0-4.1-3.4-7.5-7.5-7.5s-7.5,3.4-7.5,7.5v23.9c-8.7-10.6-18-16.3-26.8-16.3c-10.6,0-20.5,7.8-29,19
		c-1.5-3.5-3.1-6.9-4.8-10.3C142.6,203.7,170,184.2,200.7,184.2L200.7,184.2z M32.6,395.5c-7.3-5.1-17.1-16.3-17.1-54.9
		c0-31.8,8.7-68.8,23.3-99C52,214.5,68,196.9,79.6,196.9c12.1,0,32.5,21.2,48,61.7c-4.7,8.8-8.7,18.3-11.7,27.3
		c-1.3,3.9,0.8,8.2,4.7,9.5c3.9,1.3,8.2-0.8,9.5-4.7c10.7-31.9,27.2-51.7,36.3-51.7c6.2,0,17.7,10,28.3,31.9
		c10.7,22.1,17,49.1,17,72.3c0,20.7-3.8,33.5-11.8,39c-6.2,4.3-15.4,5-26.1,5.1v-22.9l24.3-24.3c2.9-2.9,2.9-7.7,0-10.6
		c-2.9-2.9-7.7-2.9-10.6,0l-13.7,13.7v-36.7c0-4.1-3.4-7.5-7.5-7.5s-7.5,3.4-7.5,7.5v80.9c-10.7-0.1-19.9-0.8-26.1-5.1
		c-7.9-5.5-11.8-18.3-11.8-39c0-6.1,0.4-12.4,1.3-18.9c0.5-4.1-2.4-7.9-6.5-8.4c-4.1-0.5-7.9,2.4-8.4,6.5
		c-0.9,7.1-1.4,14.1-1.4,20.8c0,26.4,5.8,42.7,18.2,51.3c0.6,0.4,1.2,0.8,1.9,1.2c-9.5,6.4-22.9,7-39.1,7.1v-78.3L98.6,313
		c2.9-2.9,2.9-7.7,0-10.6c-2.9-2.9-7.7-2.9-10.6,0l-0.9,0.9v-20.6c0-4.1-3.4-7.5-7.5-7.5s-7.5,3.4-7.5,7.5v64.2l-9.4-9.4
		c-2.9-2.9-7.7-2.9-10.6,0c-2.9,2.9-2.9,7.7,0,10.6l19,19c0.3,0.3,0.7,0.6,1.1,0.9v35C56,402.8,42.1,402.1,32.6,395.5L32.6,395.5z
		 M87.1,417.9c11.6,0,22.7-0.4,32.7-3.1v25.5H87.1V417.9z"/>
</g>
</svg>
