<svg id="Calque_1" data-name="Calque 1" xmlns="http://www.w3.org/2000/svg" viewBox="0 0 978.82 240.32"><defs><style>.cls-1{fill:#3de987;}.cls-2{fill:none;}.cls-3{fill:#555c63;}.cls-4{fill:#545f64;}.cls-5{fill:#546264;}.cls-6{fill:#546064;}.cls-7{fill:#546164;}.cls-8{fill:#536365;}.cls-9{fill:#536565;}.cls-10{fill:#586467;}.cls-11{fill:#cbf9df;}.cls-12{fill:#48a776;}.cls-13{fill:#fefefe;}.cls-14{fill:#cdf9e0;}.cls-15{fill:#3ee987;}.cls-16{fill:#f9f9fa;}.cls-17{fill:#fafafa;}.cls-18{fill:#f8f9f9;}.cls-19{fill:#f8f8f8;}.cls-20{fill:#f3f4f4;}.cls-21{fill:#fdfdfd;}.cls-22{fill:#61686e;}.cls-23{fill:#646b71;}</style></defs><title>GAMP</title><path class="cls-1" d="M113.3,665.17h-1.57a4.49,4.49,0,0,1-2.83-5,35.25,35.25,0,0,0-.25-4.47c-.16-4.49-.1-9-.42-13.48-.25-3.63-.1-7.28-.34-10.92-.31-4.61-.13-9.25-.44-13.87-.19-2.8-.08-5.62-.09-8.43a2.62,2.62,0,0,0-.74-2.24,33.68,33.68,0,0,1,0,4c-.57,4.58-.73,9.19-1.11,13.78-.18,2.26-.29,4.55-.49,6.81-.42,4.59-.72,9.19-1.07,13.78-.18,2.27-.39,4.53-.49,6.81-.13,2.89-2.48,4.16-5.16,3-1.19-.51-2.36-1.07-3.55-1.6L67.9,641.32q-12.17-5.51-24.34-11c-2.66-1.19-3.33-3.22-1.91-5.84q3.33-6.08,6.61-12.18,7.29-13.57,14.55-27.18c.16-.29.5-.6,0-1a3,3,0,0,0-.44.42L45.26,609.76c-1.33,1.94-2.65,3.88-4,5.78s-3.53,2.08-5.09.29a14.17,14.17,0,0,1-1-1.24q-7.9-11-15.8-22.08-7.47-10.39-15-20.76c-1.57-2.18-1.21-4,1-5.44,3.21-2,6.43-4,9.64-5.95l23.74-14.71a1.18,1.18,0,0,0,.62-.78,4.39,4.39,0,0,0-2,.69L14.79,556.49c-1.82.88-3.63,1.79-5.48,2.59-2.31,1-4-.11-4.24-2.57-.2-2.26-.55-4.51-.74-6.77q-.66-7.95-1.56-15.88c-.52-4.63-.74-9.31-1.32-13.94-.24-1.86-.37-3.74-.57-5.6a42.36,42.36,0,0,1-.55-7.2c.09-1.38.81-2.31,2.13-2.29,1.64,0,3.23-.36,4.86-.4,3.9-.08,7.8-.09,11.71-.31,4.88-.27,9.77-.18,14.66-.46,1.69-.1,3.39-.08,5.09-.12a19.21,19.21,0,0,0,3.82.06,5.5,5.5,0,0,0-3.81-.67,18.06,18.06,0,0,1-1.95-.09c-4-.61-8.14-.57-12.2-1-2.63-.32-5.32-.24-8-.53-1.81-.2-3.63-.23-5.43-.38-4-.35-5-1.5-3.11-5.37,1.55-3.21,2.95-6.5,4.42-9.75,4.33-9.58,8.68-19.16,13-28.76a2.75,2.75,0,0,1,4.11-1.42c4.24,2.4,8.59,4.62,12.89,6.91L57,470.2c.19.1.27.55.54.29s.05-.47-.25-.57c-3.42-2.82-7.27-5-10.86-7.61-3.23-2.31-6.57-4.47-9.84-6.73-1.76-1.23-1.82-2.77-.2-4.17a9.46,9.46,0,0,1,.79-.58l12.23-8.75q9.38-6.72,18.74-13.42c1.86-1.32,3-1.09,4.19.81,2.84,4.51,5.62,9.07,8.47,13.58,2,3.25,3.91,6.6,6.15,9.72,0,.22.08.45.33.55a.66.66,0,0,0,0-.82c-2.08-4.33-4.18-8.66-6.25-13-1.16-2.41-2.31-4.81-3.42-7.24-.82-1.8-.25-2.9,1.67-3.15,3.07-.42,6.16-.8,9.25-1.1,4.65-.46,9.31-.84,14-1.26,1.68-.16,3.36-.36,5-.52a73,73,0,0,1,7.38-.65c1.67,0,2.31.51,2.32,2.14,0,4.17.31,8.33.37,12.49.06,4.76.41,9.51.46,14.27a4.47,4.47,0,0,0,.14.64c.4-.94.12-1.85.25-2.73.59-4.18.64-8.41,1.07-12.61.25-2.39.3-4.8.49-7.2.11-1.46.9-2.05,2.35-1.91a4.54,4.54,0,0,1,1.45.55c3.2,1.43,6.39,2.88,9.59,4.32l18.14,8.16c1.83.83,2.18,1.82,1.28,3.57-.09.18-.2.34-.29.51l-8.51,16c-.41.31-.49.82-.73,1.23l-.27.83c-.16,0-.24.11-.21.26a.51.51,0,0,0,.09.16l.23-.27c.36-.09.43-.39.49-.7a2,2,0,0,0,.79-1.16,4.54,4.54,0,0,0,1.33-1.65c2.32-3.38,4.69-6.73,6.9-10.18,1.06-1.66,2.73-1.67,3.72-.09.18.28.37.54.56.8l10.25,14.26c1.82,2.54,3.64,5.07,5.45,7.62,1,1.39.86,2.08-.5,3.08-.21.15-.43.29-.65.43-3.59,2.23-7.16,4.49-10.78,6.66-3.35,2-6.52,4.27-10,6-.24,0-.47.09-.53.38l0,0c-.32,0-.7,0-.81.43l0,0c-.78-.14-1.36.35-2,.65-4,1.9-8,3.79-11.95,5.71q-7.8,3.76-15.58,7.56c-1.28-.52-2.14-1.35-2-2.83-1.43-.24-2.91-.21-3.08-2.06a24.12,24.12,0,0,0,3.54-1.63,1.91,1.91,0,0,0,1.09-1.72,9.05,9.05,0,0,0,0-1.56c-.45-5.57-.36-11.17-.59-16.75-.24-5.84-.46-11.69-.52-17.54v-3.07a3.49,3.49,0,0,0-.62,3.13c-.27,3.25-.57,6.49-.82,9.73-.33,4.42-.56,8.84-.94,13.26-.45,5.38-1,10.76-1.14,16.17a4.3,4.3,0,0,1-4.47.31c-.92,1.51-2,2.71-4,2.42,0,2-.15,3.9-2.57,4.25q-1.1-2.3-2.18-4.6a3,3,0,0,0-3.16-1.84c-4.68.48-9.38.15-14.06.53-3.89.31-7.82.21-11.73.38-4.88.21-9.77.25-14.66.45-2.54.1-5.09,0-7.64.13-1.41,0-2.83.27-4.24.42,6.57.67,13.12,1.2,19.67,1.72L86,506.68c5.92.44,11.83.85,17.74,1.27.94,1.93,2.38,3.83.18,5.81,3.8,3.1,3.8,3.1,3.07,5.74-2-.19-3.89-.36-5.83-.56a4.06,4.06,0,0,0-4.38,2.52c-2.69,5.15-5.49,10.24-8.23,15.35Q78.26,556,68,575.27a3.13,3.13,0,0,0-.58,1.64c-.17.08-.31.16-.1.35l.18-.27a3.43,3.43,0,0,0,1.16-1.29l21.5-31.47L107,519.55a12.78,12.78,0,0,0,1.74.1c2.28-.13,3.9.69,4.57,3,0,.09.19.14.42.28,2.46-1.32,5-3,7.63,0l1.4-1.81c1.38.59,2.77,1.16,4.14,1.77l24.65,11,18.76,8.4a9.63,9.63,0,0,1,3.72,2.79q6.72,8.4,13.48,16.78l28.71,35.67q9.47,11.74,18.92,23.47c2.33,2.89,4.59,5.83,6.89,8.75-1.92,1.34-3.85,2.67-5.75,4Q224.94,642,213.6,650.14c-4.45,3.18-8.89,6.37-13.37,9.52a4.22,4.22,0,0,1-6.41-1.22c-3.08-4.9-6.13-9.83-9.17-14.75l-21.05-34c-.24-.39-.44-.93-1.14-.84,2.74,5.73,5.41,11.36,8.11,17q5.33,11.09,10.67,22.16c.79,1.63,1.63,3.25,2.35,4.92,1,2.2.1,4.51-1.91,5.18a9.17,9.17,0,0,1-2.08.44c-6,.57-12,1-18,1.68-1.56.17-3.11.27-4.66.43-3.23.35-6.45.72-9.67,1s-6.48.56-9.71.88-6.56.75-9.85,1.07-6.62.42-9.87.95C116.33,664.79,114.72,664.39,113.3,665.17Zm25-191.77c-1,1.36-2,2.7-3,4.09q-7.47,10.88-14.9,21.76a10.63,10.63,0,0,0-2,3.41c.84.72,1.73.4,2.55.53a2.49,2.49,0,0,0,2.78-1.62c3.82-7.19,7.71-14.34,11.5-21.54,1.11-2.13,2.51-4.11,3.26-6.43.12-.14.24-.29,0-.44A2.94,2.94,0,0,0,138.33,473.4Zm-73.59,1.18a1,1,0,0,0-1-.55,1,1,0,0,0,.92.65,30.74,30.74,0,0,0,4.08,3q16.86,11.56,33.75,23.09c1.21.82,2.46,1.61,3.76,2.46.56-1.39.31-2.65.45-3.86.24-2-.08-2.64-1.86-3.6q-17.94-9.6-35.89-19.16C67.58,475.87,66.34,474.82,64.74,474.58ZM158.08,601l.48-.2c-3.89-8.72-8.23-17.25-12.29-25.89s-8.26-17.17-12.39-25.76l-12.52-26.06c-1.53,2.21-2.79,4.11-4.14,5.94a4.73,4.73,0,0,0-.23,5.81c4.23,6.75,8.41,13.52,12.61,20.28q9.56,15.38,19.1,30.76Q153.4,593.4,158.08,601Zm-44.82-77.73a41.81,41.81,0,0,0-6,2.68,4,4,0,0,0-2.65,4.11c.12,3.78.15,7.56.37,11.34.23,4,.14,7.94.38,11.91.25,4.29.16,8.6.41,12.9.22,3.83.28,7.69.35,11.53.14,7.1.62,14.2.57,21.31a7.29,7.29,0,0,0,.58,3.37c.31-4.59.59-9,.93-13.49.45-6,1-11.94,1.43-17.91.34-4.35.6-8.7.93-13,.46-5.84,1-11.68,1.43-17.51.25-3.18.51-6.36.74-9.54C113,528.43,113.09,526,113.26,523.24Zm-66.2,17.2c1.83-.14,55.13-25.63,56.36-26.83-1-1-2.39-1.6-3.48-2.52-1.86-1.55-3.57-1.32-5.53-.07-6.16,3.92-12.41,7.72-18.62,11.57Zm63.42-39.38c.85-1.21,1.45-2.12,2.1-3a3,3,0,0,0,.08-3.79c-2.22-3.45-4.34-7-6.51-10.45l-14-22.4c-.22-.35-.29-.92-1.08-.71C97.52,474.06,103.91,487.36,110.48,501.06Zm28.59-28.54-.11-.08v.13ZM66.84,577.82l-.06.13h.11Z" transform="translate(0 -424.85)"/><path class="cls-2" d="M150.66,491.13c3.48-1.77,6.65-4.05,10-6,3.62-2.17,7.19-4.43,10.78-6.66.22-.14.44-.28.65-.43,1.36-1,1.48-1.69.5-3.08-1.81-2.55-3.63-5.08-5.45-7.62L156.89,453c-.19-.26-.38-.52-.56-.8-1-1.58-2.66-1.57-3.72.09-2.21,3.45-4.58,6.8-6.9,10.18a4.54,4.54,0,0,1-1.33,1.65l-.39-.35,8.51-16c.09-.17.2-.33.29-.51.9-1.75.55-2.74-1.28-3.57l-18.14-8.16c-3.2-1.44-6.39-2.89-9.59-4.32a4.54,4.54,0,0,0-1.45-.55c-1.45-.14-2.24.45-2.35,1.91-.19,2.4-.24,4.81-.49,7.2-.43,4.2-.48,8.43-1.07,12.61-.13.88.15,1.79-.25,2.73a4.47,4.47,0,0,1-.14-.64c0-4.76-.4-9.51-.46-14.27-.06-4.16-.34-8.32-.37-12.49,0-1.63-.65-2.14-2.32-2.14a73,73,0,0,0-7.38.65c-1.68.16-3.36.36-5,.52-4.65.42-9.31.8-14,1.26-3.09.3-6.18.68-9.25,1.1-1.92.25-2.49,1.35-1.67,3.15,1.11,2.43,2.26,4.83,3.42,7.24,2.07,4.34,4.17,8.67,6.25,13l-.32.27c-2.24-3.12-4.11-6.47-6.15-9.72-2.85-4.51-5.63-9.07-8.47-13.58-1.2-1.9-2.33-2.13-4.19-.81q-9.39,6.68-18.74,13.42l-12.23,8.75a9.46,9.46,0,0,0-.79.58c-1.62,1.4-1.56,2.94.2,4.17,3.27,2.26,6.61,4.42,9.84,6.73,3.59,2.58,7.44,4.79,10.86,7.61l-.29.28-14.44-7.71c-4.3-2.29-8.65-4.51-12.89-6.91A2.75,2.75,0,0,0,25.53,457c-4.29,9.6-8.64,19.18-13,28.76-1.47,3.25-2.87,6.54-4.42,9.75-1.85,3.87-.9,5,3.11,5.37,1.8.15,3.62.18,5.43.38,2.64.29,5.33.21,8,.53,4.06.48,8.16.44,12.2,1a18.06,18.06,0,0,0,1.95.09v.61c-1.7,0-3.4,0-5.09.12-4.89.28-9.78.19-14.66.46-3.91.22-7.81.23-11.71.31-1.63,0-3.22.41-4.86.4-1.32,0-2,.91-2.13,2.29a42.36,42.36,0,0,0,.55,7.2c.2,1.86.33,3.74.57,5.6.58,4.63.8,9.31,1.32,13.94q.9,7.93,1.56,15.88c.19,2.26.54,4.51.74,6.77.22,2.46,1.93,3.56,4.24,2.57,1.85-.8,3.66-1.71,5.48-2.59l22.67-10.93a4.39,4.39,0,0,1,2-.69,1.18,1.18,0,0,1-.62.78L15.09,560.36c-3.21,2-6.43,3.95-9.64,5.95-2.25,1.4-2.61,3.26-1,5.44q7.49,10.38,15,20.76,7.92,11,15.8,22.08a14.17,14.17,0,0,0,1,1.24c1.56,1.79,3.65,1.7,5.09-.29s2.69-3.84,4-5.78l17.16-25.18a3,3,0,0,1,.44-.42c.45.36.11.67,0,1q-7.28,13.61-14.55,27.18-3.28,6.11-6.61,12.18c-1.42,2.62-.75,4.65,1.91,5.84q12.18,5.48,24.34,11l26.83,12.11c1.19.53,2.36,1.09,3.55,1.6,2.68,1.13,5-.14,5.16-3,.1-2.28.31-4.54.49-6.81.35-4.59.65-9.19,1.07-13.78.2-2.26.31-4.55.49-6.81.38-4.59.54-9.2,1.11-13.78a33.68,33.68,0,0,0,0-4,2.62,2.62,0,0,1,.74,2.24c0,2.81-.1,5.63.09,8.43.31,4.62.13,9.26.44,13.87.24,3.64.09,7.29.34,10.92.32,4.5.26,9,.42,13.48a35.25,35.25,0,0,1,.25,4.47,4.49,4.49,0,0,0,2.83,5H0V424.85H261.1v187c-.57-.44-.48-1.17-.72-1.74-3.05-7.23-6-14.48-9-21.73q-6.17-14.8-12.33-29.61-5.43-13.11-10.85-26.23-3.54-8.53-7.11-17a6.81,6.81,0,0,0-2.82-3.61,8.14,8.14,0,0,0-4.14-.86q-48.12,0-96.24,0c-.4,0-.79,0-1.18,0-1.22.09-1.46.35-1.47,1.57A18.81,18.81,0,0,0,116,516a4.2,4.2,0,0,0,2.78,3.25,18.94,18.94,0,0,1,4,1.9l-1.4,1.81c-2.6-3-5.17-1.36-7.63,0-.23-.14-.39-.19-.42-.28-.67-2.31-2.29-3.13-4.57-3a12.78,12.78,0,0,1-1.74-.1v0c.73-2.64.73-2.64-3.07-5.74,2.2-2,.76-3.88-.18-5.81v0c2.42-.35,2.54-2.21,2.57-4.25,2,.29,3.12-.91,4-2.42a4.3,4.3,0,0,0,4.47-.31l0,0c.17,1.85,1.65,1.82,3.08,2.06-.15,1.48.71,2.31,2,2.83a13,13,0,0,1,1.4,1c1.35,1.31,2.57,1.11,4.11.13,6-3.81,12-7.45,18-11.2a54.93,54.93,0,0,0,6-3.89l0,0a1.06,1.06,0,0,0,.81-.43l0,0A.55.55,0,0,0,150.66,491.13Z" transform="translate(0 -424.85)"/><path class="cls-3" d="M122.77,521.16a18.94,18.94,0,0,0-4-1.9A4.2,4.2,0,0,1,116,516a18.81,18.81,0,0,1-.77-3.4c0-1.22.25-1.48,1.47-1.57.39,0,.78,0,1.18,0q48.12,0,96.24,0a8.14,8.14,0,0,1,4.14.86,6.81,6.81,0,0,1,2.82,3.61q3.58,8.52,7.11,17,5.43,13.11,10.85,26.23,6.15,14.81,12.33,29.61c3,7.25,6,14.5,9,21.73.24.57.15,1.3.72,1.74v2.75c-.1.07-.24.13-.28.23q-2.79,6.92-5.56,13.83c-1,2.39-1.88,4.8-2.9,7.17s-3.11,2.57-4.71.67c-.34-.39-.65-.81-1-1.2-1.57-1.8-2.84-3.86-4.62-5.48-2.3-2.92-4.56-5.86-6.89-8.75q-9.43-11.76-18.92-23.47l-28.71-35.67q-6.75-8.38-13.48-16.78a9.63,9.63,0,0,0-3.72-2.79L151.56,534l-24.65-11C125.54,522.32,124.15,521.75,122.77,521.16Z" transform="translate(0 -424.85)"/><path class="cls-4" d="M158.08,601q-4.68-7.56-9.38-15.12-9.54-15.39-19.1-30.76c-4.2-6.76-8.38-13.53-12.61-20.28a4.73,4.73,0,0,1,.23-5.81c1.35-1.83,2.61-3.73,4.14-5.94l12.52,26.06c4.13,8.59,8.33,17.14,12.39,25.76s8.4,17.17,12.29,25.89Z" transform="translate(0 -424.85)"/><path class="cls-5" d="M113.26,523.24c-.17,2.73-.31,5.19-.49,7.65-.23,3.18-.49,6.36-.74,9.54-.48,5.83-1,11.67-1.43,17.51-.33,4.35-.59,8.7-.93,13-.46,6-1,11.94-1.43,17.91-.34,4.45-.62,8.9-.93,13.49a7.29,7.29,0,0,1-.58-3.37c0-7.11-.43-14.21-.57-21.31-.07-3.84-.13-7.7-.35-11.53-.25-4.3-.16-8.61-.41-12.9-.24-4-.15-7.95-.38-11.91-.22-3.78-.25-7.56-.37-11.34a4,4,0,0,1,2.65-4.11A41.81,41.81,0,0,1,113.26,523.24Z" transform="translate(0 -424.85)"/><path class="cls-6" d="M107,519.5v0L90.12,544.23,68.62,575.7A3.43,3.43,0,0,1,67.46,577l-.08-.08a3.13,3.13,0,0,1,.58-1.64Q78.25,556,88.56,536.81c2.74-5.11,5.54-10.2,8.23-15.35a4.06,4.06,0,0,1,4.38-2.52C103.11,519.14,105.05,519.31,107,519.5Z" transform="translate(0 -424.85)"/><path class="cls-7" d="M47.06,540.44l28.73-17.85C82,518.74,88.25,514.94,94.41,511c2-1.25,3.67-1.48,5.53.07,1.09.92,2.44,1.5,3.48,2.52C102.19,514.81,48.89,540.3,47.06,540.44Z" transform="translate(0 -424.85)"/><path class="cls-8" d="M103.76,507.93v0c-5.91-.42-11.82-.83-17.74-1.27l-20.25-1.56c-6.55-.52-13.1-1.05-19.67-1.72,1.41-.15,2.83-.37,4.24-.42,2.55-.09,5.1,0,7.64-.13,4.89-.2,9.78-.24,14.66-.45,3.91-.17,7.84-.07,11.73-.38,4.68-.38,9.38,0,14.06-.53a3,3,0,0,1,3.16,1.84Q102.66,505.64,103.76,507.93Z" transform="translate(0 -424.85)"/><path class="cls-7" d="M64.74,474.58c1.6.24,2.84,1.29,4.2,2q18,9.52,35.89,19.16c1.78,1,2.1,1.61,1.86,3.6-.14,1.21.11,2.47-.45,3.86-1.3-.85-2.55-1.64-3.76-2.46q-16.89-11.53-33.75-23.09a30.74,30.74,0,0,1-4.08-3Z" transform="translate(0 -424.85)"/><path class="cls-5" d="M110.48,501.06c-6.57-13.7-13-27-19.36-40.34.79-.21.86.36,1.08.71l14,22.4c2.17,3.49,4.29,7,6.51,10.45a3,3,0,0,1-.08,3.79C111.93,498.94,111.33,499.85,110.48,501.06Z" transform="translate(0 -424.85)"/><path class="cls-9" d="M118.36,461.73c.06,5.85.28,11.7.52,17.54.23,5.58.14,11.18.59,16.75a9.05,9.05,0,0,1,0,1.56,1.91,1.91,0,0,1-1.09,1.72,24.12,24.12,0,0,1-3.54,1.63l0,0c.18-5.41.69-10.79,1.14-16.17.38-4.42.61-8.84.94-13.26.25-3.24.55-6.48.82-9.73Z" transform="translate(0 -424.85)"/><path class="cls-8" d="M138.54,473.6c-.75,2.32-2.15,4.3-3.26,6.43-3.79,7.2-7.68,14.35-11.5,21.54a2.49,2.49,0,0,1-2.78,1.62c-.82-.13-1.71.19-2.55-.53a10.63,10.63,0,0,1,2-3.41q7.41-10.9,14.9-21.76c.95-1.39,2-2.73,3-4.09Z" transform="translate(0 -424.85)"/><path class="cls-10" d="M149.4,491.9a54.93,54.93,0,0,1-6,3.89c-6,3.75-12.05,7.39-18,11.2-1.54,1-2.76,1.18-4.11-.13a13,13,0,0,0-1.4-1q7.78-3.78,15.58-7.56c4-1.92,8-3.81,11.95-5.71C148,492.25,148.62,491.76,149.4,491.9Z" transform="translate(0 -424.85)"/><path class="cls-11" d="M38.78,503.54v-.61a5.5,5.5,0,0,1,3.81.67A19.21,19.21,0,0,1,38.78,503.54Z" transform="translate(0 -424.85)"/><path class="cls-12" d="M118.36,461.73l-.62.06a3.49,3.49,0,0,1,.62-3.13Z" transform="translate(0 -424.85)"/><path class="cls-13" d="M143.26,465c.24-.41.32-.92.73-1.23l.39.35a2,2,0,0,1-.79,1.16Z" transform="translate(0 -424.85)"/><path class="cls-7" d="M64.65,474.68a1,1,0,0,1-.92-.65,1,1,0,0,1,1,.55Z" transform="translate(0 -424.85)"/><path class="cls-13" d="M87.25,452.5a.66.66,0,0,1,0,.82c-.25-.1-.29-.33-.33-.55Z" transform="translate(0 -424.85)"/><path class="cls-13" d="M143.59,465.32c-.06.31-.13.61-.49.7l-.11-.15.27-.83Z" transform="translate(0 -424.85)"/><path class="cls-13" d="M57.26,469.92c.3.1.46.37.25.57s-.35-.19-.54-.29Z" transform="translate(0 -424.85)"/><path class="cls-10" d="M150.17,491.49a1.06,1.06,0,0,1-.81.43C149.47,491.47,149.85,491.53,150.17,491.49Z" transform="translate(0 -424.85)"/><path class="cls-13" d="M143.1,466l-.23.27a.51.51,0,0,1-.09-.16c0-.15.05-.24.21-.26Z" transform="translate(0 -424.85)"/><polygon class="cls-8" points="139.07 47.67 138.95 47.72 138.96 47.59 139.07 47.67"/><path class="cls-8" d="M138.33,473.4a2.94,2.94,0,0,1,.23-.24c.22.15.1.3,0,.44Z" transform="translate(0 -424.85)"/><path class="cls-10" d="M150.66,491.13a.55.55,0,0,1-.53.38C150.19,491.22,150.42,491.17,150.66,491.13Z" transform="translate(0 -424.85)"/><path class="cls-6" d="M67.46,577l-.18.27c-.21-.19-.07-.27.1-.35Z" transform="translate(0 -424.85)"/><polygon class="cls-6" points="66.84 152.97 66.89 153.1 66.78 153.09 66.84 152.97"/><path class="cls-2" d="M272.56,506.14q0-39.34,0-78.68c0-1.54.34-1.88,1.88-1.88q175.74.06,351.47,0V426c0,.89-.07,1.78-.07,2.67V545.38c0,15.14,0,30.27,0,45.4,0,1.73.46,2.19,2.16,2.14,4.72-.11,9.45,0,14.18,0,3.1,0,2.71.38,2.71-2.73q0-58.95,0-117.91a3.18,3.18,0,0,1,.31-2.14c.19.32.32.48.4.66l18.94,42.57q17.31,39,34.6,78a2.21,2.21,0,0,0,2.42,1.58c5.28-.06,10.55-.08,15.82,0a2.21,2.21,0,0,0,2.41-1.61c1.21-2.89,2.5-5.74,3.77-8.6q23.93-53.93,47.89-107.84a21.8,21.8,0,0,1,2.72-5.35v84.19c0,12.39,0,24.79,0,37.18,0,1.65.47,2.06,2.07,2,4.79-.1,9.58,0,14.37,0,3,0,2.61.35,2.61-2.63q0-80.83,0-161.67a8.68,8.68,0,0,1,0-1c.19-1.28-.36-1.64-1.61-1.62-5.13.06-10.27.11-15.4,0a2.92,2.92,0,0,0-3.2,2q-12.54,28.43-25.16,56.81-17.13,38.57-34.27,77.12c-1.3,2.92-2.62,5.83-4.12,9.16-4.18-9.44-8.12-18.41-12.1-27.37q-21.88-49.2-43.79-98.4c-2.87-6.45-5.54-13-8.7-19.32,0-.11,0-.22,0-.34H824.31c0,.15,0,.29,0,.43,0,.89-.07,1.78-.07,2.67v133.5c0,9.52,0,19,0,28.55,0,1.69.41,2.21,2.14,2.17,4.86-.13,9.73-.13,14.58,0,1.85.05,2.39-.43,2.38-2.35-.07-20,0-40-.09-60,0-1.94.57-2.33,2.39-2.33q35.53.09,71.07,0c4.84,0,9.68.15,14.53-.26a52.05,52.05,0,0,0,15.22-3.56,51,51,0,0,0,31.64-51.34,49.37,49.37,0,0,0-6.39-21.29C962.6,436.34,949,427.8,931.15,426c0-.11,0-.22,0-.34,15.4,0,30.8,0,46.21,0,1.2,0,1.48.22,1.48,1.46q-.06,118.31,0,236.6c0,1.41-.47,1.51-1.63,1.51q-351.51,0-703,0c-1.46,0-1.65-.36-1.65-1.71q.06-75.16,0-150.34l.17,0h.17a86,86,0,0,0,2.34,16.52,83.59,83.59,0,0,0,145.58,33.42,81.59,81.59,0,0,0,17.79-38A100.47,100.47,0,0,0,440,511.89c.08-1.48,0-1.72-1.4-1.72q-45.79,0-91.6,0c-1.35,0-1.74.38-1.72,1.72.08,4.72.12,9.45,0,14.17-.05,1.84.41,2.39,2.33,2.38,22.73-.07,45.45,0,68.18-.07,1.8,0,2.2.3,1.55,2.17a63,63,0,0,1-17.58,26.69C386.62,569,371.3,574.63,353.63,574a61.29,61.29,0,0,1-21.57-4.74,63.4,63.4,0,0,1-33.28-31,62,62,0,0,1-6.55-32.41,64.41,64.41,0,0,1,22.58-45.16,63.33,63.33,0,0,1,37.13-15.22,61.86,61.86,0,0,1,33.22,6.75,2.49,2.49,0,0,0,2.64,0c3.65-2,7.35-3.9,11-5.85,2.37-1.27,4.72-2.57,7.18-3.91-23.67-17.66-56.83-22.13-85.12-8.29-29.74,14.56-45.55,38.95-48,72A1,1,0,0,0,272.56,506.14ZM625.65,622.75H282a8.24,8.24,0,0,0-3.21.36c-4.19,1.67-5.74,5-5.8,9.2-.11,7.46-.14,14.92,0,22.38.11,6.39,3.58,10,10.21,10h685c6.44,0,10.14-3.68,10.14-10.1,0-7.53,0-15.06,0-22.59a9,9,0,0,0-9.3-9.35Q797.36,622.82,625.65,622.75Zm-103.11-175c.32.52.49.73.6,1q6.58,14.83,13.16,29.66,25.08,56.49,50.13,113a2.31,2.31,0,0,0,2.48,1.59c4.86-.07,9.72,0,14.59,0,3,0,3,0,1.78-2.75q-24-53.91-48-107.83-12.06-27.14-24.05-54.3a2.89,2.89,0,0,0-3.15-2.09c-5.06.15-10.13.13-15.2,0a2.66,2.66,0,0,0-2.86,1.93q-12,27.25-24.16,54.47Q465.75,532.17,443.61,582c-1.57,3.53-3.11,7.08-4.79,10.88,6,0,11.63,0,17.29,0a2.46,2.46,0,0,0,2.73-1.71c5.4-12.36,10.91-24.67,16.39-37q15.33-34.44,30.67-68.89C511.43,472.87,516.92,460.41,522.54,447.7Z" transform="translate(0 -424.85)"/><path class="cls-14" d="M931.13,425.61c0,.12,0,.23,0,.34-.89,0-1.77.07-2.66.07l-104.17,0c0-.14,0-.28,0-.43Z" transform="translate(0 -424.85)"/><path class="cls-14" d="M625.89,426v-.43h18.9c0,.12,0,.23,0,.34Z" transform="translate(0 -424.85)"/><path class="cls-14" d="M272.9,513.14h-.17l-.17,0v-7a1,1,0,0,1,.35,0C272.91,508.46,272.9,510.8,272.9,513.14Z" transform="translate(0 -424.85)"/><path class="cls-3" d="M625.65,622.75q171.72,0,343.43-.07a9,9,0,0,1,9.3,9.35c0,7.53,0,15.06,0,22.59,0,6.42-3.7,10.1-10.14,10.1h-685c-6.63,0-10.1-3.64-10.21-10-.14-7.46-.11-14.92,0-22.38.06-4.16,1.61-7.53,5.8-9.2a8.24,8.24,0,0,1,3.21-.36H625.65Zm217.28,18c2,4.71,4,9.4,5.89,14.12,1.67,4.11,1.64,4.06,6.2,4.11,1.46,0,1.8-.41,1.79-1.83-.07-8.34,0-16.68,0-25,0-3.92,0-3.86-3.85-3.86-1.33,0-1.79.37-1.77,1.74.08,4.85,0,9.71,0,14.56a2.86,2.86,0,0,1-.41,2.16c-1.57-4.54-3.08-8.88-4.56-13.23-1.78-5.24-1.77-5.19-7.24-5.23-1.49,0-2,.31-2,1.91.09,8.27,0,16.55,0,24.82,0,4.1,0,4.05,4.11,4,1.17,0,1.52-.36,1.5-1.51-.07-5.47-.06-10.94-.08-16.41Zm-168,5.3-.53,0c-1.43-4.18-2.86-8.35-4.26-12.53-1.78-5.3-1.77-5.25-7.45-5.28-1.5,0-2,.34-2,1.92.09,8.27,0,16.55,0,24.83,0,4.09,0,4,4.13,4,1.2,0,1.49-.41,1.48-1.53,0-5,0-10,0-15,0-.63.07-1.25.11-1.87,2.27,4.75,4.25,9.5,6.17,14.28,1.65,4.1,1.63,4,6,4.11,1.56,0,1.92-.41,1.9-1.92-.07-8.49,0-17,0-25.45,0-3.33,0-3.22-3.35-3.36-1.81-.08-2.34.43-2.29,2.27C675,635.72,674.94,640.9,674.94,646.08Zm-281.6-2.5v10.67c0,4.83,0,4.76,4.79,4.77,1.47,0,1.66-.57,1.64-1.8,0-3.49,0-7,0-10.47,0-.65-.19-1.46.89-1.49.84,0,1.57-.1,1.81,1.08.51,2.47,1.2,4.9,1.77,7.36,1.26,5.45,1.25,5.41,6.81,5.3,1.22,0,1.52-.29,1.16-1.5-1.14-3.78-2.21-7.59-3.27-11.4-.2-.7-.86-1.51.46-2,2.13-.76,2.72-2.51,2.69-4.59,0-1.44,0-2.87,0-4.31,0-4.3-1.55-6.1-5.79-6.65-3.88-.51-7.79-.11-11.68-.26-1.22,0-1.28.58-1.28,1.51C393.36,634.41,393.34,639,393.34,643.58Zm537.78-.15c0,3.29,0,6.57,0,9.85,0,3.09,1,4.68,3.94,5.42a17.26,17.26,0,0,0,9.89-.19c1.19-.4,2.1-.59,3.13.31.8.69,1.37.45,1.37-.72q0-6.26,0-12.51c0-.83-.22-1.27-1.15-1.26-2.53,0-5.07,0-7.6,0-1.25,0-1,.91-.94,1.59s-.43,2,1,1.73c2.52-.43,2.41,1.1,2.32,2.75,0,.89,0,1.78,0,2.67,0,1.92-.76,2.66-2.77,2.57-1.6-.07-2.63-.6-2.59-2.59q.17-9.43,0-18.88c0-1.95.8-2.53,2.56-2.51s3,.28,2.82,2.48c-.1,1,0,2.05,0,3.07s.19,1.43,1.33,1.48c4.71.22,4.71.26,4.69-4.5v-.62c-.08-2.72-1.09-4.26-3.68-5a17.63,17.63,0,0,0-10.87.21c-2.44.86-3.35,2.23-3.36,4.78C931.11,636.87,931.12,640.15,931.12,643.43ZM495.4,628.32a7.21,7.21,0,0,1-1.23,0c-2-.34-2.71.48-3.15,2.5-1.7,7.8-3.66,15.54-5.54,23.29-1.27,5.22-1.29,5.19,4.09,4.9,1,0,1.26-.41,1.47-1.27.81-3.46.84-3.45,4.43-3.45a12.82,12.82,0,0,0,1.64,0c1-.15,1.4.38,1.66,1.3.94,3.41,1,3.4,4.57,3.4a4.47,4.47,0,0,1,.82,0c1.74.28,1.85-.47,1.51-2-1.95-8.37-3.8-16.76-5.69-25.14C499.18,628.32,499.18,628.32,495.4,628.32Zm-187.51,17v9.23c0,4.44,0,4.34,4.48,4.45,1.76.05,2-.62,2-2.11-.06-6.71,0-13.41,0-20.12,0-1.56-.46-3.53.3-4.58s2.82-.36,4.3-.31,1.41-.69,1.32-1.65.43-2-1.24-2c-5.2.06-10.4,0-15.61,0-.51,0-1.05-.12-1.25.68-.52,2,.07,2.85,2.14,2.85a15.57,15.57,0,0,0,2.05,0c1.28-.16,1.63.32,1.6,1.59C307.84,637.4,307.89,641.37,307.89,645.34Zm454.23-1.57V633.11c0-4.85,0-4.79-4.76-4.84-1.54,0-2,.41-2,2,.08,8,0,16,0,24,0,4.86,0,4.81,5,4.8,1.34,0,1.76-.35,1.74-1.7C762.07,652.8,762.12,648.29,762.12,643.77Zm-182.67-.1v10.68c0,4.65,0,4.58,4.68,4.66,1.5,0,2-.32,1.94-1.9-.09-8,0-16,0-24,0-4.9,0-4.85-5-4.79-1.25,0-1.64.34-1.62,1.62C579.5,634.5,579.45,639.09,579.45,643.67Z" transform="translate(0 -424.85)"/><path class="cls-1" d="M625.89,426,644.8,426c3.16,6.32,5.83,12.87,8.7,19.32q21.9,49.2,43.79,98.4c4,9,7.92,17.93,12.1,27.37,1.5-3.33,2.82-6.24,4.12-9.16q17.13-38.57,34.27-77.12,12.6-28.39,25.16-56.81a2.92,2.92,0,0,1,3.2-2c5.13.13,10.27.08,15.4,0,1.25,0,1.8.34,1.61,1.62a8.68,8.68,0,0,0,0,1q0,80.84,0,161.67c0,3,.38,2.62-2.61,2.63-4.79,0-9.58-.06-14.37,0-1.6,0-2.08-.38-2.07-2,.07-12.39,0-24.79,0-37.18V469.52a21.8,21.8,0,0,0-2.72,5.35q-24,53.89-47.89,107.84c-1.27,2.86-2.56,5.71-3.77,8.6a2.21,2.21,0,0,1-2.41,1.61c-5.27-.09-10.54-.07-15.82,0a2.21,2.21,0,0,1-2.42-1.58q-17.25-39-34.6-78l-18.94-42.57c-.08-.18-.21-.34-.4-.66a3.18,3.18,0,0,0-.31,2.14q0,59,0,117.91c0,3.11.39,2.71-2.71,2.73-4.73,0-9.46-.07-14.18,0-1.7.05-2.17-.41-2.16-2.14.07-15.13,0-30.26,0-45.4V428.71C625.82,427.82,625.86,426.93,625.89,426Z" transform="translate(0 -424.85)"/><path class="cls-1" d="M272.9,513.14c0-2.34,0-4.68,0-7,2.41-33.05,18.22-57.44,48-72,28.29-13.84,61.45-9.37,85.12,8.29-2.46,1.34-4.81,2.64-7.18,3.91-3.66,1.95-7.36,3.86-11,5.85a2.49,2.49,0,0,1-2.64,0,61.86,61.86,0,0,0-33.22-6.75,63.33,63.33,0,0,0-37.13,15.22,64.41,64.41,0,0,0-22.58,45.16,62,62,0,0,0,6.55,32.41,63.4,63.4,0,0,0,33.28,31A61.29,61.29,0,0,0,353.63,574c17.67.67,33-5,46.09-16.74a63,63,0,0,0,17.58-26.69c.65-1.87.25-2.18-1.55-2.17-22.73,0-45.45,0-68.18.07-1.92,0-2.38-.54-2.33-2.38.13-4.72.09-9.45,0-14.17,0-1.34.37-1.72,1.72-1.72q45.81,0,91.6,0c1.36,0,1.48.24,1.4,1.72a100.47,100.47,0,0,1-1.36,13.18,81.59,81.59,0,0,1-17.79,38,83.63,83.63,0,0,1-145.58-33.42A86,86,0,0,1,272.9,513.14Z" transform="translate(0 -424.85)"/><path class="cls-1" d="M824.32,426l104.17,0c.89,0,1.77,0,2.66-.07,17.84,1.85,31.45,10.39,40.53,25.9a49.37,49.37,0,0,1,6.39,21.29,51,51,0,0,1-31.64,51.34A52.05,52.05,0,0,1,931.21,528c-4.85.41-9.69.25-14.53.26q-35.53.08-71.07,0c-1.82,0-2.4.39-2.39,2.33.08,20,0,40,.09,60,0,1.92-.53,2.4-2.38,2.35-4.85-.13-9.72-.13-14.58,0-1.73,0-2.15-.48-2.14-2.17.08-9.52,0-19,0-28.55V428.71C824.25,427.82,824.3,426.93,824.32,426Zm62.27,83.74c12.93,0,25.87-.07,38.81,0,9,.06,16.93-2.67,23.47-8.82,8.44-7.93,12.52-17.73,10.37-29.29-3-16.05-16.33-27.43-33.57-27.5-26.76-.11-53.52,0-80.28-.07-1.75,0-2.16.55-2.15,2.22q.07,30.59,0,61.19c0,1.82.48,2.3,2.29,2.29C859.21,509.74,872.9,509.78,886.59,509.78Z" transform="translate(0 -424.85)"/><path class="cls-15" d="M522.54,447.7c-5.62,12.71-11.11,25.17-16.64,37.61q-15.31,34.45-30.67,68.89c-5.48,12.33-11,24.64-16.39,37a2.46,2.46,0,0,1-2.73,1.71c-5.66-.07-11.32,0-17.29,0,1.68-3.8,3.22-7.35,4.79-10.88q22.14-49.85,44.29-99.68Q500,455.1,512.06,427.85a2.66,2.66,0,0,1,2.86-1.93c5.07.12,10.14.14,15.2,0a2.89,2.89,0,0,1,3.15,2.09q12,27.17,24.05,54.3,24,53.93,48,107.83c1.22,2.75,1.22,2.75-1.78,2.75-4.87,0-9.73,0-14.59,0a2.31,2.31,0,0,1-2.48-1.59q-25-56.51-50.13-113-6.57-14.83-13.16-29.66C523,448.43,522.86,448.22,522.54,447.7Z" transform="translate(0 -424.85)"/><path class="cls-16" d="M674.94,646.08c0-5.18.08-10.36-.05-15.53,0-1.84.48-2.35,2.29-2.27,3.34.14,3.35,0,3.35,3.36,0,8.48,0,17,0,25.45,0,1.51-.34,2-1.9,1.92-4.36-.08-4.34,0-6-4.11-1.92-4.78-3.9-9.53-6.17-14.28,0,.62-.11,1.24-.11,1.87,0,5,0,10,0,15,0,1.12-.28,1.51-1.48,1.53-4.13.07-4.13.13-4.13-4,0-8.28.05-16.56,0-24.83,0-1.58.45-1.93,2-1.92,5.68,0,5.67,0,7.45,5.28,1.4,4.18,2.83,8.35,4.26,12.53Z" transform="translate(0 -424.85)"/><path class="cls-16" d="M842.57,641.08c0,5.47,0,10.94.08,16.41,0,1.15-.33,1.49-1.5,1.51-4.11.07-4.11.12-4.11-4,0-8.27.05-16.55,0-24.82,0-1.6.47-1.92,2-1.91,5.47,0,5.46,0,7.24,5.23,1.48,4.35,3,8.69,4.56,13.23a2.86,2.86,0,0,0,.41-2.16c0-4.85.06-9.71,0-14.56,0-1.37.44-1.74,1.77-1.74,3.85,0,3.85-.06,3.85,3.86,0,8.35,0,16.69,0,25,0,1.42-.33,1.85-1.79,1.83-4.56,0-4.53,0-6.2-4.11-1.93-4.72-3.93-9.41-5.89-14.12-.15-.27,0-.71-.42-.87A1.27,1.27,0,0,0,842.57,641.08Z" transform="translate(0 -424.85)"/><path class="cls-17" d="M393.34,643.58c0-4.59,0-9.17,0-13.76,0-.93.06-1.56,1.28-1.51,3.89.15,7.8-.25,11.68.26,4.24.55,5.78,2.35,5.79,6.65,0,1.44,0,2.87,0,4.31,0,2.08-.56,3.83-2.69,4.59-1.32.47-.66,1.28-.46,2,1.06,3.81,2.13,7.62,3.27,11.4.36,1.21.06,1.48-1.16,1.5-5.56.11-5.55.15-6.81-5.3-.57-2.46-1.26-4.89-1.77-7.36-.24-1.18-1-1.11-1.81-1.08-1.08,0-.89.84-.89,1.49,0,3.49,0,7,0,10.47,0,1.23-.17,1.8-1.64,1.8-4.79,0-4.79.06-4.79-4.77Zm6.33-6.73c0,1.22,0,2.45,0,3.68,0,.46-.14,1.14.38,1.27a6.85,6.85,0,0,0,4.22-.23c1.11-.43,1.29-1.45,1.26-2.55,0-1.43.05-2.87,0-4.29-.15-2.33-1.23-2.93-4.4-2.91-2.45,0-1.15,1.78-1.4,2.79A9.83,9.83,0,0,0,399.67,636.85Z" transform="translate(0 -424.85)"/><path class="cls-18" d="M931.12,643.43c0-3.28,0-6.56,0-9.85,0-2.55.92-3.92,3.36-4.78a17.63,17.63,0,0,1,10.87-.21c2.59.73,3.6,2.27,3.68,5v.62c0,4.76,0,4.72-4.69,4.5-1.14-.05-1.39-.47-1.33-1.48s-.07-2.06,0-3.07c.21-2.2-1.14-2.45-2.82-2.48s-2.59.56-2.56,2.51q.15,9.44,0,18.88c0,2,1,2.52,2.59,2.59,2,.09,2.75-.65,2.77-2.57,0-.89,0-1.78,0-2.67.09-1.65.2-3.18-2.32-2.75-1.38.24-.92-1-1-1.73s-.31-1.6.94-1.59c2.53,0,5.07,0,7.6,0,.93,0,1.15.43,1.15,1.26q0,6.25,0,12.51c0,1.17-.57,1.41-1.37.72-1-.9-1.94-.71-3.13-.31a17.26,17.26,0,0,1-9.89.19c-2.89-.74-3.93-2.33-3.94-5.42C931.11,650,931.12,646.72,931.12,643.43Z" transform="translate(0 -424.85)"/><path class="cls-17" d="M495.4,628.32c3.78,0,3.78,0,4.58,3.56,1.89,8.38,3.74,16.77,5.69,25.14.34,1.49.23,2.24-1.51,2a4.47,4.47,0,0,0-.82,0c-3.61,0-3.63,0-4.57-3.4-.26-.92-.62-1.45-1.66-1.3a12.82,12.82,0,0,1-1.64,0c-3.59,0-3.62,0-4.43,3.45-.21.86-.51,1.22-1.47,1.27-5.38.29-5.36.32-4.09-4.9,1.88-7.75,3.84-15.49,5.54-23.29.44-2,1.14-2.84,3.15-2.5A7.21,7.21,0,0,0,495.4,628.32Zm-.22,9.89c-.84,3.89-1.57,7.41-2.36,10.91-.31,1.36-.07,1.94,1.52,1.93,3.46,0,3.45.05,2.74-3.43C496.45,644.59,495.85,641.55,495.18,638.21Z" transform="translate(0 -424.85)"/><path class="cls-19" d="M307.89,645.34c0-4-.05-7.94,0-11.91,0-1.27-.32-1.75-1.6-1.59a15.57,15.57,0,0,1-2.05,0c-2.07,0-2.66-.84-2.14-2.85.2-.8.74-.68,1.25-.68,5.21,0,10.41,0,15.61,0,1.67,0,1.16,1.1,1.24,2s.06,1.7-1.32,1.65-3.56-.71-4.3.31-.29,3-.3,4.58c0,6.71,0,13.41,0,20.12,0,1.49-.2,2.16-2,2.11-4.48-.11-4.48,0-4.48-4.45Z" transform="translate(0 -424.85)"/><path class="cls-20" d="M762.12,643.77c0,4.52,0,9,0,13.54,0,1.35-.4,1.7-1.74,1.7-5,0-5,.06-5-4.8,0-8,0-16,0-24,0-1.54.41-2,2-2,4.76.05,4.76,0,4.76,4.84Z" transform="translate(0 -424.85)"/><path class="cls-21" d="M579.45,643.67c0-4.58,0-9.17,0-13.75,0-1.28.37-1.6,1.62-1.62,5-.06,5-.11,5,4.79,0,8,0,16,0,24,0,1.58-.44,1.92-1.94,1.9-4.67-.08-4.68,0-4.68-4.66Z" transform="translate(0 -424.85)"/><path class="cls-3" d="M842.57,641.08a1.27,1.27,0,0,1-.06-1.17c.43.16.27.6.42.87Z" transform="translate(0 -424.85)"/><path class="cls-22" d="M399.67,636.85a9.83,9.83,0,0,1,0-2.24c.25-1-1.05-2.78,1.4-2.79,3.17,0,4.25.58,4.4,2.91.08,1.42,0,2.86,0,4.29,0,1.1-.15,2.12-1.26,2.55a6.85,6.85,0,0,1-4.22.23c-.52-.13-.37-.81-.38-1.27C399.66,639.3,399.67,638.07,399.67,636.85Z" transform="translate(0 -424.85)"/><path class="cls-23" d="M495.18,638.21c.67,3.34,1.27,6.38,1.9,9.41.71,3.48.72,3.39-2.74,3.43-1.59,0-1.83-.57-1.52-1.93C493.61,645.62,494.34,642.1,495.18,638.21Z" transform="translate(0 -424.85)"/></svg>