<?xml version="1.0" encoding="utf-8"?>
<!-- Generator: Adobe Illustrator 23.0.6, SVG Export Plug-In . SVG Version: 6.00 Build 0)  -->
<svg version="1.1" id="Capa_1" xmlns="http://www.w3.org/2000/svg" xmlns:xlink="http://www.w3.org/1999/xlink" x="0px" y="0px"
	 viewBox="0 0 512 502" style="enable-background:new 0 0 512 502;" xml:space="preserve">
<style type="text/css">
	.st0{fill:#FFFFFF;}
</style>
<title>kettlebell</title>
<g>
	<circle class="st0" cx="412" cy="251" r="10"/>
	<path class="st0" d="M502,40h-80V10c0-5.5-4.5-10-10-10h-60c-5.5,0-10,4.5-10,10v30h-80c-5.5,0-10,4.5-10,10v60.5
		c-10.5-5.6-22.2-8.5-34.1-8.5H92.1C51.7,102,19,134.7,19,175.1c0,12.8,3.4,25.4,9.8,36.5L48,244.9C17.3,274.1,0,314.6,0,357
		c0,41,16.3,78.3,45.8,105c28.5,25.8,67.4,40,109.2,40s80.6-14.2,109.2-40H342v30c0,5.5,4.5,10,10,10h60c5.5,0,10-4.5,10-10v-30h80
		c5.5,0,10-4.5,10-10v-80c0-5.5-4.5-10-10-10h-80v-66c0-5.5-4.5-10-10-10s-10,4.5-10,10v66h-40V140h40v66c0,5.5,4.5,10,10,10
		s10-4.5,10-10v-66h80c5.5,0,10-4.5,10-10V50C512,44.5,507.5,40,502,40z M362,20h40v20h-40V20z M272,60h220v20H272V60z M20,357
		c0-39.4,17.2-76.9,47.2-102.5c3.7-3.1,4.6-8.4,2.2-12.6l-23.2-40.2c-14.7-25.4-5.9-57.9,19.5-72.5c8.1-4.7,17.2-7.1,26.5-7.1H218
		c29.3,0,53.1,23.8,53.1,53.1c0,9.3-2.5,18.5-7.1,26.5l-23.2,40.2c-2.4,4.2-1.5,9.5,2.1,12.6c30,25.6,47.2,63.1,47.2,102.5
		c0,71.3-58,125-135,125S20,428.3,20,357z M402,482h-40v-20h40V482z M492,442H282.4c4.7-6.3,8.9-13,12.4-20H492V442z M412,382h80v20
		H303c2.1-6.5,3.7-13.2,4.9-20H412z M342,362h-32.1c0-1.7,0.1-3.3,0.1-5c0-42.4-17.3-82.9-48-112.1l19.2-33.2
		c12.8-22.1,13.1-49.3,0.8-71.6h60V362z M492,120H272v-20h220V120z"/>
	<path class="st0" d="M251,175.1c0-18.3-14.8-33.1-33.1-33.1H92.1C73.8,142,59,156.8,59,175.1c0,5.8,1.5,11.5,4.4,16.5l22.3,38.6
		c2.6,4.5,8.1,6.2,12.8,4.1c35.8-16.4,77-16.4,112.9,0c4.7,2.2,10.3,0.4,12.9-4.1l22.3-38.6C249.5,186.6,251,180.9,251,175.1z
		 M229.3,181.6l-17.9,30.9c-36.3-14.1-76.5-14.1-112.8,0l-17.9-30.9c-3.6-6.3-1.5-14.3,4.8-17.9c2-1.1,4.2-1.7,6.5-1.7h125.8
		c7.2,0,13.1,5.9,13.1,13.1C231,177.4,230.4,179.7,229.3,181.6z"/>
</g>
</svg>
