<svg id="Capa_1" data-name="Capa 1" xmlns="http://www.w3.org/2000/svg" viewBox="0 0 512 502">
  <defs>
    <style>
      .cls-1 {
        fill: #fff;
      }
    </style>
  </defs>
  <title>kettlebell</title>
  <g>
    <circle class="cls-1" cx="412" cy="251" r="10"/>
    <path class="cls-1" d="M502,45H422V15A10,10,0,0,0,412,5H352a10,10,0,0,0-10,10V45H262a10,10,0,0,0-10,10v60.47A72.6,72.6,0,0,0,217.91,107H92.09a73.1,73.1,0,0,0-63.3,109.64L48,249.88A154.88,154.88,0,0,0,0,362c0,41,16.25,78.25,45.76,105C74.31,492.77,113.11,507,155,507s80.64-14.2,109.18-40H342v30a10,10,0,0,0,10,10h60a10,10,0,0,0,10-10V467h80a10,10,0,0,0,10-10V377a10,10,0,0,0-10-10H422V301a10,10,0,0,0-20,0v66H362V145h40v66a10,10,0,0,0,20,0V145h80a10,10,0,0,0,10-10V55A10,10,0,0,0,502,45ZM362,25h40V45H362ZM272,65H492V85H272ZM20,362A134.91,134.91,0,0,1,67.19,259.47a10,10,0,0,0,2.15-12.6L46.11,206.64a53.1,53.1,0,0,1,46-79.64H217.91a53.1,53.1,0,0,1,46,79.64l-23.23,40.23a10,10,0,0,0,2.15,12.6A134.91,134.91,0,0,1,290,362c0,71.26-58,125-135,125S20,433.26,20,362ZM402,487H362V467h40Zm90-40H282.39a135.92,135.92,0,0,0,12.41-20H492Zm-80-60h80v20H303a142.34,142.34,0,0,0,4.88-20H412Zm-70-20H309.91c0-1.66.09-3.33.09-5a154.88,154.88,0,0,0-48-112.12l19.19-33.24A73,73,0,0,0,282,145h60ZM492,125H272V105H492Z" transform="translate(0 -5)"/>
    <path class="cls-1" d="M251,180.09A33.14,33.14,0,0,0,217.91,147H92.09a33.1,33.1,0,0,0-28.66,49.64l22.3,38.61a10,10,0,0,0,12.84,4.08,135.29,135.29,0,0,1,112.86,0,10,10,0,0,0,12.85-4.08l22.29-38.61A33.12,33.12,0,0,0,251,180.09Zm-21.75,6.55-17.87,30.94a155.51,155.51,0,0,0-112.76,0L80.75,186.64A13.1,13.1,0,0,1,92.09,167H217.91a13.1,13.1,0,0,1,11.34,19.64Z" transform="translate(0 -5)"/>
  </g>
</svg>
