<svg id="Capa_1" data-name="Capa 1" xmlns="http://www.w3.org/2000/svg" viewBox="0 0 512 439.59">
  <defs>
    <style>
      .cls-1 {
        fill: #fff;
      }
    </style>
  </defs>
  <title>kids</title>
  <path class="cls-1" d="M188.5,63.79a52.5,52.5,0,1,0,52.5,52.5A52.56,52.56,0,0,0,188.5,63.79Zm0,90a37.5,37.5,0,1,1,37.5-37.5A37.54,37.54,0,0,1,188.5,153.79Z" transform="translate(0 -36.2)"/>
  <path class="cls-1" d="M286.87,404.18,226,383.89V323a52.31,52.31,0,0,0,15-36.69v-75a27.54,27.54,0,0,0-27.5-27.5h-50a27.54,27.54,0,0,0-27.5,27.5v27A77.08,77.08,0,0,1,88.6,216,7.5,7.5,0,0,0,78,226.6a92.62,92.62,0,0,0,130.81,0A7.5,7.5,0,0,0,198.2,216,77.17,77.17,0,0,1,151,238.28v-27a12.52,12.52,0,0,1,12.5-12.5h50a12.52,12.52,0,0,1,12.5,12.5v67.5H151v-2.65a7.5,7.5,0,0,0-15,0v10.15A52.35,52.35,0,0,0,151,323v129.9l-24.87,8.29a7.5,7.5,0,0,0,2.37,14.62,7.59,7.59,0,0,0,2.37-.39l30-10a7.51,7.51,0,0,0,5.13-7.12V333.72a52.46,52.46,0,0,0,45,0v55.57a7.51,7.51,0,0,0,5.13,7.12L277,416.7v24.59a7.5,7.5,0,0,0,15,0v-30A7.51,7.51,0,0,0,286.87,404.18ZM188.5,323.79a37.55,37.55,0,0,1-36.74-30h73.49A37.57,37.57,0,0,1,188.5,323.79Z" transform="translate(0 -36.2)"/>
  <path class="cls-1" d="M52.5,370.79a52.5,52.5,0,1,0,52.5,52.5A52.56,52.56,0,0,0,52.5,370.79Zm0,90A37.5,37.5,0,1,1,90,423.29,37.54,37.54,0,0,1,52.5,460.79Z" transform="translate(0 -36.2)"/>
  <path class="cls-1" d="M462.87,41.46a27.27,27.27,0,0,0-16.15-5.25A27.46,27.46,0,0,0,419.25,64.9a52.61,52.61,0,0,0-21.5,0A27.49,27.49,0,1,0,363,90.2a52.5,52.5,0,1,0,91,0,27.47,27.47,0,0,0,8.85-48.73ZM360.18,71.06A12.51,12.51,0,0,1,363,53.6a12.33,12.33,0,0,1,7.33-2.39,12.5,12.5,0,0,1,7.36,22.61,12.5,12.5,0,0,1-17.46-2.76Zm48.32,82.73a37.5,37.5,0,1,1,37.5-37.5A37.54,37.54,0,0,1,408.5,153.79Zm48.32-82.73a12.58,12.58,0,0,1-10.13,5.15,12.51,12.51,0,0,1-10.1-19.85,12.56,12.56,0,0,1,10.13-5.15,12.33,12.33,0,0,1,7.33,2.39A12.51,12.51,0,0,1,456.82,71.06Z" transform="translate(0 -36.2)"/>
  <path class="cls-1" d="M506.87,404.18,446,383.89v-45.1h22.5a7.5,7.5,0,0,0,7.5-7.5V326a67.45,67.45,0,0,0-15-42.41V211.29a27.54,27.54,0,0,0-27.5-27.5h-50a27.54,27.54,0,0,0-27.5,27.5v26.89A77.09,77.09,0,0,1,309.6,216,7.5,7.5,0,0,0,299,226.6a92.1,92.1,0,0,0,57,26.66v30.29A67.45,67.45,0,0,0,341,326v5.33a7.5,7.5,0,0,0,7.5,7.5H371v114.1l-24.87,8.29a7.5,7.5,0,0,0,4.74,14.23l30-10a7.51,7.51,0,0,0,5.13-7.12V338.79h45v50.5a7.5,7.5,0,0,0,5.13,7.12L497,416.7v24.59a7.5,7.5,0,0,0,15,0v-30A7.51,7.51,0,0,0,506.87,404.18ZM371,253.38a92.07,92.07,0,0,0,58.8-26.78A7.5,7.5,0,0,0,419.2,216,77.15,77.15,0,0,1,371,238.36V211.29a12.52,12.52,0,0,1,12.5-12.5h50a12.52,12.52,0,0,1,12.5,12.5v67.5H371V253.38Zm-15,70.41a52.45,52.45,0,0,1,11-30H450a52.44,52.44,0,0,1,11,30Z" transform="translate(0 -36.2)"/>
</svg>
