<svg id="Calque_1" data-name="Calque 1" xmlns="http://www.w3.org/2000/svg" viewBox="0 0 512 511.95">
  <defs>
    <style>
      .cls-1 {
        fill: #fff;
      }
    </style>
  </defs>
  <title>leg</title>
  <path class="cls-1" d="M82.66,147a4.87,4.87,0,0,1-.54,0l-5.05-.38a7.5,7.5,0,1,1,1.19-15l4.93.37a7.5,7.5,0,0,1-.53,15Z" transform="translate(0 0)"/>
  <path class="cls-1" d="M122.45,148.76l-5-.13a7.5,7.5,0,0,1,.42-15l5,.12a7.5,7.5,0,0,1-.16,15Z" transform="translate(0 0)"/>
  <path class="cls-1" d="M162.73,148.9l-5,.07h-.08a7.51,7.51,0,0,1-.07-15l5-.06a7.5,7.5,0,0,1,.22,15Z" transform="translate(0 0)"/>
  <path class="cls-1" d="M202.23,132.6a7.5,7.5,0,1,1,.77,15c-1.67.08-3.35.17-5,.24h-.35a7.5,7.5,0,0,1-.34-15Z" transform="translate(0 0)"/>
  <path class="cls-1" d="M42.93,142.42a7.37,7.37,0,0,1-1.32-.12c-1.78-.31-3.5-.64-5.11-1a7.5,7.5,0,0,1,3-14.7c1.48.31,3.06.61,4.71.9a7.5,7.5,0,0,1-1.3,14.89Z" transform="translate(0 0)"/>
  <path class="cls-1" d="M281,124.7a7.5,7.5,0,1,1,2.48,14.79c-1.65.28-3.33.55-5,.81a7.68,7.68,0,0,1-1.17.09,7.5,7.5,0,0,1-1.14-14.91Z" transform="translate(0 0)"/>
  <path class="cls-1" d="M241.8,129.72a7.5,7.5,0,1,1,1.44,14.93l-5,.46a5,5,0,0,1-.67,0,7.51,7.51,0,0,1-.67-15Z" transform="translate(0 0)"/>
  <path class="cls-1" d="M194,235.84a11.38,11.38,0,0,0,8,19.41h15v39.18a7.5,7.5,0,0,0,15,0V255.25h15a11.38,11.38,0,0,0,8-19.41l-22.53-22.53a11.37,11.37,0,0,0-16.08,0Zm16.8,4.41,13.76-13.76,13.77,13.76Z" transform="translate(0 0)"/>
  <path class="cls-1" d="M106.12,246.4a11.38,11.38,0,0,0,8,19.41h15V305a7.5,7.5,0,0,0,15,0V265.81h15a11.38,11.38,0,0,0,8-19.41l-22.53-22.52a11.38,11.38,0,0,0-16.08,0Zm16.8,4.41,13.76-13.76,13.77,13.76Z" transform="translate(0 0)"/>
  <path class="cls-1" d="M18.2,246.4a11.37,11.37,0,0,0,8,19.41h15V305a7.5,7.5,0,0,0,15,0V265.81h15a11.37,11.37,0,0,0,8-19.41L56.81,223.88a11.38,11.38,0,0,0-16.08,0ZM35,250.81l13.76-13.76,13.76,13.76Z" transform="translate(0 0)"/>
  <path class="cls-1" d="M19,0h.13C58.3.27,99.91,1.94,142.78,5a7.5,7.5,0,0,1-1.05,15C99.17,16.93,57.89,15.27,19,15h0a4,4,0,0,0-4,4V176.47a4,4,0,0,0,3.84,4c99.5,3.55,223.28-2.27,272.31-29.28,9.63-5.65,22.77-14.12,22.9-14.2a7.49,7.49,0,1,1,8.13,12.59c-.48.32-10.81,7-20.05,12.54-.61,12.91-2.26,55-.18,92.21a7.5,7.5,0,0,1-7.07,7.91h-.43a7.5,7.5,0,0,1-7.48-7.08c-1.77-31.79-.88-67-.19-85.27-71.34,30-221.93,27.23-268.48,25.56a18.9,18.9,0,0,1-18.3-19V19A19,19,0,0,1,19,0Z" transform="translate(0 0)"/>
  <path class="cls-1" d="M296.83,282.31a7.5,7.5,0,0,1,8.51,6.32c6.09,41.17,20.3,97.64,20.45,98.2q.07.3.12.6c.16,1,3.83,23.77-4.78,43.07-3.09,6.94-2.22,20,4.6,28.92,5.1,6.68,12.1,9.39,20.82,8.06,37.11-5.68,72.83,3.13,98,24.17,11.35,9.5,28.69,4.78,40.84-4.12,9.41-6.9,12.13-13.53,11.56-14.9-1.52-1.92-4.23-2.45-10.54-3.29-48.28-6.37-38-34.24-86.4-56.19-19.26-8.73-19.11-27.43-20.41-39.62a7.89,7.89,0,0,1,0-1.09c.05-1.29,4.84-131.1-1.59-244.85a124,124,0,0,1,.47-19.63c2-19.56-1.16-54.13-45.06-66.37-5.39-.9-69.37-11.46-156.76-19a7.5,7.5,0,0,1,1.28-14.95c91.57,7.85,157.71,19.07,158.37,19.18.24,0,.48.1.72.16,24.57,6.75,41.52,20.3,50.35,40.29,6.95,15.74,7.11,31.62,6,42.18a109.4,109.4,0,0,0-.41,17.25c6.25,110.7,1.95,236.4,1.62,245.72,1.33,13,1.27,22.32,11.64,27,52.87,24,40.35,49.46,82.17,55,7.33,1,14.91,2,20.35,8.87,6.35,8.07,3.34,19.84-7.86,30.72-17.25,16.75-46.21,25.6-65.95,9.1-21.85-18.29-53.23-25.89-86.09-20.85-14.14,2.16-26.58-2.74-35-13.79-9.53-12.5-12.21-31.06-6.37-44.14,6.32-14.16,4-31.93,3.72-34.23-1.23-4.9-14.71-59.13-20.65-99.33A7.49,7.49,0,0,1,296.83,282.31Z" transform="translate(0 0)"/>
</svg>
