<?xml version="1.0" encoding="utf-8"?>
<!-- Generator: Adobe Illustrator 23.0.6, SVG Export Plug-In . SVG Version: 6.00 Build 0)  -->
<svg version="1.1" id="Calque_1" xmlns="http://www.w3.org/2000/svg" xmlns:xlink="http://www.w3.org/1999/xlink" x="0px" y="0px"
	 viewBox="0 0 512 512" style="enable-background:new 0 0 512 512;" xml:space="preserve">
<style type="text/css">
	.st0{fill:#FFFFFF;}
</style>
<title>leg</title>
<path class="st0" d="M82.7,147c-0.2,0-0.4,0-0.5,0l-5.1-0.4c-4.1-0.3-7.2-4-6.9-8.1s4-7.2,8.1-6.9l4.9,0.4c4.1,0.1,7.4,3.6,7.2,7.8
	S86.8,147.1,82.7,147L82.7,147z"/>
<path class="st0" d="M122.4,148.8l-5-0.1c-4.1-0.1-7.4-3.6-7.3-7.7c0.1-4.1,3.6-7.4,7.7-7.3l5,0.1c4.1,0,7.5,3.4,7.4,7.6
	s-3.4,7.5-7.6,7.4l0,0H122.4z"/>
<path class="st0" d="M162.7,148.9l-5,0.1h-0.1c-4.1-0.2-7.3-3.7-7.2-7.9c0.2-3.8,3.2-6.9,7.1-7.1l5-0.1c4.1-0.1,7.5,3.2,7.6,7.4
	S166.9,148.8,162.7,148.9L162.7,148.9L162.7,148.9z"/>
<path class="st0" d="M202.2,132.6c4.1-0.2,7.7,3,7.9,7.1s-3,7.7-7.1,7.9c-1.7,0.1-3.4,0.2-5,0.2h-0.4c-4.1,0.1-7.6-3.2-7.7-7.3
	s3.2-7.6,7.3-7.7l0,0L202.2,132.6z"/>
<path class="st0" d="M42.9,142.4c-0.4,0-0.9,0-1.3-0.1c-1.8-0.3-3.5-0.6-5.1-1c-4.1-0.8-6.7-4.8-5.8-8.8c0.8-4.1,4.8-6.7,8.8-5.9
	c1.5,0.3,3.1,0.6,4.7,0.9c4.1,0.7,6.8,4.6,6.1,8.7C49.7,139.8,46.6,142.4,42.9,142.4L42.9,142.4z"/>
<path class="st0" d="M281,124.7c4.1-0.8,8,1.9,8.8,6c0.8,4.1-1.9,8-6,8.8c-0.1,0-0.2,0-0.3,0.1c-1.6,0.3-3.3,0.6-5,0.8
	c-0.4,0.1-0.8,0.1-1.2,0.1c-4.1,0-7.5-3.4-7.5-7.5c0-3.7,2.7-6.8,6.3-7.4L281,124.7z"/>
<path class="st0" d="M241.8,129.7c4.1-0.4,7.8,2.5,8.3,6.7c0.4,4.1-2.5,7.8-6.7,8.3h-0.1l-5,0.5c-0.2,0-0.4,0-0.7,0
	c-4.1,0.1-7.6-3.2-7.6-7.4c-0.1-4,3-7.4,7-7.6L241.8,129.7z"/>
<path class="st0" d="M194,235.8c-4.4,4.5-4.4,11.7,0,16.1c2.1,2.1,5,3.3,8,3.3h15v39.2c0,4.1,3.4,7.5,7.5,7.5s7.5-3.4,7.5-7.5v-39.2
	h15c6.3,0,11.4-5.2,11.3-11.4c0-3-1.2-5.8-3.3-8l-22.5-22.5c-4.4-4.4-11.6-4.4-16.1,0l0,0L194,235.8z M210.8,240.3l13.8-13.8
	l13.8,13.8H210.8z"/>
<path class="st0" d="M106.1,246.4c-4.4,4.5-4.4,11.7,0,16.1c2.1,2.1,5,3.3,8,3.3h15V305c0,4.1,3.4,7.5,7.5,7.5s7.5-3.4,7.5-7.5
	v-39.2h15c6.3,0,11.4-5.2,11.3-11.4c0-3-1.2-5.8-3.3-8l-22.5-22.5c-4.4-4.4-11.6-4.4-16.1,0L106.1,246.4z M122.9,250.8l13.8-13.8
	l13.8,13.8H122.9z"/>
<path class="st0" d="M18.2,246.4c-4.4,4.4-4.4,11.6,0,16.1c2.1,2.1,5,3.3,8,3.3h15V305c0,4.1,3.4,7.5,7.5,7.5s7.5-3.4,7.5-7.5v-39.2
	h15c6.3,0,11.4-5.1,11.3-11.4c0-3-1.2-5.9-3.3-8l-22.4-22.5c-4.4-4.4-11.6-4.4-16.1,0L18.2,246.4z M35,250.8L48.8,237l13.8,13.8H35z
	"/>
<path class="st0" d="M19,0h0.1c39.2,0.3,80.8,1.9,123.7,5c4.1,0.3,7.3,3.9,7,8s-3.9,7.3-8,7C99.2,16.9,57.9,15.3,19,15l0,0
	c-2.2,0-4,1.8-4,4v157.5c0,2.1,1.7,3.9,3.8,4c99.5,3.6,223.3-2.3,272.3-29.3c9.6-5.6,22.8-14.1,22.9-14.2c3.5-2.2,8.1-1.2,10.4,2.2
	c2.2,3.5,1.2,8.1-2.2,10.4c-0.5,0.3-10.8,7-20,12.5c-0.6,12.9-2.3,55-0.2,92.2c0.2,4.1-2.9,7.7-7.1,7.9l0,0h-0.4
	c-4,0-7.3-3.1-7.5-7.1c-1.8-31.8-0.9-67-0.2-85.3c-71.3,30-221.9,27.2-268.5,25.6c-10.2-0.3-18.4-8.8-18.3-19V19C0,8.5,8.5,0,19,0
	L19,0z"/>
<path class="st0" d="M296.8,282.3c4.1-0.6,7.9,2.2,8.5,6.3c6.1,41.2,20.3,97.6,20.5,98.2c0,0.2,0.1,0.4,0.1,0.6
	c0.2,1,3.8,23.8-4.8,43.1c-3.1,6.9-2.2,20,4.6,28.9c5.1,6.7,12.1,9.4,20.8,8.1c37.1-5.7,72.8,3.1,98,24.2
	c11.4,9.5,28.7,4.8,40.8-4.1c9.4-6.9,12.1-13.5,11.6-14.9c-1.5-1.9-4.2-2.5-10.5-3.3c-48.3-6.4-38-34.2-86.4-56.2
	c-19.3-8.7-19.1-27.4-20.4-39.6c0-0.4,0-0.7,0-1.1c0-1.3,4.8-131.1-1.6-244.9c-0.4-6.5-0.2-13.1,0.5-19.6c2-19.6-1.2-54.1-45.1-66.4
	c-5.4-0.9-69.4-11.5-156.8-19c-4.1-0.4-7.2-4-6.8-8.1s4-7.2,8.1-6.8l0,0c91.6,7.8,157.7,19.1,158.4,19.2c0.2,0,0.5,0.1,0.7,0.2
	c24.6,6.8,41.5,20.3,50.4,40.3c7,15.7,7.1,31.6,6,42.2c-0.6,5.7-0.7,11.5-0.4,17.3c6.3,110.7,2,236.4,1.6,245.7
	c1.3,13,1.3,22.3,11.6,27c52.9,24,40.4,49.5,82.2,55c7.3,1,14.9,2,20.4,8.9c6.4,8.1,3.3,19.8-7.9,30.7
	c-17.3,16.8-46.2,25.6-65.9,9.1c-21.9-18.3-53.2-25.9-86.1-20.9c-14.1,2.2-26.6-2.7-35-13.8c-9.5-12.5-12.2-31.1-6.4-44.1
	c6.3-14.2,4-31.9,3.7-34.2c-1.2-4.9-14.7-59.1-20.6-99.3C290,286.7,292.8,282.9,296.8,282.3z"/>
</svg>
