<svg xmlns="http://www.w3.org/2000/svg" xmlns:xlink="http://www.w3.org/1999/xlink" viewBox="0 0 429.3 260.37"><defs><style>.cls-1{fill:none;}.cls-2{fill:#c18e1a;}.cls-3{fill:#586d00;}.cls-4{fill:#3e7c46;}.cls-5{fill:url(#New_Pattern_8);}</style><pattern id="New_Pattern_8" data-name="New Pattern 8" width="500" height="500" patternTransform="translate(310.89 238.81) scale(0.52)" patternUnits="userSpaceOnUse" viewBox="0 0 500 500"><rect class="cls-1" width="500" height="500"/><path class="cls-2" d="M445.91,487.89c-18.9-2-36.56,9.58-48.89,22.86S375,543,378.7,561.47a1.05,1.05,0,0,0,.84.88c-5.21,9.89-10,20-14.71,29.82-.7,1.45,1.46,2.72,2.16,1.27,4.84-10.13,9.76-20.54,15.15-30.73,36-.56,57.86-42.69,65-73.24A1.27,1.27,0,0,0,445.91,487.89ZM383.5,560.17q1.11-2.07,2.25-4.11a1.2,1.2,0,0,0,.79-.18c5.9-3.55,12.49-5.66,18.66-8.66,1.45-.71.18-2.86-1.26-2.16-5.27,2.57-10.85,4.49-16,7.21,2.06-3.58,4.21-7.11,6.46-10.56a209,209,0,0,1,20.55-7,1.25,1.25,0,0,0-.67-2.41c-5.94,1.65-11.75,3.66-17.5,5.85q3.11-4.56,6.47-8.91c4.74-2.59,10-4,15-5.87,1.5-.55.85-3-.67-2.41-3.58,1.32-7.24,2.44-10.78,3.87a117.66,117.66,0,0,1,24.41-22.25c1.34-.89.09-3.06-1.26-2.16a119.84,119.84,0,0,0-24.13,21.75c.72-2.76,1.29-5.56,2-8.34.38-1.56-2-2.23-2.41-.66-1.17,4.78-2,9.63-3.83,14.22-3.11,4-6,8.09-8.8,12.33l-.05,0c.62-3.29,1.31-6.58,1.76-9.91.21-1.57-2.2-2.25-2.41-.66-.7,5.15-2,10.19-2.67,15.33a1.28,1.28,0,0,0,0,.48c-3,4.83-5.78,9.78-8.47,14.79-3-17.37,6.6-34.7,17.87-47.22s28-23.39,45.56-22.26C437.26,519.16,416.91,558.58,383.5,560.17Z"/><path class="cls-3" d="M235,490.67c-15.33,5.89-36.42,4.46-46.26,20a18.67,18.67,0,0,0-1.24,17.74c2.37,4.86,7.43,6.05,12.24,5.28a85.28,85.28,0,0,0-4.86,15.84c-.29,1.41,1.87,2,2.16.6a83.13,83.13,0,0,1,5.22-16.61,1.14,1.14,0,0,0,.29.29c26.56,18.7,27-27.58,33.71-41.52C236.64,491.52,236,490.28,235,490.67ZM219.39,534c-4.81,4.38-11.26,1.09-15.71-2.05a1,1,0,0,0-.42-.18.81.81,0,0,0-.07-.22,68.88,68.88,0,0,1,18.59-23.77c1.11-.92-.48-2.49-1.58-1.58a70.61,70.61,0,0,0-19.36,25.05c-6.14,1.55-11.24-.83-12.61-7.55s2.56-13.29,7.52-17.5c10.23-8.67,25.15-8.48,37.51-12.51-3.35,8.43-4,18.09-6.64,26.72C225.16,525.22,223.24,530.46,219.39,534Z"/><path class="cls-4" d="M316.44,466.13c-8.32,1.74-15.27,7.29-21.11,13.2-4.42,4.47-8.83,9.91-11.27,15.87-.73-1.14-1.54-2.22-2.21-3.49a1.26,1.26,0,0,0-2-.26c-4.17,3.79-5.08,9.91-5.3,15.51-.14-.17-.29-.33-.43-.51a1.25,1.25,0,0,0-1.77,0c-4.21,5.31-3.93,11.8-4.6,18.17-.55-.37-1.11-.75-1.63-1.17a1.27,1.27,0,0,0-2.09.55c-1.88,7.46.56,16.76,5.32,22.72a1.66,1.66,0,0,0,.18.19,2.93,2.93,0,0,0,.05.29c0,.1,0,.2-.05.3-.26,1.58,2.15,2.26,2.41.67,0,0,0-.06,0-.1,7.94-.27,16.58-5.08,22.16-10.35a1.26,1.26,0,0,0-.55-2.09,25.18,25.18,0,0,0-3.89-.76c6.54-3.52,12.9-8.85,15.26-15.7a1.25,1.25,0,0,0-1.21-1.58c-1.25.12-2.48.07-3.7.08,4.71-4.67,9.83-8.41,12.41-15,.36-.93-.69-1.76-1.54-1.54a44.43,44.43,0,0,1-5.64.89c7.18-9.87,9.13-22.95,12.68-34.35A1.27,1.27,0,0,0,316.44,466.13Zm-20.55,52.32a1.26,1.26,0,0,0,1.22,2.09,16,16,0,0,1,4.78-.39c-3.18,6.72-10.89,11.79-17.45,14.48a1.26,1.26,0,0,0,.33,2.46,34.9,34.9,0,0,1,5.82.44c-4.95,4.08-11.76,7.6-18.1,8,3.92-19.19,16.17-36.77,26.36-53.07.86-1.37-1.3-2.63-2.15-1.26-10.1,16.15-22.21,33.57-26.41,52.55a26.16,26.16,0,0,1-4.15-17.29c.59.4,1.19.8,1.75,1.25s1.94.49,2.09-.55c.84-5.89.1-12.68,3.4-17.85A7.78,7.78,0,0,1,274.7,511a1.25,1.25,0,0,0,2.32-.63c0-5.15.13-11.72,3.54-15.94a20.23,20.23,0,0,1,2.51,4.27,1.26,1.26,0,0,0,2.41,0c2-6.73,6.88-12.59,11.62-17.57,4.9-5.16,10.93-9.93,17.84-12-3.33,11.53-5.41,24.72-13.55,33.85a1.26,1.26,0,0,0,1.22,2.09,62,62,0,0,1,6.51-1C306,510,300.31,513.41,295.89,518.45Z"/><path class="cls-4" d="M104.44,454.13c-8.32,1.74-15.27,7.29-21.11,13.2-4.42,4.47-8.83,9.91-11.27,15.87-.73-1.14-1.54-2.22-2.21-3.49a1.26,1.26,0,0,0-2-.26c-4.17,3.79-5.08,9.91-5.3,15.51-.14-.17-.29-.33-.43-.51a1.25,1.25,0,0,0-1.77,0c-4.21,5.31-3.93,11.8-4.6,18.17-.55-.37-1.11-.75-1.63-1.17a1.27,1.27,0,0,0-2.09.55c-1.88,7.46.56,16.76,5.32,22.72a1.66,1.66,0,0,0,.18.19,2.93,2.93,0,0,0,0,.29c0,.1,0,.2,0,.3-.26,1.58,2.15,2.26,2.41.67,0,0,0-.06,0-.1,7.94-.27,16.58-5.08,22.16-10.35a1.26,1.26,0,0,0-.55-2.09,25.18,25.18,0,0,0-3.89-.76c6.54-3.52,12.9-8.85,15.26-15.7a1.25,1.25,0,0,0-1.21-1.58c-1.25.12-2.48.07-3.7.08,4.71-4.67,9.83-8.41,12.41-15,.36-.93-.69-1.76-1.54-1.54a44.43,44.43,0,0,1-5.64.89c7.18-9.87,9.13-22.95,12.68-34.35A1.27,1.27,0,0,0,104.44,454.13ZM83.89,506.45a1.26,1.26,0,0,0,1.22,2.09,16,16,0,0,1,4.78-.39c-3.18,6.72-10.89,11.79-17.45,14.48a1.26,1.26,0,0,0,.33,2.46,34.9,34.9,0,0,1,5.82.44c-5,4.08-11.76,7.6-18.1,8,3.92-19.19,16.17-36.77,26.36-53.07.86-1.37-1.3-2.63-2.15-1.26-10.1,16.15-22.21,33.57-26.41,52.55a26.16,26.16,0,0,1-4.15-17.29c.59.4,1.19.8,1.75,1.25s1.94.49,2.09-.55c.84-5.89.1-12.68,3.4-17.85A7.78,7.78,0,0,1,62.7,499a1.25,1.25,0,0,0,2.32-.63c0-5.15.13-11.72,3.54-15.94a20.23,20.23,0,0,1,2.51,4.27,1.26,1.26,0,0,0,2.41,0c2-6.73,6.88-12.59,11.62-17.57,4.9-5.16,10.93-9.93,17.84-12-3.33,11.53-5.41,24.72-13.55,33.85A1.26,1.26,0,0,0,90.61,493a62,62,0,0,1,6.51-1C94,498,88.31,501.41,83.89,506.45Z"/><path class="cls-3" d="M141.14,469.45a1.27,1.27,0,0,0-1.88-1.08c-7.09,3.33-13.3,7.79-17.39,14.58-3.85,6.39-4.67,14.2-4.73,21.5a1.15,1.15,0,0,0,.32.84c-1.3,2.13-2.55,4.29-3.65,6.53-.71,1.44,1.45,2.71,2.16,1.26,1.38-2.81,3-5.51,4.64-8.18C135.53,500.42,142.45,484.16,141.14,469.45Zm-18.35,32c3.16-5,6.28-10,8.31-15.64.54-1.52-1.87-2.17-2.41-.67-2.15,6-5.6,11.24-9,16.56.27-6.09,1.33-12,4.32-17.47,3.24-5.89,8.84-9.85,14.73-12.82C139.22,483.49,134,496.4,122.79,501.43Z"/><path class="cls-4" d="M539.56,130.25c-8.32,1.73-15.27,7.29-21.12,13.2-4.42,4.46-8.82,9.9-11.27,15.87-.73-1.14-1.54-2.23-2.2-3.5a1.26,1.26,0,0,0-2-.25c-4.17,3.79-5.09,9.91-5.3,15.5-.15-.16-.3-.32-.44-.5a1.23,1.23,0,0,0-1.76,0c-4.21,5.3-3.93,11.8-4.6,18.17-.55-.37-1.11-.75-1.64-1.17a1.26,1.26,0,0,0-2.08.55c-1.89,7.46.55,16.75,5.32,22.72l.18.19a1.37,1.37,0,0,0,.05.28c0,.1,0,.21-.05.31-.26,1.58,2.15,2.25,2.41.67,0,0,0-.07,0-.1,7.95-.27,16.58-5.08,22.16-10.35a1.26,1.26,0,0,0-.55-2.09,26.22,26.22,0,0,0-3.89-.77c6.55-3.51,12.91-8.85,15.27-15.69a1.26,1.26,0,0,0-1.21-1.59c-1.25.13-2.48.08-3.7.09,4.71-4.68,9.82-8.42,12.41-15,.36-.93-.7-1.76-1.54-1.54a46.6,46.6,0,0,1-5.64.89c7.17-9.87,9.13-22.95,12.68-34.35A1.26,1.26,0,0,0,539.56,130.25ZM519,182.57a1.26,1.26,0,0,0,1.21,2.09,15.4,15.4,0,0,1,4.78-.39c-3.17,6.72-10.89,11.79-17.44,14.48a1.25,1.25,0,0,0,.33,2.45,36.18,36.18,0,0,1,5.82.44c-5,4.09-11.77,7.6-18.11,8,3.93-19.2,16.18-36.78,26.37-53.08.86-1.37-1.31-2.62-2.16-1.26-10.1,16.15-22.21,33.58-26.4,52.56a26.11,26.11,0,0,1-4.15-17.29c.59.4,1.18.8,1.75,1.25s1.94.48,2.09-.55c.84-5.89.1-12.68,3.4-17.86a7.68,7.68,0,0,1,1.31,1.65,1.26,1.26,0,0,0,2.33-.63c0-5.15.13-11.71,3.54-15.93a20,20,0,0,1,2.51,4.27,1.26,1.26,0,0,0,2.41,0c2-6.74,6.87-12.59,11.61-17.58,4.9-5.15,10.94-9.93,17.85-12-3.34,11.53-5.41,24.71-13.55,33.85a1.26,1.26,0,0,0,1.21,2.09,59.71,59.71,0,0,1,6.52-1C529.09,174.07,523.43,177.52,519,182.57Z"/><path class="cls-4" d="M531.4,258c-8.32,1.74-15.26,7.29-21.11,13.2-4.42,4.47-8.83,9.91-11.27,15.88-.73-1.14-1.54-2.23-2.21-3.5a1.25,1.25,0,0,0-2-.25c-4.17,3.78-5.08,9.9-5.3,15.5-.14-.17-.29-.32-.43-.5a1.24,1.24,0,0,0-1.77,0c-4.21,5.3-3.93,11.79-4.59,18.17-.56-.38-1.11-.76-1.64-1.17a1.26,1.26,0,0,0-2.09.55c-1.88,7.45.56,16.75,5.32,22.71a.85.85,0,0,0,.19.19,1.45,1.45,0,0,0,0,.29c0,.1,0,.2-.05.31-.26,1.57,2.15,2.25,2.41.66,0,0,0-.06,0-.09,7.94-.27,16.58-5.09,22.16-10.36a1.26,1.26,0,0,0-.55-2.09,27.51,27.51,0,0,0-3.89-.76c6.55-3.52,12.9-8.85,15.26-15.7a1.25,1.25,0,0,0-1.2-1.58c-1.26.12-2.49.07-3.71.08,4.72-4.67,9.83-8.41,12.41-15,.36-.92-.69-1.75-1.54-1.54a44.43,44.43,0,0,1-5.64.89c7.18-9.86,9.13-22.95,12.68-34.35A1.27,1.27,0,0,0,531.4,258Zm-20.55,52.33a1.25,1.25,0,0,0,1.22,2.08,15.68,15.68,0,0,1,4.78-.38c-3.18,6.71-10.89,11.78-17.45,14.47a1.26,1.26,0,0,0,.34,2.46,34.87,34.87,0,0,1,5.81.44c-4.95,4.09-11.76,7.6-18.1,8,3.92-19.2,16.18-36.78,26.36-53.08.86-1.37-1.3-2.63-2.15-1.26-10.1,16.15-22.21,33.57-26.41,52.56a26.2,26.2,0,0,1-4.15-17.3c.59.4,1.19.81,1.75,1.25s1.94.49,2.09-.55c.84-5.89.1-12.67,3.4-17.85a7.78,7.78,0,0,1,1.32,1.65,1.26,1.26,0,0,0,2.33-.63c0-5.15.12-11.71,3.53-15.93a19.92,19.92,0,0,1,2.51,4.26,1.26,1.26,0,0,0,2.41,0c2-6.73,6.88-12.59,11.62-17.57C517,267.81,523,263,529.9,261c-3.33,11.53-5.41,24.72-13.55,33.86a1.25,1.25,0,0,0,1.22,2.08,62,62,0,0,1,6.51-1C520.94,301.82,515.27,305.28,510.85,310.33Z"/><path class="cls-4" d="M517.9,409.5c-8.31,1.73-15.26,7.29-21.11,13.19-4.42,4.47-8.83,9.91-11.27,15.88-.73-1.14-1.54-2.23-2.2-3.5a1.27,1.27,0,0,0-2-.25c-4.17,3.79-5.08,9.91-5.3,15.5-.14-.16-.29-.32-.43-.5a1.24,1.24,0,0,0-1.77,0c-4.21,5.3-3.93,11.8-4.59,18.17-.56-.38-1.11-.75-1.64-1.17a1.26,1.26,0,0,0-2.09.55c-1.88,7.46.56,16.75,5.32,22.72a1.07,1.07,0,0,0,.19.18.93.93,0,0,0,0,.29l-.06.31c-.26,1.58,2.15,2.25,2.41.67,0,0,0-.07,0-.1,7.94-.27,16.58-5.09,22.16-10.35a1.26,1.26,0,0,0-.55-2.09,26.22,26.22,0,0,0-3.89-.77c6.55-3.51,12.91-8.85,15.26-15.69a1.26,1.26,0,0,0-1.2-1.59c-1.26.13-2.49.07-3.7.09,4.71-4.68,9.82-8.42,12.4-15,.36-.93-.69-1.76-1.54-1.54a46.44,46.44,0,0,1-5.63.89c7.17-9.87,9.12-23,12.67-34.35A1.26,1.26,0,0,0,517.9,409.5Zm-20.55,52.32a1.26,1.26,0,0,0,1.22,2.09,15.38,15.38,0,0,1,4.78-.39c-3.17,6.72-10.89,11.79-17.45,14.48a1.25,1.25,0,0,0,.34,2.45,36.18,36.18,0,0,1,5.82.44c-4.95,4.09-11.77,7.6-18.11,8,3.93-19.2,16.18-36.78,26.37-53.08.85-1.37-1.31-2.62-2.16-1.26-10.1,16.15-22.21,33.57-26.41,52.56a26.19,26.19,0,0,1-4.15-17.29c.6.4,1.19.8,1.75,1.25s1.94.48,2.09-.55c.84-5.89.1-12.68,3.4-17.86a8,8,0,0,1,1.32,1.65,1.26,1.26,0,0,0,2.33-.63c0-5.15.12-11.71,3.53-15.93a19.74,19.74,0,0,1,2.51,4.27,1.26,1.26,0,0,0,2.41,0c2-6.74,6.88-12.59,11.62-17.58,4.9-5.15,10.93-9.93,17.84-12-3.33,11.53-5.41,24.71-13.55,33.85a1.26,1.26,0,0,0,1.22,2.09,59.34,59.34,0,0,1,6.52-1C507.44,453.32,501.77,456.77,497.35,461.82Z"/><path class="cls-3" d="M511.14,355.45a1.27,1.27,0,0,0-1.88-1.08c-7.09,3.33-13.3,7.79-17.39,14.58-3.85,6.39-4.67,14.2-4.73,21.5a1.15,1.15,0,0,0,.32.84c-1.3,2.13-2.55,4.29-3.65,6.53-.71,1.44,1.45,2.71,2.16,1.26,1.38-2.81,3-5.51,4.64-8.18C505.53,386.42,512.45,370.16,511.14,355.45Zm-18.35,32c3.16-5,6.28-10,8.31-15.64.54-1.52-1.87-2.17-2.41-.67-2.15,6-5.6,11.24-9,16.56.27-6.09,1.33-12,4.32-17.47,3.24-5.89,8.84-9.85,14.73-12.82C509.22,369.49,504,382.4,492.79,387.43Z"/><path class="cls-2" d="M283.39,212.7c-18.89-2-36.56,9.59-48.88,22.87s-22,32.24-18.32,50.72a1,1,0,0,0,.83.87c-5.2,9.89-10,20-14.71,29.83-.69,1.45,1.47,2.72,2.16,1.26,4.85-10.12,9.77-20.54,15.15-30.73,36-.56,57.86-42.69,65-73.23A1.29,1.29,0,0,0,283.39,212.7ZM221,285c.74-1.37,1.49-2.75,2.25-4.11a1.12,1.12,0,0,0,.79-.17c5.9-3.55,12.5-5.66,18.67-8.67,1.45-.7.18-2.86-1.26-2.16-5.27,2.57-10.85,4.49-16.05,7.21q3.1-5.37,6.46-10.56a211.7,211.7,0,0,1,20.55-7,1.25,1.25,0,0,0-.67-2.41c-5.93,1.66-11.75,3.66-17.5,5.86q3.1-4.57,6.47-8.91c4.75-2.6,10-4,15-5.87,1.5-.55.86-3-.66-2.41-3.59,1.31-7.25,2.43-10.78,3.86a117.63,117.63,0,0,1,24.41-22.24c1.33-.9.08-3.06-1.26-2.16A119.53,119.53,0,0,0,243.3,247c.71-2.75,1.29-5.56,2-8.33.39-1.57-2-2.23-2.41-.67-1.16,4.78-2,9.64-3.83,14.23-3.1,4-6,8.09-8.8,12.32l-.05,0c.62-3.3,1.31-6.58,1.76-9.91.21-1.58-2.2-2.26-2.41-.67-.69,5.15-2,10.19-2.67,15.34a1.52,1.52,0,0,0,0,.48c-3,4.83-5.77,9.78-8.46,14.79-3-17.37,6.6-34.7,17.86-47.22s28-23.39,45.57-22.27C274.75,244,254.39,283.39,221,285Z"/><path class="cls-2" d="M144.94,27.13c-18.89-2-36.56,9.58-48.88,22.87S74,82.24,77.74,100.71a1,1,0,0,0,.84.88c-5.21,9.89-10,20-14.72,29.83-.69,1.45,1.47,2.71,2.16,1.26,4.85-10.12,9.77-20.54,15.16-30.73,36-.56,57.85-42.69,65-73.24A1.28,1.28,0,0,0,144.94,27.13ZM82.53,99.41C83.28,98,84,96.66,84.78,95.3a1.17,1.17,0,0,0,.79-.17c5.9-3.55,12.5-5.66,18.67-8.67,1.45-.7.18-2.86-1.26-2.16-5.27,2.57-10.85,4.49-16,7.21Q90,86.14,93.39,81a209,209,0,0,1,20.55-7,1.25,1.25,0,0,0-.66-2.41c-5.94,1.66-11.76,3.66-17.51,5.86q3.11-4.58,6.47-8.91c4.75-2.6,10-4,15-5.87,1.5-.55.85-3-.67-2.41-3.59,1.31-7.25,2.43-10.78,3.86a117.68,117.68,0,0,1,24.41-22.25c1.33-.89.08-3-1.26-2.15a119.53,119.53,0,0,0-24.13,21.74c.71-2.76,1.29-5.56,2-8.33a1.25,1.25,0,0,0-2.41-.67c-1.16,4.78-2,9.64-3.83,14.23-3.1,4-6,8.09-8.8,12.32l0,0c.63-3.3,1.31-6.59,1.76-9.91.21-1.58-2.2-2.26-2.41-.67-.69,5.15-2,10.19-2.67,15.34a1.27,1.27,0,0,0,0,.48C85.45,89,82.65,94,80,99c-3-17.37,6.6-34.7,17.87-47.22s28-23.4,45.56-22.27C136.3,58.4,115.94,97.82,82.53,99.41Z"/><path class="cls-2" d="M445.91-12.11c-18.9-2-36.56,9.58-48.89,22.86S375,43,378.7,61.47a1.05,1.05,0,0,0,.84.88c-5.21,9.89-10,20-14.71,29.83-.7,1.44,1.46,2.71,2.16,1.26,4.84-10.13,9.76-20.54,15.15-30.73,36-.56,57.86-42.69,65-73.24A1.27,1.27,0,0,0,445.91-12.11ZM383.5,60.17q1.11-2.07,2.25-4.11a1.2,1.2,0,0,0,.79-.18c5.9-3.55,12.49-5.66,18.66-8.66,1.45-.71.18-2.86-1.26-2.16-5.27,2.57-10.85,4.49-16,7.21,2.06-3.58,4.21-7.11,6.46-10.56a209,209,0,0,1,20.55-7,1.25,1.25,0,0,0-.67-2.41c-5.94,1.65-11.75,3.66-17.5,5.85q3.11-4.56,6.47-8.91c4.74-2.59,10-4,15-5.87,1.5-.55.85-3-.67-2.41-3.58,1.32-7.24,2.44-10.78,3.87A117.66,117.66,0,0,1,431.2,2.55c1.34-.89.09-3.06-1.26-2.16a119.84,119.84,0,0,0-24.13,21.75c.72-2.76,1.29-5.56,2-8.34.38-1.56-2-2.23-2.41-.66-1.17,4.78-2,9.63-3.83,14.22-3.11,4-6,8.09-8.8,12.33l-.05,0c.62-3.29,1.31-6.58,1.76-9.91.21-1.57-2.2-2.25-2.41-.66-.7,5.15-2,10.19-2.67,15.33a1.28,1.28,0,0,0,0,.48c-3,4.83-5.78,9.78-8.47,14.79-3-17.37,6.6-34.7,17.87-47.22s28-23.39,45.56-22.26C437.26,19.16,416.91,58.58,383.5,60.17Z"/><path class="cls-2" d="M467.4,230.58c-18.89-2-36.56,9.58-48.88,22.86s-22,32.24-18.32,50.72a1,1,0,0,0,.83.87c-5.2,9.9-10,20-14.71,29.83-.69,1.45,1.47,2.72,2.16,1.26,4.85-10.12,9.77-20.53,15.15-30.72,36-.56,57.86-42.7,65-73.24A1.28,1.28,0,0,0,467.4,230.58ZM405,302.85q1.11-2.06,2.25-4.11a1.12,1.12,0,0,0,.79-.17c5.9-3.55,12.5-5.66,18.67-8.67,1.45-.7.18-2.86-1.26-2.15-5.28,2.56-10.86,4.48-16.05,7.2q3.11-5.37,6.46-10.55a206.45,206.45,0,0,1,20.55-7,1.26,1.26,0,0,0-.67-2.42c-5.93,1.66-11.75,3.67-17.5,5.86,2.07-3,4.22-6,6.47-8.91,4.75-2.6,10-4,15-5.87,1.5-.55.86-3-.66-2.41-3.59,1.32-7.25,2.43-10.78,3.87a117.4,117.4,0,0,1,24.41-22.25c1.33-.89.08-3.06-1.26-2.16a119.28,119.28,0,0,0-24.13,21.75c.71-2.76,1.29-5.56,2-8.34.39-1.56-2-2.23-2.41-.66-1.16,4.78-2,9.63-3.83,14.22-3.1,4-6,8.09-8.8,12.32l-.05,0c.62-3.3,1.31-6.58,1.76-9.91.21-1.57-2.2-2.26-2.41-.66-.69,5.14-2,10.18-2.67,15.33a1.52,1.52,0,0,0,0,.48c-3,4.83-5.77,9.78-8.46,14.79-3-17.37,6.6-34.7,17.86-47.22s28-23.39,45.57-22.26C458.75,261.84,438.4,301.27,405,302.85Z"/><path class="cls-2" d="M107.4,344.58c-18.89-2-36.56,9.58-48.88,22.86S36.47,399.68,40.2,418.16A1,1,0,0,0,41,419c-5.2,9.9-10,20-14.71,29.83-.69,1.45,1.47,2.72,2.16,1.26,4.85-10.12,9.77-20.53,15.15-30.72,36-.56,57.86-42.7,65-73.24A1.28,1.28,0,0,0,107.4,344.58ZM45,416.85q1.11-2.06,2.25-4.11a1.12,1.12,0,0,0,.79-.17c5.9-3.55,12.5-5.66,18.67-8.67,1.45-.7.18-2.86-1.26-2.15-5.28,2.56-10.86,4.48-16,7.2q3.11-5.37,6.46-10.55a206.45,206.45,0,0,1,20.55-7,1.26,1.26,0,0,0-.67-2.42c-5.93,1.66-11.75,3.67-17.5,5.86,2.07-3,4.22-6,6.47-8.91,4.75-2.6,10-4,15-5.87,1.5-.55.86-3-.66-2.41-3.59,1.32-7.25,2.43-10.78,3.87A117.4,117.4,0,0,1,92.7,359.24c1.33-.89.08-3.06-1.26-2.16a119.28,119.28,0,0,0-24.13,21.75c.71-2.76,1.29-5.56,2-8.34.39-1.56-2-2.23-2.41-.66-1.16,4.78-2,9.63-3.83,14.22-3.1,4-6,8.09-8.8,12.32l0,0c.62-3.3,1.31-6.58,1.76-9.91.21-1.57-2.2-2.26-2.41-.66-.69,5.14-2,10.18-2.67,15.33a1.52,1.52,0,0,0,0,.48c-3,4.83-5.77,9.78-8.46,14.79-3-17.37,6.6-34.7,17.86-47.22s28-23.39,45.57-22.26C98.75,375.84,78.4,415.27,45,416.85Z"/><path class="cls-2" d="M333.4,374.58c-18.89-2-36.56,9.58-48.88,22.86s-22,32.24-18.32,50.72a1,1,0,0,0,.83.87c-5.2,9.9-10,20-14.71,29.83-.69,1.45,1.47,2.72,2.16,1.26,4.85-10.12,9.77-20.53,15.15-30.72,36-.56,57.86-42.7,65-73.24A1.28,1.28,0,0,0,333.4,374.58ZM271,446.85q1.11-2.06,2.25-4.11a1.12,1.12,0,0,0,.79-.17c5.9-3.55,12.5-5.66,18.67-8.67,1.45-.7.18-2.86-1.26-2.15-5.28,2.56-10.86,4.48-16.05,7.2q3.11-5.37,6.46-10.55a206.45,206.45,0,0,1,20.55-7,1.26,1.26,0,0,0-.67-2.42c-5.93,1.66-11.75,3.67-17.5,5.86,2.07-3,4.22-6,6.47-8.91,4.75-2.6,10-4,15-5.87,1.5-.55.86-3-.66-2.41-3.59,1.32-7.25,2.43-10.78,3.87a117.4,117.4,0,0,1,24.41-22.25c1.33-.89.08-3.06-1.26-2.16a119.28,119.28,0,0,0-24.13,21.75c.71-2.76,1.29-5.56,2-8.34.39-1.56-2-2.23-2.41-.66-1.16,4.78-2,9.63-3.83,14.22-3.1,4-6,8.09-8.8,12.32l-.05,0c.62-3.3,1.31-6.58,1.76-9.91.21-1.57-2.2-2.26-2.41-.66-.69,5.14-2,10.18-2.67,15.33a1.52,1.52,0,0,0,0,.48c-3,4.83-5.77,9.78-8.46,14.79-3-17.37,6.6-34.7,17.86-47.22s28-23.39,45.57-22.26C324.75,405.84,304.4,445.27,271,446.85Z"/><path class="cls-2" d="M275.4,62.58c-18.89-2-36.56,9.58-48.88,22.86s-22.05,32.24-18.32,50.72a1,1,0,0,0,.83.87c-5.2,9.9-10,20-14.71,29.83-.69,1.45,1.47,2.72,2.16,1.26,4.85-10.12,9.77-20.53,15.15-30.72,36-.56,57.86-42.7,65-73.24A1.28,1.28,0,0,0,275.4,62.58ZM213,134.85q1.11-2.06,2.25-4.11a1.12,1.12,0,0,0,.79-.17c5.9-3.55,12.5-5.66,18.67-8.67,1.45-.7.18-2.86-1.26-2.15-5.28,2.56-10.86,4.48-16.05,7.2q3.11-5.37,6.46-10.55a206.45,206.45,0,0,1,20.55-7,1.26,1.26,0,0,0-.67-2.42c-5.93,1.66-11.75,3.67-17.5,5.86,2.07-3,4.22-6,6.47-8.91,4.75-2.6,10-4,15-5.87,1.5-.55.86-3-.66-2.41-3.59,1.32-7.25,2.43-10.78,3.87A117.4,117.4,0,0,1,260.7,77.24c1.33-.89.08-3.06-1.26-2.16a119.28,119.28,0,0,0-24.13,21.75c.71-2.76,1.29-5.56,2-8.34.39-1.56-2-2.23-2.41-.66-1.16,4.78-2,9.63-3.83,14.22-3.1,4-6,8.09-8.8,12.32l0,0c.62-3.3,1.31-6.58,1.76-9.91.21-1.57-2.2-2.26-2.41-.66-.69,5.14-2,10.18-2.67,15.33a1.52,1.52,0,0,0,0,.48c-3,4.83-5.77,9.78-8.46,14.79-3-17.37,6.6-34.7,17.86-47.22s28-23.39,45.57-22.26C266.75,93.84,246.4,133.27,213,134.85Z"/><path class="cls-3" d="M105.22,207.32c-15.32,5.89-36.41,4.46-46.26,20a18.69,18.69,0,0,0-1.24,17.74c2.38,4.86,7.43,6,12.24,5.28a86.13,86.13,0,0,0-4.85,15.85c-.29,1.4,1.86,2,2.15.59a82.85,82.85,0,0,1,5.23-16.6,1.06,1.06,0,0,0,.28.28c26.56,18.7,27-27.58,33.71-41.52C106.86,208.18,106.23,206.93,105.22,207.32Zm-15.6,43.29c-4.82,4.37-11.27,1.08-15.72-2.06a1.12,1.12,0,0,0-.41-.18,1.42,1.42,0,0,0-.07-.22A68.88,68.88,0,0,1,92,224.38c1.11-.92-.48-2.49-1.58-1.58a70.73,70.73,0,0,0-19.37,25c-6.13,1.55-11.23-.83-12.6-7.55S61,227,66,222.8c10.22-8.67,25.14-8.48,37.51-12.5-3.35,8.42-4,18.08-6.64,26.71C95.39,241.87,93.47,247.11,89.62,250.61Z"/><path class="cls-3" d="M416,117.67c-15.33,5.89-36.42,4.46-46.26,20a18.67,18.67,0,0,0-1.24,17.74c2.37,4.86,7.43,6,12.24,5.28a85.28,85.28,0,0,0-4.86,15.84c-.29,1.41,1.87,2,2.16.6a83.13,83.13,0,0,1,5.22-16.61,1.14,1.14,0,0,0,.29.29c26.56,18.7,27-27.58,33.71-41.52C417.64,118.52,417,117.28,416,117.67ZM400.39,161c-4.81,4.38-11.26,1.09-15.71-2a1,1,0,0,0-.42-.18.81.81,0,0,0-.07-.22,68.88,68.88,0,0,1,18.59-23.77c1.11-.92-.48-2.49-1.58-1.58a70.61,70.61,0,0,0-19.36,25c-6.14,1.55-11.24-.83-12.61-7.55s2.56-13.29,7.52-17.5c10.23-8.67,25.15-8.48,37.51-12.51-3.35,8.43-4.05,18.09-6.64,26.72C406.16,152.22,404.24,157.46,400.39,161Z"/><path class="cls-3" d="M333,280.67c-15.33,5.89-36.42,4.46-46.26,20a18.67,18.67,0,0,0-1.24,17.74c2.37,4.86,7.43,6.05,12.24,5.28a85.28,85.28,0,0,0-4.86,15.84c-.29,1.41,1.87,2,2.16.6a83.13,83.13,0,0,1,5.22-16.61,1.14,1.14,0,0,0,.29.29c26.56,18.7,27-27.58,33.71-41.52C334.64,281.52,334,280.28,333,280.67ZM317.39,324c-4.81,4.38-11.26,1.09-15.71-2.05a1,1,0,0,0-.42-.18.81.81,0,0,0-.07-.22,68.88,68.88,0,0,1,18.59-23.77c1.11-.92-.48-2.49-1.58-1.58a70.61,70.61,0,0,0-19.36,25.05c-6.14,1.55-11.24-.83-12.61-7.55s2.56-13.29,7.52-17.5c10.23-8.67,25.15-8.48,37.51-12.51-3.35,8.43-4.05,18.09-6.64,26.72C323.16,315.22,321.24,320.46,317.39,324Z"/><path class="cls-3" d="M182,402.67c-15.33,5.89-36.42,4.46-46.26,20a18.67,18.67,0,0,0-1.24,17.74c2.37,4.86,7.43,6.05,12.24,5.28a85.28,85.28,0,0,0-4.86,15.84c-.29,1.41,1.87,2,2.16.6a83.13,83.13,0,0,1,5.22-16.61,1.14,1.14,0,0,0,.29.29c26.56,18.7,27-27.58,33.71-41.52C183.64,403.52,183,402.28,182,402.67ZM166.39,446c-4.81,4.38-11.26,1.09-15.71-2.05a1,1,0,0,0-.42-.18.81.81,0,0,0-.07-.22,68.88,68.88,0,0,1,18.59-23.77c1.11-.92-.48-2.49-1.58-1.58a70.61,70.61,0,0,0-19.36,25.05c-6.14,1.55-11.24-.83-12.61-7.55s2.56-13.29,7.52-17.5c10.23-8.67,25.15-8.48,37.51-12.51-3.35,8.43-4,18.09-6.64,26.72C172.16,437.22,170.24,442.46,166.39,446Z"/><path class="cls-3" d="M235-9.33c-15.33,5.89-36.42,4.46-46.26,20a18.67,18.67,0,0,0-1.24,17.74c2.37,4.86,7.43,6,12.24,5.28a85.28,85.28,0,0,0-4.86,15.84c-.29,1.41,1.87,2,2.16.6a83.13,83.13,0,0,1,5.22-16.61,1.14,1.14,0,0,0,.29.29c26.56,18.7,27-27.58,33.71-41.52C236.64-8.48,236-9.72,235-9.33ZM219.39,34c-4.81,4.38-11.26,1.09-15.71-2.05a1,1,0,0,0-.42-.18.81.81,0,0,0-.07-.22A68.88,68.88,0,0,1,221.78,7.73c1.11-.92-.48-2.49-1.58-1.58a70.61,70.61,0,0,0-19.36,25c-6.14,1.55-11.24-.83-12.61-7.55s2.56-13.29,7.52-17.5C206-2.52,220.9-2.33,233.26-6.36c-3.35,8.43-4,18.09-6.64,26.72C225.16,25.22,223.24,30.46,219.39,34Z"/><path class="cls-3" d="M535,22.67c-15.33,5.89-36.42,4.46-46.26,20a18.67,18.67,0,0,0-1.24,17.74c2.37,4.86,7.43,6.05,12.24,5.28a85.28,85.28,0,0,0-4.86,15.84c-.29,1.41,1.87,2,2.16.6a83.13,83.13,0,0,1,5.22-16.61,1.14,1.14,0,0,0,.29.29c26.56,18.7,27-27.58,33.71-41.52C536.64,23.52,536,22.28,535,22.67ZM519.39,66c-4.81,4.38-11.26,1.09-15.71-2.05a1,1,0,0,0-.42-.18.81.81,0,0,0-.07-.22,68.88,68.88,0,0,1,18.59-23.77c1.11-.92-.48-2.49-1.58-1.58A70.61,70.61,0,0,0,500.84,63.2c-6.14,1.55-11.24-.83-12.61-7.55s2.56-13.29,7.52-17.5c10.23-8.67,25.15-8.48,37.51-12.51-3.35,8.43-4,18.09-6.64,26.72C525.16,57.22,523.24,62.46,519.39,66Z"/><path class="cls-3" d="M473,358.67c-15.33,5.89-36.42,4.46-46.26,20a18.67,18.67,0,0,0-1.24,17.74c2.37,4.86,7.43,6.05,12.24,5.28a85.28,85.28,0,0,0-4.86,15.84c-.29,1.41,1.87,2,2.16.6a83.13,83.13,0,0,1,5.22-16.61,1.14,1.14,0,0,0,.29.29c26.56,18.7,27-27.58,33.71-41.52C474.64,359.52,474,358.28,473,358.67ZM457.39,402c-4.81,4.38-11.26,1.09-15.71-2.05a1,1,0,0,0-.42-.18.81.81,0,0,0-.07-.22,68.88,68.88,0,0,1,18.59-23.77c1.11-.92-.48-2.49-1.58-1.58a70.61,70.61,0,0,0-19.36,25.05c-6.14,1.55-11.24-.83-12.61-7.55s2.56-13.29,7.52-17.5c10.23-8.67,25.15-8.48,37.51-12.51-3.35,8.43-4.05,18.09-6.64,26.72C463.16,393.22,461.24,398.46,457.39,402Z"/><path class="cls-4" d="M39.56,130.25c-8.32,1.73-15.27,7.29-21.12,13.2-4.42,4.46-8.82,9.9-11.27,15.87-.73-1.14-1.54-2.23-2.2-3.5a1.26,1.26,0,0,0-2-.25c-4.17,3.79-5.09,9.91-5.3,15.5-.15-.16-.3-.32-.44-.5a1.23,1.23,0,0,0-1.76,0c-4.21,5.3-3.93,11.8-4.6,18.17-.55-.37-1.11-.75-1.64-1.17a1.26,1.26,0,0,0-2.08.55c-1.89,7.46.55,16.75,5.32,22.72l.18.19a1.37,1.37,0,0,0,0,.28c0,.1,0,.21,0,.31-.26,1.58,2.15,2.25,2.41.67,0,0,0-.07,0-.1,8-.27,16.58-5.08,22.16-10.35a1.26,1.26,0,0,0-.55-2.09,26.22,26.22,0,0,0-3.89-.77c6.55-3.51,12.91-8.85,15.27-15.69a1.26,1.26,0,0,0-1.21-1.59c-1.25.13-2.48.08-3.7.09,4.71-4.68,9.82-8.42,12.41-15,.36-.93-.7-1.76-1.54-1.54a46.6,46.6,0,0,1-5.64.89c7.17-9.87,9.13-22.95,12.68-34.35A1.26,1.26,0,0,0,39.56,130.25ZM19,182.57a1.26,1.26,0,0,0,1.21,2.09,15.4,15.4,0,0,1,4.78-.39C21.83,191,14.11,196.06,7.56,198.75a1.25,1.25,0,0,0,.33,2.45,36.18,36.18,0,0,1,5.82.44c-5,4.09-11.77,7.6-18.11,8,3.93-19.2,16.18-36.78,26.37-53.08.86-1.37-1.31-2.62-2.16-1.26C9.71,171.47-2.4,188.9-6.59,207.88a26.11,26.11,0,0,1-4.15-17.29c.59.4,1.18.8,1.75,1.25s1.94.48,2.09-.55c.84-5.89.1-12.68,3.4-17.86a7.68,7.68,0,0,1,1.31,1.65,1.26,1.26,0,0,0,2.33-.63c0-5.15.13-11.71,3.54-15.93a20,20,0,0,1,2.51,4.27,1.26,1.26,0,0,0,2.41,0c2-6.74,6.87-12.59,11.61-17.58,4.9-5.15,10.94-9.93,17.85-12-3.34,11.53-5.41,24.71-13.55,33.85a1.26,1.26,0,0,0,1.21,2.09,59.71,59.71,0,0,1,6.52-1C29.09,174.07,23.43,177.52,19,182.57Z"/><path class="cls-4" d="M333.23,88c-8.32,1.74-15.27,7.29-21.12,13.2-4.42,4.47-8.82,9.91-11.27,15.87-.73-1.14-1.54-2.22-2.2-3.49a1.27,1.27,0,0,0-2-.26c-4.17,3.79-5.08,9.91-5.29,15.51-.15-.17-.3-.33-.44-.51a1.25,1.25,0,0,0-1.77,0c-4.2,5.31-3.93,11.8-4.59,18.18-.56-.38-1.11-.76-1.64-1.18a1.27,1.27,0,0,0-2.09.55c-1.88,7.46.56,16.76,5.32,22.72a.85.85,0,0,0,.19.19,1.47,1.47,0,0,0,.05.29l-.06.3c-.25,1.58,2.16,2.26,2.41.67a.3.3,0,0,0,0-.1c7.94-.27,16.58-5.08,22.16-10.35a1.26,1.26,0,0,0-.55-2.09,25,25,0,0,0-3.89-.76c6.55-3.52,12.91-8.85,15.26-15.7a1.25,1.25,0,0,0-1.2-1.58c-1.25.12-2.48.07-3.7.08,4.71-4.67,9.82-8.41,12.4-15,.37-.93-.69-1.76-1.53-1.54a44.71,44.71,0,0,1-5.64.89c7.17-9.87,9.13-23,12.67-34.35A1.26,1.26,0,0,0,333.23,88Zm-20.56,52.32a1.26,1.26,0,0,0,1.22,2.09,15.68,15.68,0,0,1,4.78-.38c-3.17,6.71-10.89,11.78-17.44,14.47a1.26,1.26,0,0,0,.33,2.46,35.07,35.07,0,0,1,5.82.44c-4.95,4.08-11.77,7.6-18.11,8,3.93-19.2,16.18-36.78,26.37-53.08.86-1.37-1.31-2.63-2.16-1.26-10.1,16.15-22.21,33.57-26.41,52.55a26.22,26.22,0,0,1-4.15-17.29c.6.4,1.19.8,1.75,1.25s1.95.49,2.09-.55c.84-5.89.11-12.68,3.41-17.85a8.07,8.07,0,0,1,1.31,1.65,1.26,1.26,0,0,0,2.33-.63c0-5.15.12-11.71,3.54-15.94a19.76,19.76,0,0,1,2.5,4.27,1.26,1.26,0,0,0,2.41,0c2-6.73,6.88-12.59,11.62-17.57,4.9-5.16,10.94-9.93,17.85-12-3.34,11.53-5.41,24.72-13.56,33.85a1.26,1.26,0,0,0,1.22,2.09,61.8,61.8,0,0,1,6.52-1C322.76,131.86,317.09,135.32,312.67,140.36Z"/><path class="cls-4" d="M258.18,321.91c-8.32,1.73-15.27,7.29-21.12,13.2-4.42,4.47-8.82,9.91-11.27,15.87-.73-1.14-1.54-2.22-2.2-3.49a1.27,1.27,0,0,0-2-.26c-4.17,3.79-5.08,9.91-5.29,15.51-.15-.17-.3-.33-.44-.51a1.25,1.25,0,0,0-1.77,0c-4.2,5.31-3.93,11.8-4.59,18.17-.56-.37-1.11-.75-1.64-1.17a1.27,1.27,0,0,0-2.09.56c-1.88,7.45.56,16.75,5.32,22.71l.19.19a.87.87,0,0,0,.05.28l-.06.32c-.25,1.57,2.15,2.25,2.41.66a.36.36,0,0,0,0-.1c7.94-.27,16.58-5.08,22.16-10.35a1.26,1.26,0,0,0-.55-2.09,26.22,26.22,0,0,0-3.89-.77c6.55-3.51,12.91-8.84,15.26-15.69a1.25,1.25,0,0,0-1.2-1.58c-1.25.12-2.48.07-3.7.08,4.71-4.67,9.82-8.41,12.4-15,.37-.93-.69-1.76-1.53-1.54a44.71,44.71,0,0,1-5.64.89c7.17-9.87,9.13-22.95,12.67-34.35A1.26,1.26,0,0,0,258.18,321.91Zm-20.56,52.32a1.26,1.26,0,0,0,1.22,2.09,16,16,0,0,1,4.78-.39c-3.17,6.72-10.89,11.79-17.44,14.48a1.26,1.26,0,0,0,.33,2.46,34,34,0,0,1,5.82.44c-5,4.08-11.77,7.6-18.11,8,3.93-19.2,16.18-36.77,26.37-53.07.85-1.37-1.31-2.63-2.16-1.26-10.1,16.15-22.21,33.57-26.41,52.55a26.16,26.16,0,0,1-4.15-17.29c.6.4,1.19.8,1.75,1.25s1.94.49,2.09-.55c.84-5.89.11-12.68,3.41-17.85a8.07,8.07,0,0,1,1.31,1.65,1.26,1.26,0,0,0,2.33-.63c0-5.15.12-11.72,3.53-15.94a19.41,19.41,0,0,1,2.51,4.27,1.26,1.26,0,0,0,2.41,0c2-6.73,6.88-12.59,11.62-17.58,4.9-5.15,10.94-9.92,17.85-12-3.34,11.53-5.42,24.72-13.56,33.85a1.26,1.26,0,0,0,1.22,2.09,61.8,61.8,0,0,1,6.52-1C247.71,365.73,242,369.19,237.62,374.23Z"/><path class="cls-4" d="M31.4,258c-8.32,1.74-15.26,7.29-21.11,13.2C5.87,275.67,1.46,281.11-1,287.08c-.73-1.14-1.54-2.23-2.21-3.5a1.25,1.25,0,0,0-2-.25c-4.17,3.78-5.08,9.9-5.3,15.5-.14-.17-.29-.32-.43-.5a1.24,1.24,0,0,0-1.77,0c-4.21,5.3-3.93,11.79-4.59,18.17-.56-.38-1.11-.76-1.64-1.17a1.26,1.26,0,0,0-2.09.55c-1.88,7.45.56,16.75,5.32,22.71a.85.85,0,0,0,.19.19,1.45,1.45,0,0,0,0,.29c0,.1,0,.2-.05.31-.26,1.57,2.15,2.25,2.41.66,0,0,0-.06,0-.09,7.94-.27,16.58-5.09,22.16-10.36a1.26,1.26,0,0,0-.55-2.09,27.51,27.51,0,0,0-3.89-.76c6.55-3.52,12.9-8.85,15.26-15.7a1.25,1.25,0,0,0-1.2-1.58c-1.26.12-2.49.07-3.71.08,4.72-4.67,9.83-8.41,12.41-15,.36-.92-.69-1.75-1.54-1.54a44.43,44.43,0,0,1-5.64.89c7.18-9.86,9.13-22.95,12.68-34.35A1.27,1.27,0,0,0,31.4,258ZM10.85,310.33a1.25,1.25,0,0,0,1.22,2.08,15.68,15.68,0,0,1,4.78-.38C13.67,318.74,6,323.81-.6,326.5A1.26,1.26,0,0,0-.26,329a34.87,34.87,0,0,1,5.81.44c-4.95,4.09-11.76,7.6-18.1,8,3.92-19.2,16.18-36.78,26.36-53.08.86-1.37-1.3-2.63-2.15-1.26-10.1,16.15-22.21,33.57-26.41,52.56a26.2,26.2,0,0,1-4.15-17.3c.59.4,1.19.81,1.75,1.25s1.94.49,2.09-.55c.84-5.89.1-12.67,3.4-17.85a7.78,7.78,0,0,1,1.32,1.65A1.26,1.26,0,0,0-8,302.21c0-5.15.12-11.71,3.53-15.93A19.92,19.92,0,0,1-2,290.54a1.26,1.26,0,0,0,2.41,0c2-6.73,6.88-12.59,11.62-17.57C17,267.81,23,263,29.9,261c-3.33,11.53-5.41,24.72-13.55,33.86a1.25,1.25,0,0,0,1.22,2.08,62,62,0,0,1,6.51-1C20.94,301.82,15.27,305.28,10.85,310.33Z"/><path class="cls-4" d="M17.9,409.5c-8.31,1.73-15.26,7.29-21.11,13.19-4.42,4.47-8.83,9.91-11.27,15.88-.73-1.14-1.54-2.23-2.2-3.5a1.27,1.27,0,0,0-2-.25c-4.17,3.79-5.08,9.91-5.3,15.5-.14-.16-.29-.32-.43-.5a1.24,1.24,0,0,0-1.77,0c-4.21,5.3-3.93,11.8-4.59,18.17-.56-.38-1.11-.75-1.64-1.17a1.26,1.26,0,0,0-2.09.55c-1.88,7.46.56,16.75,5.32,22.72a1.07,1.07,0,0,0,.19.18.93.93,0,0,0,.05.29l-.06.31c-.26,1.58,2.15,2.25,2.41.67a.44.44,0,0,0,0-.1c7.94-.27,16.58-5.09,22.16-10.35A1.26,1.26,0,0,0-4.93,479a26.22,26.22,0,0,0-3.89-.77c6.55-3.51,12.91-8.85,15.26-15.69A1.26,1.26,0,0,0,5.24,461c-1.26.13-2.49.07-3.7.09,4.71-4.68,9.82-8.42,12.4-15,.36-.93-.69-1.76-1.54-1.54a46.44,46.44,0,0,1-5.63.89c7.17-9.87,9.12-23,12.67-34.35A1.26,1.26,0,0,0,17.9,409.5ZM-2.65,461.82a1.26,1.26,0,0,0,1.22,2.09,15.38,15.38,0,0,1,4.78-.39C.18,470.24-7.54,475.31-14.1,478a1.25,1.25,0,0,0,.34,2.45,36.18,36.18,0,0,1,5.82.44c-4.95,4.09-11.77,7.6-18.11,8,3.93-19.2,16.18-36.78,26.37-53.08.85-1.37-1.31-2.62-2.16-1.26-10.1,16.15-22.21,33.57-26.41,52.56a26.19,26.19,0,0,1-4.15-17.29c.6.4,1.19.8,1.75,1.25s1.94.48,2.09-.55c.84-5.89.1-12.68,3.4-17.86a8,8,0,0,1,1.32,1.65,1.26,1.26,0,0,0,2.33-.63c0-5.15.12-11.71,3.53-15.93A19.74,19.74,0,0,1-15.47,442a1.26,1.26,0,0,0,2.41,0c2-6.74,6.88-12.59,11.62-17.58,4.9-5.15,10.93-9.93,17.84-12C13.07,424,11,437.18,2.85,446.32a1.26,1.26,0,0,0,1.22,2.09,59.34,59.34,0,0,1,6.52-1C7.44,453.32,1.77,456.77-2.65,461.82Z"/><path class="cls-4" d="M401.88,193.51c-8.31,1.73-15.26,7.28-21.11,13.19-4.42,4.47-8.82,9.91-11.27,15.88-.73-1.14-1.54-2.23-2.2-3.5a1.27,1.27,0,0,0-2-.25c-4.17,3.79-5.08,9.91-5.29,15.5-.15-.16-.3-.32-.44-.5a1.24,1.24,0,0,0-1.77,0c-4.21,5.3-3.93,11.79-4.59,18.17-.56-.38-1.11-.75-1.64-1.17a1.27,1.27,0,0,0-2.09.55c-1.88,7.46.56,16.75,5.32,22.72l.19.19a.92.92,0,0,0,.05.28l-.06.31c-.26,1.58,2.15,2.25,2.41.66a.29.29,0,0,0,0-.09c7.94-.27,16.58-5.09,22.16-10.35a1.26,1.26,0,0,0-.55-2.09,26.22,26.22,0,0,0-3.89-.77c6.55-3.51,12.91-8.85,15.26-15.7a1.25,1.25,0,0,0-1.2-1.58c-1.26.13-2.48.08-3.7.09,4.71-4.68,9.82-8.42,12.4-15,.37-.92-.69-1.75-1.54-1.53a46.44,46.44,0,0,1-5.63.89c7.17-9.87,9.12-23,12.67-34.36A1.26,1.26,0,0,0,401.88,193.51Zm-20.55,52.32a1.26,1.26,0,0,0,1.22,2.09,15.38,15.38,0,0,1,4.78-.39c-3.17,6.72-10.89,11.79-17.45,14.48a1.25,1.25,0,0,0,.34,2.45,36.18,36.18,0,0,1,5.82.44c-5,4.09-11.77,7.6-18.11,8,3.93-19.2,16.18-36.78,26.37-53.08.85-1.37-1.31-2.62-2.16-1.26-10.1,16.15-22.21,33.58-26.41,52.56a26.17,26.17,0,0,1-4.15-17.29c.6.4,1.19.8,1.75,1.25s1.94.48,2.09-.56c.84-5.88.11-12.67,3.4-17.85a8,8,0,0,1,1.32,1.65,1.26,1.26,0,0,0,2.33-.63c0-5.14.12-11.71,3.53-15.93a20.17,20.17,0,0,1,2.51,4.26,1.26,1.26,0,0,0,2.41,0c2-6.73,6.88-12.58,11.62-17.57,4.9-5.15,10.93-9.93,17.84-12-3.33,11.53-5.41,24.71-13.55,33.85a1.26,1.26,0,0,0,1.22,2.09,61.83,61.83,0,0,1,6.52-1C391.42,237.33,385.75,240.78,381.33,245.83Z"/><path class="cls-4" d="M484.38,93c-8.32,1.74-15.27,7.29-21.11,13.2-4.42,4.47-8.83,9.91-11.27,15.87-.73-1.13-1.55-2.22-2.21-3.49a1.26,1.26,0,0,0-2-.26c-4.17,3.79-5.08,9.91-5.3,15.51-.15-.17-.29-.33-.43-.51a1.25,1.25,0,0,0-1.77,0c-4.21,5.31-3.93,11.8-4.6,18.18-.55-.38-1.11-.76-1.63-1.18a1.27,1.27,0,0,0-2.09.55c-1.88,7.46.56,16.76,5.32,22.72a1.11,1.11,0,0,0,.18.19,2.93,2.93,0,0,0,.05.29c0,.1,0,.2-.05.3-.26,1.58,2.15,2.26,2.41.67a.36.36,0,0,1,0-.1c7.94-.27,16.58-5.08,22.16-10.35a1.26,1.26,0,0,0-.56-2.09,24.83,24.83,0,0,0-3.88-.76c6.54-3.52,12.9-8.85,15.26-15.7a1.25,1.25,0,0,0-1.21-1.58c-1.25.12-2.48.07-3.7.08,4.71-4.68,9.82-8.41,12.41-15,.36-.93-.7-1.76-1.54-1.54a44.43,44.43,0,0,1-5.64.89c7.18-9.86,9.13-23,12.68-34.35A1.27,1.27,0,0,0,484.38,93Zm-20.55,52.32a1.26,1.26,0,0,0,1.21,2.09,15.73,15.73,0,0,1,4.78-.38c-3.17,6.71-10.88,11.78-17.44,14.47a1.26,1.26,0,0,0,.33,2.46,34.9,34.9,0,0,1,5.82.44c-4.95,4.08-11.76,7.6-18.11,8,3.93-19.2,16.18-36.78,26.37-53.08.86-1.37-1.3-2.63-2.16-1.26-10.09,16.15-22.2,33.57-26.4,52.55a26.11,26.11,0,0,1-4.15-17.29c.59.4,1.19.8,1.75,1.25s1.94.49,2.09-.55c.84-5.89.1-12.68,3.4-17.85a7.44,7.44,0,0,1,1.31,1.65,1.26,1.26,0,0,0,2.33-.63c0-5.15.13-11.71,3.54-15.93a19.92,19.92,0,0,1,2.51,4.26,1.26,1.26,0,0,0,2.41,0c2-6.73,6.87-12.59,11.61-17.57,4.91-5.16,10.94-9.93,17.85-12-3.34,11.53-5.41,24.72-13.55,33.85a1.26,1.26,0,0,0,1.21,2.09,62.62,62.62,0,0,1,6.52-1C473.91,136.83,468.25,140.29,463.83,145.33Z"/><path class="cls-4" d="M177.44,237.13c-8.32,1.74-15.27,7.29-21.11,13.2-4.42,4.47-8.83,9.91-11.27,15.87-.73-1.14-1.54-2.22-2.21-3.49a1.26,1.26,0,0,0-2-.26c-4.17,3.79-5.08,9.91-5.3,15.51-.14-.17-.29-.33-.43-.51a1.25,1.25,0,0,0-1.77,0c-4.21,5.31-3.93,11.8-4.6,18.17-.55-.37-1.11-.75-1.63-1.17a1.27,1.27,0,0,0-2.09.55c-1.88,7.46.56,16.76,5.32,22.72a1.66,1.66,0,0,0,.18.19,2.93,2.93,0,0,0,.05.29c0,.1,0,.2-.05.3-.26,1.58,2.15,2.26,2.41.67,0,0,0-.06,0-.1,7.94-.27,16.58-5.08,22.16-10.35a1.26,1.26,0,0,0-.55-2.09,25.18,25.18,0,0,0-3.89-.76c6.54-3.52,12.9-8.85,15.26-15.7a1.25,1.25,0,0,0-1.21-1.58c-1.25.12-2.48.07-3.7.08,4.71-4.67,9.83-8.41,12.41-15,.36-.93-.69-1.76-1.54-1.54a44.43,44.43,0,0,1-5.64.89c7.18-9.87,9.13-22.95,12.68-34.35A1.27,1.27,0,0,0,177.44,237.13Zm-20.55,52.32a1.26,1.26,0,0,0,1.22,2.09,16,16,0,0,1,4.78-.39c-3.18,6.72-10.89,11.79-17.45,14.48a1.26,1.26,0,0,0,.33,2.46,34.9,34.9,0,0,1,5.82.44c-5,4.08-11.76,7.6-18.1,8,3.92-19.19,16.17-36.77,26.36-53.07.86-1.37-1.3-2.63-2.15-1.26-10.1,16.15-22.21,33.57-26.41,52.55a26.16,26.16,0,0,1-4.15-17.29c.59.4,1.19.8,1.75,1.25s1.94.49,2.09-.55c.84-5.89.1-12.68,3.4-17.85A7.78,7.78,0,0,1,135.7,282a1.25,1.25,0,0,0,2.32-.63c0-5.15.13-11.72,3.54-15.94a20.23,20.23,0,0,1,2.51,4.27,1.26,1.26,0,0,0,2.41,0c2-6.73,6.88-12.59,11.62-17.57,4.9-5.16,10.93-9.93,17.84-12-3.33,11.53-5.41,24.72-13.55,33.85a1.26,1.26,0,0,0,1.22,2.09,62,62,0,0,1,6.51-1C167,281,161.31,284.41,156.89,289.45Z"/><path class="cls-4" d="M392.44,392.13c-8.32,1.74-15.27,7.29-21.11,13.2-4.42,4.47-8.83,9.91-11.27,15.87-.73-1.14-1.54-2.22-2.21-3.49a1.26,1.26,0,0,0-2-.26c-4.17,3.79-5.08,9.91-5.3,15.51-.14-.17-.29-.33-.43-.51a1.25,1.25,0,0,0-1.77,0c-4.21,5.31-3.93,11.8-4.6,18.17-.55-.37-1.11-.75-1.63-1.17a1.27,1.27,0,0,0-2.09.55c-1.88,7.46.56,16.76,5.32,22.72a1.66,1.66,0,0,0,.18.19,2.93,2.93,0,0,0,.05.29c0,.1,0,.2-.05.3-.26,1.58,2.15,2.26,2.41.67,0,0,0-.06,0-.1,7.94-.27,16.58-5.08,22.16-10.35a1.26,1.26,0,0,0-.55-2.09,25.18,25.18,0,0,0-3.89-.76c6.54-3.52,12.9-8.85,15.26-15.7a1.25,1.25,0,0,0-1.21-1.58c-1.25.12-2.48.07-3.7.08,4.71-4.67,9.83-8.41,12.41-15,.36-.93-.69-1.76-1.54-1.54a44.43,44.43,0,0,1-5.64.89c7.18-9.87,9.13-22.95,12.68-34.35A1.27,1.27,0,0,0,392.44,392.13Zm-20.55,52.32a1.26,1.26,0,0,0,1.22,2.09,16,16,0,0,1,4.78-.39c-3.18,6.72-10.89,11.79-17.45,14.48a1.26,1.26,0,0,0,.33,2.46,34.9,34.9,0,0,1,5.82.44c-4.95,4.08-11.76,7.6-18.1,8,3.92-19.19,16.17-36.77,26.36-53.07.86-1.37-1.3-2.63-2.15-1.26-10.1,16.15-22.21,33.57-26.41,52.55a26.16,26.16,0,0,1-4.15-17.29c.59.4,1.19.8,1.75,1.25s1.94.49,2.09-.55c.84-5.89.1-12.68,3.4-17.85A7.78,7.78,0,0,1,350.7,437a1.25,1.25,0,0,0,2.32-.63c0-5.15.13-11.72,3.54-15.94a20.23,20.23,0,0,1,2.51,4.27,1.26,1.26,0,0,0,2.41,0c2-6.73,6.88-12.59,11.62-17.57,4.9-5.16,10.93-9.93,17.84-12-3.33,11.53-5.41,24.72-13.55,33.85a1.26,1.26,0,0,0,1.22,2.09,62,62,0,0,1,6.51-1C382,436,376.31,439.41,371.89,444.45Z"/><path class="cls-4" d="M174.44,104.13c-8.32,1.74-15.27,7.29-21.11,13.2-4.42,4.47-8.83,9.91-11.27,15.87-.73-1.14-1.54-2.22-2.21-3.49a1.26,1.26,0,0,0-2-.26c-4.17,3.79-5.08,9.91-5.3,15.51-.14-.17-.29-.33-.43-.51a1.25,1.25,0,0,0-1.77,0c-4.21,5.31-3.93,11.8-4.6,18.17-.55-.37-1.11-.75-1.63-1.17a1.27,1.27,0,0,0-2.09.55c-1.88,7.46.56,16.76,5.32,22.72a1.66,1.66,0,0,0,.18.19,2.93,2.93,0,0,0,.05.29c0,.1,0,.2-.05.3-.26,1.58,2.15,2.26,2.41.67,0,0,0-.06,0-.1,7.94-.27,16.58-5.08,22.16-10.35a1.26,1.26,0,0,0-.55-2.09,25.18,25.18,0,0,0-3.89-.76c6.54-3.52,12.9-8.85,15.26-15.7a1.25,1.25,0,0,0-1.21-1.58c-1.25.12-2.48.07-3.7.08,4.71-4.67,9.83-8.41,12.41-15,.36-.93-.69-1.76-1.54-1.54a44.43,44.43,0,0,1-5.64.89c7.18-9.87,9.13-23,12.68-34.35A1.27,1.27,0,0,0,174.44,104.13Zm-20.55,52.32a1.26,1.26,0,0,0,1.22,2.09,16,16,0,0,1,4.78-.39c-3.18,6.72-10.89,11.79-17.45,14.48a1.26,1.26,0,0,0,.33,2.46,34.9,34.9,0,0,1,5.82.44c-5,4.08-11.76,7.6-18.1,8,3.92-19.19,16.17-36.77,26.36-53.07.86-1.37-1.3-2.63-2.15-1.26-10.1,16.15-22.21,33.57-26.41,52.55a26.16,26.16,0,0,1-4.15-17.29c.59.4,1.19.8,1.75,1.25s1.94.49,2.09-.55c.84-5.89.1-12.68,3.4-17.85A7.78,7.78,0,0,1,132.7,149a1.25,1.25,0,0,0,2.32-.63c0-5.15.13-11.72,3.54-15.94a20.23,20.23,0,0,1,2.51,4.27,1.26,1.26,0,0,0,2.41,0c2-6.73,6.88-12.59,11.62-17.57,4.9-5.16,10.93-9.93,17.84-12-3.33,11.53-5.41,24.72-13.55,33.85a1.26,1.26,0,0,0,1.22,2.09,62,62,0,0,1,6.51-1C164,148,158.31,151.41,153.89,156.45Z"/><path class="cls-4" d="M316.44-33.87c-8.32,1.74-15.27,7.29-21.11,13.2-4.42,4.47-8.83,9.91-11.27,15.87-.73-1.14-1.54-2.22-2.21-3.49a1.26,1.26,0,0,0-2-.26c-4.17,3.79-5.08,9.91-5.3,15.51-.14-.17-.29-.33-.43-.51a1.25,1.25,0,0,0-1.77,0c-4.21,5.31-3.93,11.8-4.6,18.17-.55-.37-1.11-.75-1.63-1.17a1.27,1.27,0,0,0-2.09.55c-1.88,7.46.56,16.76,5.32,22.72a1.66,1.66,0,0,0,.18.19,2.93,2.93,0,0,0,.05.29c0,.1,0,.2-.05.3-.26,1.58,2.15,2.26,2.41.67,0,0,0-.06,0-.1,7.94-.27,16.58-5.08,22.16-10.35a1.26,1.26,0,0,0-.55-2.09,25.18,25.18,0,0,0-3.89-.76c6.54-3.52,12.9-8.85,15.26-15.7a1.25,1.25,0,0,0-1.21-1.58c-1.25.12-2.48.07-3.7.08,4.71-4.67,9.83-8.41,12.41-15,.36-.93-.69-1.76-1.54-1.54A44.43,44.43,0,0,1,305.3,2c7.18-9.87,9.13-22.95,12.68-34.35A1.27,1.27,0,0,0,316.44-33.87ZM295.89,18.45a1.26,1.26,0,0,0,1.22,2.09,16,16,0,0,1,4.78-.39c-3.18,6.72-10.89,11.79-17.45,14.48a1.26,1.26,0,0,0,.33,2.46,34.9,34.9,0,0,1,5.82.44c-4.95,4.08-11.76,7.6-18.1,8,3.92-19.19,16.17-36.77,26.36-53.07.86-1.37-1.3-2.63-2.15-1.26-10.1,16.15-22.21,33.57-26.41,52.55a26.16,26.16,0,0,1-4.15-17.29c.59.4,1.19.8,1.75,1.25s1.94.49,2.09-.55c.84-5.89.1-12.68,3.4-17.85A7.78,7.78,0,0,1,274.7,11a1.25,1.25,0,0,0,2.32-.63c0-5.15.13-11.71,3.54-15.94a20.23,20.23,0,0,1,2.51,4.27,1.26,1.26,0,0,0,2.41,0c2-6.73,6.88-12.59,11.62-17.57,4.9-5.16,10.93-9.93,17.84-12C311.61-19.37,309.53-6.18,301.39,3A1.26,1.26,0,0,0,302.61,5a62,62,0,0,1,6.51-1C306,10,300.31,13.41,295.89,18.45Z"/><path class="cls-4" d="M104.44-45.87c-8.32,1.74-15.27,7.29-21.11,13.2C78.91-28.2,74.5-22.76,72.06-16.8c-.73-1.14-1.54-2.22-2.21-3.49a1.26,1.26,0,0,0-2-.26c-4.17,3.79-5.08,9.91-5.3,15.51-.14-.17-.29-.33-.43-.51a1.25,1.25,0,0,0-1.77,0c-4.21,5.31-3.93,11.8-4.6,18.17-.55-.37-1.11-.75-1.63-1.17a1.27,1.27,0,0,0-2.09.55c-1.88,7.46.56,16.76,5.32,22.72a1.66,1.66,0,0,0,.18.19,2.93,2.93,0,0,0,0,.29c0,.1,0,.2,0,.3-.26,1.58,2.15,2.26,2.41.67,0,0,0-.06,0-.1C67.94,35.8,76.58,31,82.16,25.72a1.26,1.26,0,0,0-.55-2.09,25.18,25.18,0,0,0-3.89-.76C84.26,19.35,90.62,14,93,7.17a1.25,1.25,0,0,0-1.21-1.58c-1.25.12-2.48.07-3.7.08,4.71-4.67,9.83-8.41,12.41-15,.36-.93-.69-1.76-1.54-1.54A44.43,44.43,0,0,1,93.3-10c7.18-9.87,9.13-22.95,12.68-34.35A1.27,1.27,0,0,0,104.44-45.87ZM83.89,6.45a1.26,1.26,0,0,0,1.22,2.09,16,16,0,0,1,4.78-.39C86.71,14.87,79,19.94,72.44,22.63a1.26,1.26,0,0,0,.33,2.46,34.9,34.9,0,0,1,5.82.44c-5,4.08-11.76,7.6-18.1,8C64.41,14.35,76.66-3.23,86.85-19.53c.86-1.37-1.3-2.63-2.15-1.26C74.6-4.64,62.49,12.78,58.29,31.76a26.16,26.16,0,0,1-4.15-17.29c.59.4,1.19.8,1.75,1.25s1.94.49,2.09-.55c.84-5.89.1-12.68,3.4-17.85A7.78,7.78,0,0,1,62.7-1,1.25,1.25,0,0,0,65-1.66c0-5.15.13-11.71,3.54-15.94a20.23,20.23,0,0,1,2.51,4.27,1.26,1.26,0,0,0,2.41,0c2-6.73,6.88-12.59,11.62-17.57,4.9-5.16,10.93-9.93,17.84-12C99.61-31.37,97.53-18.18,89.39-9A1.26,1.26,0,0,0,90.61-7a62,62,0,0,1,6.51-1C94-2,88.31,1.41,83.89,6.45Z"/><path class="cls-3" d="M457.14,49.45a1.27,1.27,0,0,0-1.88-1.08C448.17,51.7,442,56.16,437.87,63c-3.85,6.39-4.67,14.2-4.73,21.5a1.15,1.15,0,0,0,.32.84c-1.3,2.13-2.55,4.29-3.65,6.53-.71,1.44,1.45,2.71,2.16,1.26,1.38-2.81,3-5.51,4.64-8.18C451.53,80.42,458.45,64.16,457.14,49.45Zm-18.35,32c3.16-5,6.28-10,8.31-15.64.54-1.52-1.87-2.17-2.41-.67-2.15,6-5.6,11.24-9,16.56.27-6.09,1.33-12,4.32-17.47,3.24-5.89,8.84-9.85,14.73-12.82C455.22,63.49,450,76.4,438.79,81.43Z"/><path class="cls-3" d="M254.14,154.45a1.27,1.27,0,0,0-1.88-1.08c-7.09,3.33-13.3,7.79-17.39,14.58-3.85,6.39-4.67,14.2-4.73,21.5a1.15,1.15,0,0,0,.32.84c-1.3,2.13-2.55,4.29-3.65,6.53-.71,1.44,1.45,2.71,2.16,1.26,1.38-2.81,3-5.51,4.64-8.18C248.53,185.42,255.45,169.16,254.14,154.45Zm-18.35,32c3.16-5,6.28-10,8.31-15.64.54-1.52-1.87-2.17-2.41-.67-2.15,6-5.6,11.24-9,16.56.27-6.09,1.33-12,4.32-17.47,3.24-5.89,8.84-9.85,14.73-12.82C252.22,168.49,247,181.4,235.79,186.43Z"/><path class="cls-3" d="M347.14,174.45a1.27,1.27,0,0,0-1.88-1.08c-7.09,3.33-13.3,7.79-17.39,14.58-3.85,6.39-4.67,14.2-4.73,21.5a1.15,1.15,0,0,0,.32.84c-1.3,2.13-2.55,4.29-3.65,6.53-.71,1.44,1.45,2.71,2.16,1.26,1.38-2.81,3-5.51,4.64-8.18C341.53,205.42,348.45,189.16,347.14,174.45Zm-18.35,32c3.16-5,6.28-10,8.31-15.64.54-1.52-1.87-2.17-2.41-.67-2.15,6-5.6,11.24-9,16.56.27-6.09,1.33-12,4.32-17.47,3.24-5.89,8.84-9.85,14.73-12.82C345.22,188.49,340,201.4,328.79,206.43Z"/><path class="cls-3" d="M442.55,187.87a1.27,1.27,0,0,0-1.88-1.08c-7.08,3.32-13.29,7.78-17.38,14.57-3.86,6.39-4.67,14.2-4.74,21.51a1.16,1.16,0,0,0,.32.83c-1.3,2.13-2.54,4.3-3.64,6.53-.71,1.45,1.44,2.71,2.15,1.27,1.39-2.82,3-5.52,4.65-8.19C436.94,218.84,443.87,202.57,442.55,187.87Zm-18.35,32c3.16-5,6.29-10,8.31-15.65.55-1.52-1.87-2.17-2.41-.67-2.15,6-5.59,11.24-9,16.57.26-6.1,1.32-12,4.32-17.48,3.24-5.89,8.84-9.84,14.72-12.82C440.64,201.9,435.46,214.81,424.2,219.85Z"/><path class="cls-3" d="M357.14,3.45a1.27,1.27,0,0,0-1.88-1.08C348.17,5.7,342,10.16,337.87,17c-3.85,6.39-4.67,14.2-4.73,21.5a1.15,1.15,0,0,0,.32.84c-1.3,2.13-2.55,4.29-3.65,6.53-.71,1.44,1.45,2.71,2.16,1.26,1.38-2.81,3-5.51,4.64-8.18C351.53,34.42,358.45,18.16,357.14,3.45Zm-18.35,32c3.16-5,6.28-10,8.31-15.64.54-1.52-1.87-2.17-2.41-.67-2.15,6-5.6,11.24-9,16.56.27-6.09,1.33-12,4.32-17.47,3.24-5.89,8.84-9.85,14.73-12.82C355.22,17.49,350,30.4,338.79,35.43Z"/><path class="cls-3" d="M174.14,187.45a1.27,1.27,0,0,0-1.88-1.08c-7.09,3.33-13.3,7.79-17.39,14.58-3.85,6.39-4.67,14.2-4.73,21.5a1.15,1.15,0,0,0,.32.84c-1.3,2.13-2.55,4.29-3.65,6.53-.71,1.44,1.45,2.71,2.16,1.26,1.38-2.81,3-5.51,4.64-8.18C168.53,218.42,175.45,202.16,174.14,187.45Zm-18.35,32c3.16-5,6.28-10,8.31-15.64.54-1.52-1.87-2.17-2.41-.67-2.15,6-5.6,11.24-9,16.56.27-6.09,1.33-12,4.32-17.47,3.24-5.89,8.84-9.85,14.73-12.82C172.22,201.49,167,214.4,155.79,219.43Z"/><path class="cls-3" d="M174.14,332.45a1.27,1.27,0,0,0-1.88-1.08c-7.09,3.33-13.3,7.79-17.39,14.58-3.85,6.39-4.67,14.2-4.73,21.5a1.15,1.15,0,0,0,.32.84c-1.3,2.13-2.55,4.29-3.65,6.53-.71,1.44,1.45,2.71,2.16,1.26,1.38-2.81,3-5.51,4.64-8.18C168.53,363.42,175.45,347.16,174.14,332.45Zm-18.35,32c3.16-5,6.28-10,8.31-15.64.54-1.52-1.87-2.17-2.41-.67-2.15,6-5.6,11.24-9,16.56.27-6.09,1.33-12,4.32-17.47,3.24-5.89,8.84-9.85,14.73-12.82C172.22,346.49,167,359.4,155.79,364.43Z"/><path class="cls-3" d="M365.14,311.45a1.27,1.27,0,0,0-1.88-1.08c-7.09,3.33-13.3,7.79-17.39,14.58-3.85,6.39-4.67,14.2-4.73,21.5a1.15,1.15,0,0,0,.32.84c-1.3,2.13-2.55,4.29-3.65,6.53-.71,1.44,1.45,2.71,2.16,1.26,1.38-2.81,3-5.51,4.64-8.18C359.53,342.42,366.45,326.16,365.14,311.45Zm-18.35,32c3.16-5,6.28-10,8.31-15.64.54-1.52-1.87-2.17-2.41-.67-2.15,6-5.6,11.24-9,16.56.27-6.09,1.33-12,4.32-17.47,3.24-5.89,8.84-9.85,14.73-12.82C363.22,325.49,358,338.4,346.79,343.43Z"/><path class="cls-3" d="M452.14,313.45a1.27,1.27,0,0,0-1.88-1.08c-7.09,3.33-13.3,7.79-17.39,14.58-3.85,6.39-4.67,14.2-4.73,21.5a1.15,1.15,0,0,0,.32.84c-1.3,2.13-2.55,4.29-3.65,6.53-.71,1.44,1.45,2.71,2.16,1.26,1.38-2.81,3-5.51,4.64-8.18C446.53,344.42,453.45,328.16,452.14,313.45Zm-18.35,32c3.16-5,6.28-10,8.31-15.64.54-1.52-1.87-2.17-2.41-.67-2.15,6-5.6,11.24-9,16.56.27-6.09,1.33-12,4.32-17.47,3.24-5.89,8.84-9.85,14.73-12.82C450.22,327.49,445,340.4,433.79,345.43Z"/><path class="cls-3" d="M428.14,440.45a1.27,1.27,0,0,0-1.88-1.08c-7.09,3.33-13.3,7.79-17.39,14.58-3.85,6.39-4.67,14.2-4.73,21.5a1.15,1.15,0,0,0,.32.84c-1.3,2.13-2.55,4.29-3.65,6.53-.71,1.44,1.45,2.71,2.16,1.26,1.38-2.81,3-5.51,4.64-8.18C422.53,471.42,429.45,455.16,428.14,440.45Zm-18.35,32c3.16-5,6.28-10,8.31-15.64.54-1.52-1.87-2.17-2.41-.67-2.15,6-5.6,11.24-9,16.56.27-6.09,1.33-12,4.32-17.47,3.24-5.89,8.84-9.85,14.73-12.82C426.22,454.49,421,467.4,409.79,472.43Z"/><path class="cls-3" d="M214.14,433.45a1.27,1.27,0,0,0-1.88-1.08c-7.09,3.33-13.3,7.79-17.39,14.58-3.85,6.39-4.67,14.2-4.73,21.5a1.15,1.15,0,0,0,.32.84c-1.3,2.13-2.55,4.29-3.65,6.53-.71,1.44,1.45,2.71,2.16,1.26,1.38-2.81,3-5.51,4.64-8.18C208.53,464.42,215.45,448.16,214.14,433.45Zm-18.35,32c3.16-5,6.28-10,8.31-15.64.54-1.52-1.87-2.17-2.41-.67-2.15,6-5.6,11.24-9,16.56.27-6.09,1.33-12,4.32-17.47,3.24-5.89,8.84-9.85,14.73-12.82C212.22,447.49,207,460.4,195.79,465.43Z"/><path class="cls-3" d="M62.14,304.45a1.27,1.27,0,0,0-1.88-1.08C53.17,306.7,47,311.16,42.87,318c-3.85,6.39-4.67,14.2-4.73,21.5a1.15,1.15,0,0,0,.32.84c-1.3,2.13-2.55,4.29-3.65,6.53-.71,1.44,1.45,2.71,2.16,1.26,1.38-2.81,3-5.51,4.64-8.18C56.53,335.42,63.45,319.16,62.14,304.45Zm-18.35,32c3.16-5,6.28-10,8.31-15.64.54-1.52-1.87-2.17-2.41-.67-2.15,6-5.6,11.24-9,16.56.27-6.09,1.33-12,4.32-17.47,3.24-5.89,8.84-9.85,14.73-12.82C60.22,318.49,55,331.4,43.79,336.43Z"/><path class="cls-3" d="M70.14,168.45a1.27,1.27,0,0,0-1.88-1.08C61.17,170.7,55,175.16,50.87,182c-3.85,6.39-4.67,14.2-4.73,21.5a1.15,1.15,0,0,0,.32.84c-1.3,2.13-2.55,4.29-3.65,6.53-.71,1.44,1.45,2.71,2.16,1.26,1.38-2.81,3-5.51,4.64-8.18C64.53,199.42,71.45,183.16,70.14,168.45Zm-18.35,32c3.16-5,6.28-10,8.31-15.64.54-1.52-1.87-2.17-2.41-.67-2.15,6-5.6,11.24-9,16.56.27-6.09,1.33-12,4.32-17.47,3.24-5.89,8.84-9.85,14.73-12.82C68.22,182.49,63,195.4,51.79,200.43Z"/><path class="cls-3" d="M171.14,52.45a1.27,1.27,0,0,0-1.88-1.08C162.17,54.7,156,59.16,151.87,66c-3.85,6.39-4.67,14.2-4.73,21.5a1.15,1.15,0,0,0,.32.84c-1.3,2.13-2.55,4.29-3.65,6.53-.71,1.44,1.45,2.71,2.16,1.26,1.38-2.81,3-5.51,4.64-8.18C165.53,83.42,172.45,67.16,171.14,52.45Zm-18.35,32c3.16-5,6.28-10,8.31-15.64.54-1.52-1.87-2.17-2.41-.67-2.15,6-5.6,11.24-9,16.56.27-6.09,1.33-12,4.32-17.47,3.24-5.89,8.84-9.85,14.73-12.82C169.22,66.49,164,79.4,152.79,84.43Z"/><path class="cls-3" d="M141.14-30.55a1.26,1.26,0,0,0-1.88-1.07C132.17-28.3,126-23.84,121.87-17c-3.85,6.39-4.67,14.2-4.73,21.5a1.15,1.15,0,0,0,.32.84c-1.3,2.13-2.55,4.29-3.65,6.53-.71,1.44,1.45,2.71,2.16,1.26,1.38-2.81,3-5.51,4.64-8.18C135.53.42,142.45-15.84,141.14-30.55Zm-18.35,32c3.16-5,6.28-10,8.31-15.64.54-1.52-1.87-2.17-2.41-.67-2.15,6-5.6,11.24-9,16.56.27-6.09,1.33-12,4.32-17.47,3.24-5.89,8.84-9.85,14.73-12.82C139.22-16.51,134-3.6,122.79,1.43Z"/><path class="cls-3" d="M50.14,64.45a1.27,1.27,0,0,0-1.88-1.08C41.17,66.7,35,71.16,30.87,78c-3.85,6.39-4.67,14.2-4.73,21.5a1.15,1.15,0,0,0,.32.84c-1.3,2.13-2.55,4.29-3.65,6.53-.71,1.44,1.45,2.71,2.16,1.26,1.38-2.81,3-5.51,4.64-8.18C44.53,95.42,51.45,79.16,50.14,64.45Zm-18.35,32c3.16-5,6.28-10,8.31-15.64.54-1.52-1.87-2.17-2.41-.67-2.15,6-5.6,11.24-9,16.56C29,90.59,30,84.65,33,79.21c3.24-5.89,8.84-9.85,14.73-12.82C48.22,78.49,43,91.4,31.79,96.43Z"/><path class="cls-3" d="M11.14,355.45a1.27,1.27,0,0,0-1.88-1.08C2.17,357.7-4,362.16-8.13,369c-3.85,6.39-4.67,14.2-4.73,21.5a1.15,1.15,0,0,0,.32.84c-1.3,2.13-2.55,4.29-3.65,6.53-.71,1.44,1.45,2.71,2.16,1.26,1.38-2.81,3-5.51,4.64-8.18C5.53,386.42,12.45,370.16,11.14,355.45Zm-18.35,32c3.16-5,6.28-10,8.31-15.64.54-1.52-1.87-2.17-2.41-.67-2.15,6-5.6,11.24-9,16.56.27-6.09,1.33-12,4.32-17.47,3.24-5.89,8.84-9.85,14.73-12.82C9.22,369.49,4,382.4-7.21,387.43Z"/><path class="cls-3" d="M62.14,438.45a1.27,1.27,0,0,0-1.88-1.08C53.17,440.7,47,445.16,42.87,452c-3.85,6.39-4.67,14.2-4.73,21.5a1.15,1.15,0,0,0,.32.84c-1.3,2.13-2.55,4.29-3.65,6.53-.71,1.44,1.45,2.71,2.16,1.26,1.38-2.81,3-5.51,4.64-8.18C56.53,469.42,63.45,453.16,62.14,438.45Zm-18.35,32c3.16-5,6.28-10,8.31-15.64.54-1.52-1.87-2.17-2.41-.67-2.15,6-5.6,11.24-9,16.56.27-6.09,1.33-12,4.32-17.47,3.24-5.89,8.84-9.85,14.73-12.82C60.22,452.49,55,465.4,43.79,470.43Z"/><path class="cls-3" d="M310.14,233.45a1.27,1.27,0,0,0-1.88-1.08c-7.09,3.33-13.3,7.79-17.39,14.58-3.85,6.39-4.67,14.2-4.73,21.5a1.15,1.15,0,0,0,.32.84c-1.3,2.13-2.55,4.29-3.65,6.53-.71,1.44,1.45,2.71,2.16,1.26,1.38-2.81,3-5.51,4.64-8.18C304.53,264.42,311.45,248.16,310.14,233.45Zm-18.35,32c3.16-5,6.28-10,8.31-15.64.54-1.52-1.87-2.17-2.41-.67-2.15,6-5.6,11.24-9,16.56.27-6.09,1.33-12,4.32-17.47,3.24-5.89,8.84-9.85,14.73-12.82C308.22,247.49,303,260.4,291.79,265.43Z"/><path class="cls-3" d="M312.14,54.45a1.27,1.27,0,0,0-1.88-1.08C303.17,56.7,297,61.16,292.87,68c-3.85,6.39-4.67,14.2-4.73,21.5a1.15,1.15,0,0,0,.32.84c-1.3,2.13-2.55,4.29-3.65,6.53-.71,1.44,1.45,2.71,2.16,1.26,1.38-2.81,3-5.51,4.64-8.18C306.53,85.42,313.45,69.16,312.14,54.45Zm-18.35,32c3.16-5,6.28-10,8.31-15.64.54-1.52-1.87-2.17-2.41-.67-2.15,6-5.6,11.24-9,16.56.27-6.09,1.33-12,4.32-17.47,3.24-5.89,8.84-9.85,14.73-12.82C310.22,68.49,305,81.4,293.79,86.43Z"/><path class="cls-3" d="M35,22.67c-15.33,5.89-36.42,4.46-46.26,20A18.67,18.67,0,0,0-12.5,60.43c2.37,4.86,7.43,6.05,12.24,5.28A85.28,85.28,0,0,0-5.12,81.55c-.29,1.41,1.87,2,2.16.6A83.13,83.13,0,0,1,2.26,65.54a1.14,1.14,0,0,0,.29.29c26.56,18.7,27-27.58,33.71-41.52C36.64,23.52,36,22.28,35,22.67ZM19.39,66C14.58,70.33,8.13,67,3.68,63.9a1,1,0,0,0-.42-.18.81.81,0,0,0-.07-.22A68.88,68.88,0,0,1,21.78,39.73c1.11-.92-.48-2.49-1.58-1.58A70.61,70.61,0,0,0,.84,63.2c-6.14,1.55-11.24-.83-12.61-7.55s2.56-13.29,7.52-17.5C6,29.48,20.9,29.67,33.26,25.64c-3.35,8.43-4,18.09-6.63,26.72C25.16,57.22,23.24,62.46,19.39,66Z"/></pattern></defs><title>nature_patterns</title><g id="Layer_1" data-name="Layer 1"><rect class="cls-5" width="429.3" height="260.37"/></g></svg>