<svg id="Capa_1" data-name="Capa 1" xmlns="http://www.w3.org/2000/svg" xmlns:xlink="http://www.w3.org/1999/xlink" viewBox="0 0 448.03 436.27">
  <defs>
    <style>
      .cls-1 {
        fill: none;
      }

      .cls-2 {
        fill: url(#Dégradé_sans_nom_19);
      }

      .cls-3 {
        fill: url(#Dégradé_sans_nom_19-2);
      }

      .cls-4 {
        fill: #fff;
      }

      .cls-5 {
        fill: url(#Dégradé_sans_nom_19-3);
      }

      .cls-6 {
        fill: url(#Dégradé_sans_nom_19-4);
      }

      .cls-7 {
        fill: url(#Dégradé_sans_nom_19-5);
      }

      .cls-8 {
        fill: url(#Dégradé_sans_nom_19-6);
      }

      .cls-9 {
        fill: url(#Dégradé_sans_nom_19-7);
      }

      .cls-10 {
        fill: url(#Dégradé_sans_nom_19-8);
      }

      .cls-11 {
        fill: url(#Dégradé_sans_nom_19-9);
      }

      .cls-12 {
        fill: url(#Dégradé_sans_nom_19-10);
      }

      .cls-13 {
        fill: url(#Dégradé_sans_nom_19-11);
      }

      .cls-14 {
        fill: url(#Dégradé_sans_nom_19-12);
      }

      .cls-15 {
        fill: url(#Dégradé_sans_nom_19-13);
      }

      .cls-16 {
        fill: url(#Dégradé_sans_nom_19-14);
      }

      .cls-17 {
        fill: url(#Dégradé_sans_nom_19-15);
      }

      .cls-18 {
        fill: url(#Dégradé_sans_nom_19-16);
      }

      .cls-19 {
        fill: url(#Dégradé_sans_nom_19-17);
      }

      .cls-20 {
        fill: url(#Dégradé_sans_nom_19-18);
      }

      .cls-21 {
        fill: url(#Dégradé_sans_nom_19-19);
      }

      .cls-22 {
        fill: url(#Dégradé_sans_nom_19-20);
      }

      .cls-23 {
        fill: url(#Dégradé_sans_nom_19-21);
      }

      .cls-24 {
        fill: url(#Dégradé_sans_nom_19-22);
      }

      .cls-25 {
        fill: url(#Dégradé_sans_nom_19-23);
      }

      .cls-26 {
        fill: url(#Dégradé_sans_nom_19-24);
      }

      .cls-27 {
        fill: url(#Dégradé_sans_nom_19-25);
      }

      .cls-28 {
        fill: url(#Dégradé_sans_nom_19-26);
      }

      .cls-29 {
        fill: url(#Dégradé_sans_nom_19-27);
      }

      .cls-30 {
        fill: url(#Dégradé_sans_nom_19-28);
      }

      .cls-31 {
        fill: url(#Dégradé_sans_nom_19-29);
      }

      .cls-32 {
        fill: url(#Dégradé_sans_nom_19-30);
      }

      .cls-33 {
        fill: url(#Dégradé_sans_nom_19-31);
      }

      .cls-34 {
        fill: url(#Dégradé_sans_nom_19-32);
      }

      .cls-35 {
        fill: url(#Dégradé_sans_nom_19-33);
      }

      .cls-36 {
        fill: url(#Dégradé_sans_nom_19-34);
      }

      .cls-37 {
        fill: url(#Dégradé_sans_nom_19-35);
      }

      .cls-38 {
        fill: url(#Dégradé_sans_nom_19-36);
      }

      .cls-39 {
        fill: url(#Dégradé_sans_nom_19-37);
      }

      .cls-40 {
        fill: url(#Dégradé_sans_nom_19-38);
      }

      .cls-41 {
        fill: url(#Dégradé_sans_nom_19-39);
      }

      .cls-42 {
        fill: url(#Dégradé_sans_nom_19-40);
      }

      .cls-43 {
        fill: url(#Dégradé_sans_nom_19-41);
      }

      .cls-44 {
        fill: url(#Dégradé_sans_nom_19-42);
      }

      .cls-45 {
        fill: url(#Dégradé_sans_nom_19-43);
      }

      .cls-46 {
        fill: url(#Dégradé_sans_nom_19-44);
      }

      .cls-47 {
        fill: url(#Dégradé_sans_nom_19-45);
      }

      .cls-48 {
        fill: url(#Dégradé_sans_nom_19-46);
      }

      .cls-49 {
        fill: url(#Dégradé_sans_nom_19-47);
      }

      .cls-50 {
        fill: url(#Dégradé_sans_nom_19-48);
      }

      .cls-51 {
        fill: url(#Dégradé_sans_nom_19-49);
      }
    </style>
    <linearGradient id="Dégradé_sans_nom_19" data-name="Dégradé sans nom 19" x1="41.07" y1="335.44" x2="437.7" y2="335.44" gradientUnits="userSpaceOnUse">
      <stop offset="0" stop-color="#c8f9dd"/>
      <stop offset="0.24" stop-color="#cff2de"/>
      <stop offset="0.59" stop-color="#e1e0e1"/>
      <stop offset="0.92" stop-color="#f9c8e4"/>
    </linearGradient>
    <linearGradient id="Dégradé_sans_nom_19-2" x1="41.07" y1="232.61" x2="437.7" y2="232.61" xlink:href="#Dégradé_sans_nom_19"/>
    <linearGradient id="Dégradé_sans_nom_19-3" x1="0" y1="306.97" x2="396.63" y2="306.97" xlink:href="#Dégradé_sans_nom_19"/>
    <linearGradient id="Dégradé_sans_nom_19-4" x1="41.07" y1="330.65" x2="437.7" y2="330.65" xlink:href="#Dégradé_sans_nom_19"/>
    <linearGradient id="Dégradé_sans_nom_19-5" x1="41.07" y1="340.05" x2="437.7" y2="340.05" xlink:href="#Dégradé_sans_nom_19"/>
    <linearGradient id="Dégradé_sans_nom_19-6" x1="41.07" y1="335.85" x2="437.7" y2="335.85" xlink:href="#Dégradé_sans_nom_19"/>
    <linearGradient id="Dégradé_sans_nom_19-7" x1="41.07" y1="446.25" x2="437.7" y2="446.25" xlink:href="#Dégradé_sans_nom_19"/>
    <linearGradient id="Dégradé_sans_nom_19-8" x1="41.07" y1="441.32" x2="437.7" y2="441.32" xlink:href="#Dégradé_sans_nom_19"/>
    <linearGradient id="Dégradé_sans_nom_19-9" x1="41.07" y1="439.66" x2="437.7" y2="439.66" xlink:href="#Dégradé_sans_nom_19"/>
    <linearGradient id="Dégradé_sans_nom_19-10" x1="41.07" y1="443.57" x2="437.7" y2="443.57" xlink:href="#Dégradé_sans_nom_19"/>
    <linearGradient id="Dégradé_sans_nom_19-11" x1="41.07" y1="442.86" x2="437.7" y2="442.86" xlink:href="#Dégradé_sans_nom_19"/>
    <linearGradient id="Dégradé_sans_nom_19-12" x1="41.07" y1="442.11" x2="437.7" y2="442.11" xlink:href="#Dégradé_sans_nom_19"/>
    <linearGradient id="Dégradé_sans_nom_19-13" x1="41.07" y1="444.22" x2="437.7" y2="444.22" xlink:href="#Dégradé_sans_nom_19"/>
    <linearGradient id="Dégradé_sans_nom_19-14" x1="41.07" y1="445.35" x2="437.7" y2="445.35" xlink:href="#Dégradé_sans_nom_19"/>
    <linearGradient id="Dégradé_sans_nom_19-15" x1="41.07" y1="444.8" x2="437.7" y2="444.8" xlink:href="#Dégradé_sans_nom_19"/>
    <linearGradient id="Dégradé_sans_nom_19-16" x1="41.07" y1="445.82" x2="437.7" y2="445.82" xlink:href="#Dégradé_sans_nom_19"/>
    <linearGradient id="Dégradé_sans_nom_19-17" x1="41.07" y1="440.51" x2="437.7" y2="440.51" xlink:href="#Dégradé_sans_nom_19"/>
    <linearGradient id="Dégradé_sans_nom_19-18" x1="41.07" y1="438.79" x2="221.74" y2="438.79" xlink:href="#Dégradé_sans_nom_19"/>
    <linearGradient id="Dégradé_sans_nom_19-19" x1="41.07" y1="446.88" x2="437.7" y2="446.88" xlink:href="#Dégradé_sans_nom_19"/>
    <linearGradient id="Dégradé_sans_nom_19-20" x1="41.07" y1="442.01" x2="437.7" y2="442.01" xlink:href="#Dégradé_sans_nom_19"/>
    <linearGradient id="Dégradé_sans_nom_19-21" x1="41.07" y1="440.39" x2="437.7" y2="440.39" xlink:href="#Dégradé_sans_nom_19"/>
    <linearGradient id="Dégradé_sans_nom_19-22" x1="41.07" y1="441.22" x2="437.7" y2="441.22" xlink:href="#Dégradé_sans_nom_19"/>
    <linearGradient id="Dégradé_sans_nom_19-23" x1="41.07" y1="444.09" x2="437.7" y2="444.09" xlink:href="#Dégradé_sans_nom_19"/>
    <linearGradient id="Dégradé_sans_nom_19-24" x1="41.07" y1="443.45" x2="437.7" y2="443.45" xlink:href="#Dégradé_sans_nom_19"/>
    <linearGradient id="Dégradé_sans_nom_19-25" x1="41.07" y1="442.76" x2="437.7" y2="442.76" xlink:href="#Dégradé_sans_nom_19"/>
    <linearGradient id="Dégradé_sans_nom_19-26" x1="0" y1="250.92" x2="396.63" y2="250.92" xlink:href="#Dégradé_sans_nom_19"/>
    <linearGradient id="Dégradé_sans_nom_19-27" x1="0" y1="217.44" x2="396.63" y2="217.44" xlink:href="#Dégradé_sans_nom_19"/>
    <linearGradient id="Dégradé_sans_nom_19-28" x1="41.07" y1="438.67" x2="154.4" y2="438.67" xlink:href="#Dégradé_sans_nom_19"/>
    <linearGradient id="Dégradé_sans_nom_19-29" x1="41.07" y1="439.53" x2="341.85" y2="439.53" xlink:href="#Dégradé_sans_nom_19"/>
    <linearGradient id="Dégradé_sans_nom_19-30" x1="41.07" y1="447.05" x2="437.7" y2="447.05" xlink:href="#Dégradé_sans_nom_19"/>
    <linearGradient id="Dégradé_sans_nom_19-31" x1="41.07" y1="446.81" x2="437.7" y2="446.81" xlink:href="#Dégradé_sans_nom_19"/>
    <linearGradient id="Dégradé_sans_nom_19-32" x1="41.07" y1="447.02" x2="437.7" y2="447.02" xlink:href="#Dégradé_sans_nom_19"/>
    <linearGradient id="Dégradé_sans_nom_19-33" x1="41.07" y1="444.71" x2="437.7" y2="444.71" xlink:href="#Dégradé_sans_nom_19"/>
    <linearGradient id="Dégradé_sans_nom_19-34" x1="41.07" y1="447.15" x2="437.7" y2="447.15" xlink:href="#Dégradé_sans_nom_19"/>
    <linearGradient id="Dégradé_sans_nom_19-35" x1="41.07" y1="446.59" x2="437.7" y2="446.59" xlink:href="#Dégradé_sans_nom_19"/>
    <linearGradient id="Dégradé_sans_nom_19-36" x1="41.07" y1="447.15" x2="437.7" y2="447.15" xlink:href="#Dégradé_sans_nom_19"/>
    <linearGradient id="Dégradé_sans_nom_19-37" x1="41.07" y1="445.28" x2="437.7" y2="445.28" xlink:href="#Dégradé_sans_nom_19"/>
    <linearGradient id="Dégradé_sans_nom_19-38" x1="41.07" y1="445.77" x2="437.7" y2="445.77" xlink:href="#Dégradé_sans_nom_19"/>
    <linearGradient id="Dégradé_sans_nom_19-39" x1="41.07" y1="446.17" x2="437.7" y2="446.17" xlink:href="#Dégradé_sans_nom_19"/>
    <linearGradient id="Dégradé_sans_nom_19-40" x1="41.07" y1="446.53" x2="437.7" y2="446.53" xlink:href="#Dégradé_sans_nom_19"/>
    <linearGradient id="Dégradé_sans_nom_19-41" x1="142.33" y1="160.54" x2="489.1" y2="160.54" xlink:href="#Dégradé_sans_nom_19"/>
    <linearGradient id="Dégradé_sans_nom_19-42" x1="142.33" y1="228.77" x2="489.1" y2="228.77" xlink:href="#Dégradé_sans_nom_19"/>
    <linearGradient id="Dégradé_sans_nom_19-43" x1="142.33" y1="233.27" x2="489.1" y2="233.27" xlink:href="#Dégradé_sans_nom_19"/>
    <linearGradient id="Dégradé_sans_nom_19-44" x1="41.07" y1="295.46" x2="437.7" y2="295.46" xlink:href="#Dégradé_sans_nom_19"/>
    <linearGradient id="Dégradé_sans_nom_19-45" x1="41.07" y1="215.64" x2="437.7" y2="215.64" xlink:href="#Dégradé_sans_nom_19"/>
    <linearGradient id="Dégradé_sans_nom_19-46" x1="142.33" y1="215.64" x2="489.1" y2="215.64" xlink:href="#Dégradé_sans_nom_19"/>
    <linearGradient id="Dégradé_sans_nom_19-47" x1="41.07" y1="239.88" x2="437.7" y2="239.88" xlink:href="#Dégradé_sans_nom_19"/>
    <linearGradient id="Dégradé_sans_nom_19-48" x1="0" y1="207.57" x2="184.08" y2="207.57" xlink:href="#Dégradé_sans_nom_19"/>
    <linearGradient id="Dégradé_sans_nom_19-49" x1="101.26" y1="207.57" x2="285.34" y2="207.57" xlink:href="#Dégradé_sans_nom_19"/>
  </defs>
  <title>stationary-bike</title>
  <g>
    <path class="cls-1" d="M111.34,443.35a4.25,4.25,0,0,1-.27-.46A4.25,4.25,0,0,0,111.34,443.35Z" transform="translate(-41.07 -28.68)"/>
    <path class="cls-1" d="M110.91,442.64c-.09-.16-.16-.33-.24-.5C110.75,442.31,110.82,442.48,110.91,442.64Z" transform="translate(-41.07 -28.68)"/>
    <path class="cls-1" d="M143.49,442.3c-.07.13-.12.26-.19.38C143.37,442.56,143.42,442.43,143.49,442.3Z" transform="translate(-41.07 -28.68)"/>
    <path class="cls-1" d="M110.55,441.88c-.07-.17-.13-.35-.19-.53C110.42,441.53,110.48,441.71,110.55,441.88Z" transform="translate(-41.07 -28.68)"/>
    <path class="cls-1" d="M112.39,444.63a6.14,6.14,0,0,1-.42-.47A6.14,6.14,0,0,0,112.39,444.63Z" transform="translate(-41.07 -28.68)"/>
    <path class="cls-1" d="M111.83,444c-.12-.14-.23-.3-.34-.45C111.6,443.71,111.71,443.87,111.83,444Z" transform="translate(-41.07 -28.68)"/>
    <path class="cls-1" d="M143.08,443c-.08.12-.14.24-.22.35C142.94,443.28,143,443.16,143.08,443Z" transform="translate(-41.07 -28.68)"/>
    <path class="cls-1" d="M144.07,440.71c0,.14-.07.29-.12.43C144,441,144,440.85,144.07,440.71Z" transform="translate(-41.07 -28.68)"/>
    <path class="cls-1" d="M109.92,439.41a5.82,5.82,0,0,1,0-.59A5.82,5.82,0,0,0,109.92,439.41Z" transform="translate(-41.07 -28.68)"/>
    <path class="cls-1" d="M142.59,443.75l-.22.3Z" transform="translate(-41.07 -28.68)"/>
    <path class="cls-1" d="M110.26,441.09c-.05-.18-.1-.37-.14-.56C110.16,440.72,110.21,440.91,110.26,441.09Z" transform="translate(-41.07 -28.68)"/>
    <path class="cls-1" d="M109.88,438.5v0h0l.13-51.7Z" transform="translate(-41.07 -28.68)"/>
    <path class="cls-1" d="M143.82,441.5c0,.14-.1.29-.16.43C143.72,441.79,143.77,441.64,143.82,441.5Z" transform="translate(-41.07 -28.68)"/>
    <path class="cls-1" d="M139.36,446.36c-.1,0-.19.1-.3.14C139.17,446.46,139.26,446.4,139.36,446.36Z" transform="translate(-41.07 -28.68)"/>
    <path class="cls-1" d="M110.05,440.26c0-.2-.06-.4-.09-.6C110,439.86,110,440.06,110.05,440.26Z" transform="translate(-41.07 -28.68)"/>
    <path class="cls-1" d="M116.74,447l-.54-.14Z" transform="translate(-41.07 -28.68)"/>
    <path class="cls-1" d="M140.16,445.93a3.87,3.87,0,0,1-.34.21A3.87,3.87,0,0,0,140.16,445.93Z" transform="translate(-41.07 -28.68)"/>
    <path class="cls-1" d="M113,445.18c-.15-.12-.28-.25-.42-.38C112.72,444.93,112.85,445.06,113,445.18Z" transform="translate(-41.07 -28.68)"/>
    <path class="cls-1" d="M117.59,447.12l-.48-.07Z" transform="translate(-41.07 -28.68)"/>
    <path class="cls-1" d="M136.81,447.09l-.22,0Z" transform="translate(-41.07 -28.68)"/>
    <path class="cls-1" d="M138.56,446.68l-.29.11Z" transform="translate(-41.07 -28.68)"/>
    <path class="cls-1" d="M137.57,447l-.12,0Z" transform="translate(-41.07 -28.68)"/>
    <path class="cls-1" d="M140.83,445.49l-.3.22Z" transform="translate(-41.07 -28.68)"/>
    <path class="cls-1" d="M142.06,444.38a3.33,3.33,0,0,1-.25.28A3.33,3.33,0,0,0,142.06,444.38Z" transform="translate(-41.07 -28.68)"/>
    <path class="cls-1" d="M114.37,446.12c-.15-.08-.29-.18-.43-.26C114.08,445.94,114.22,446,114.37,446.12Z" transform="translate(-41.07 -28.68)"/>
    <path class="cls-1" d="M113.66,445.68c-.14-.09-.27-.2-.4-.3C113.39,445.48,113.52,445.59,113.66,445.68Z" transform="translate(-41.07 -28.68)"/>
    <path class="cls-1" d="M115.91,446.77c-.18,0-.35-.13-.53-.19C115.56,446.64,115.73,446.72,115.91,446.77Z" transform="translate(-41.07 -28.68)"/>
    <path class="cls-1" d="M141.5,444.94l-.31.28Z" transform="translate(-41.07 -28.68)"/>
    <path class="cls-1" d="M115.12,446.48c-.17-.07-.34-.16-.51-.25C114.78,446.32,115,446.41,115.12,446.48Z" transform="translate(-41.07 -28.68)"/>
    <path class="cls-1" d="M144.24,439.86c0,.15,0,.31-.07.46C144.2,440.17,144.22,440,144.24,439.86Z" transform="translate(-41.07 -28.68)"/>
    <path class="cls-1" d="M334.46,232.25,333.94,439h0l.52-206.73a8.65,8.65,0,0,1,8.64-8.6h17.24a8.63,8.63,0,0,1,8.6,8.64v-.05a8.63,8.63,0,0,0-8.6-8.64H343.1A8.65,8.65,0,0,0,334.46,232.25Z" transform="translate(-41.07 -28.68)"/>
    <path class="cls-1" d="M188.89,292.24A77.43,77.43,0,0,1,162,272.74l0,19.43Z" transform="translate(-41.07 -28.68)"/>
    <path class="cls-1" d="M236.66,158.28l-8.74,52.54,48.92-21.16A65.06,65.06,0,0,0,236.66,158.28Z" transform="translate(-41.07 -28.68)"/>
    <polygon class="cls-1" points="275.96 281.11 275.96 281.08 120.84 280.69 120.71 332.39 120.73 332.39 120.87 280.71 275.96 281.11"/>
    <path class="cls-1" d="M394.37,396.18h9.14l-9.12,0a8.64,8.64,0,0,1-8.6-8.65l.27-103.41a8.56,8.56,0,0,1,1.49-4.81,8.57,8.57,0,0,0-1.51,4.84l-.27,103.41A8.63,8.63,0,0,0,394.37,396.18Z" transform="translate(-41.07 -28.68)"/>
    <path class="cls-1" d="M317.23,232.25a26,26,0,0,1,1.36-8.19l-4.54,2a6.26,6.26,0,0,1-5-11.48l3.77-1.62-2.67-24.11-16.81,7.32a77.58,77.58,0,0,1-42.81,96.26l66.55.17Z" transform="translate(-41.07 -28.68)"/>
    <path class="cls-1" d="M84.47,274.7l-17.23-.05h0l17.2.05a8.63,8.63,0,0,1,8.6,8.64l-.27,103.41a8.63,8.63,0,0,1-8.64,8.55H66.9a8.63,8.63,0,0,1-8.6-8.64v.06a8.63,8.63,0,0,0,8.63,8.63H84.16a8.63,8.63,0,0,0,8.64-8.6l.27-103.41A8.63,8.63,0,0,0,84.47,274.7Z" transform="translate(-41.07 -28.68)"/>
    <path class="cls-1" d="M457.46,92a65.07,65.07,0,0,0-92,.26l50.09,41h0a6.26,6.26,0,0,1,.86,8.8,6.13,6.13,0,0,1-2.35,1.77,6.24,6.24,0,0,1-6.45-.9l-50.07-41A65.06,65.06,0,1,0,457.46,92Z" transform="translate(-41.07 -28.68)"/>
    <path class="cls-1" d="M238.72,145.82a77.54,77.54,0,0,1,49.64,38.85L303.58,178l-61.73-51Z" transform="translate(-41.07 -28.68)"/>
    <polygon class="cls-1" points="269.99 139.37 284.11 55.42 208.17 88.27 269.99 139.37"/>
    <path class="cls-1" d="M162.06,251.12a65.11,65.11,0,0,0,119.74-50l-59.45,25.71a6.24,6.24,0,0,1-8.64-6.76l10.62-63.87a65.11,65.11,0,0,0-69.23,57.92h0a25.8,25.8,0,0,1,7,17.74Z" transform="translate(-41.07 -28.68)"/>
    <polygon class="cls-1" points="103.28 409.9 103.59 289.77 103.28 409.9 103.28 409.9"/>
    <polygon class="cls-1" points="69.26 231.84 69.2 254.73 68.94 358.14 69.2 254.74 69.26 231.84"/>
    <path class="cls-1" d="M144.33,439c0,.15,0,.31,0,.46C144.32,439.31,144.32,439.15,144.33,439Z" transform="translate(-41.07 -28.68)"/>
    <path class="cls-1" d="M119.05,223.12h17.23a8.58,8.58,0,0,1,6.2,2.68h0a8.58,8.58,0,0,0-6.2-2.68H119.05a8.63,8.63,0,0,0-8.64,8.6h0A8.63,8.63,0,0,1,119.05,223.12Z" transform="translate(-41.07 -28.68)"/>
    <path class="cls-2" d="M334.69,217.09l-16.1,7a26,26,0,0,0-1.36,8.19l-.15,60.32-66.55-.17h0a77.82,77.82,0,0,1-61.64-.16h0L162,292.17l0-19.43h0a77.5,77.5,0,0,1-17.15-32l-.2,77.72-.31,120.13h0c0,.14,0,.27,0,.41s0,.31,0,.46,0,.27-.06.4,0,.31-.07.46-.07.26-.1.39-.07.29-.12.43a2.6,2.6,0,0,1-.13.36c0,.14-.1.29-.16.43s-.12.24-.17.37-.12.26-.19.38-.15.24-.22.36-.14.24-.22.35-.18.24-.27.36l-.22.3c-.1.12-.21.22-.31.33a3.33,3.33,0,0,1-.25.28l-.31.28-.31.28-.36.27-.3.22-.37.22a3.87,3.87,0,0,1-.34.21l-.46.22c-.1,0-.19.1-.3.14a4.24,4.24,0,0,1-.5.18l-.29.11c-.23.07-.46.12-.7.18l-.12,0c-.21,0-.42.07-.64.09l-.22,0a8.51,8.51,0,0,1-.88,0H118.47a8.49,8.49,0,0,1-.88-.05l-.48-.07-.37-.06-.54-.14-.29-.08c-.18,0-.35-.13-.53-.19l-.26-.1c-.17-.07-.34-.16-.51-.25l-.24-.11c-.15-.08-.29-.18-.43-.26l-.28-.18c-.14-.09-.27-.2-.4-.3l-.26-.2c-.15-.12-.28-.25-.42-.38l-.19-.17a6.14,6.14,0,0,1-.42-.47l-.14-.15c-.12-.14-.23-.3-.34-.45l-.15-.21a4.25,4.25,0,0,1-.27-.46c-.06-.08-.11-.17-.16-.25s-.16-.33-.24-.5l-.12-.26c-.07-.17-.13-.35-.19-.53s-.07-.17-.1-.26-.1-.37-.14-.56-.05-.18-.07-.27-.06-.4-.09-.6,0-.17,0-.25a5.82,5.82,0,0,1,0-.59,2.83,2.83,0,0,1,0-.29h0v0l.13-51.68.26-103.41.06-22.89.08-28.8h0a8.63,8.63,0,0,1,8.64-8.6h17.23a8.58,8.58,0,0,1,6.2,2.68,79,79,0,0,1,.13-11.19,74.92,74.92,0,0,1,1-7.59,26,26,0,0,0-7.31-1.08H119.09a25.9,25.9,0,0,0-25.92,25.79l-.07,27.44a25.61,25.61,0,0,0-8.61-1.61H67.25a25.89,25.89,0,0,0-25.92,25.79l-.26,103.28a25.88,25.88,0,0,0,25.78,25.92H84.09A25.61,25.61,0,0,0,92.71,411l-.11,27.48a25.88,25.88,0,0,0,25.79,25.91l17.27.05a25.86,25.86,0,0,0,25.94-25.79l.16-60.32,155.11.4L316.72,439A25.89,25.89,0,0,0,342.51,465h17.23a25.88,25.88,0,0,0,25.86-25.74l.07-27.44a25.41,25.41,0,0,0,8.62,1.6l17.23.05a25.89,25.89,0,0,0,25.92-25.79l.26-103.41a25.88,25.88,0,0,0-25.78-25.92H394.68a25.38,25.38,0,0,0-8.58,1.52l.07-27.44a25.89,25.89,0,0,0-25.79-25.92H343.15a25.8,25.8,0,0,0-6.26.76,6.66,6.66,0,0,1,1,1.63A6.26,6.26,0,0,1,334.69,217.09ZM92.8,386.75a8.63,8.63,0,0,1-8.64,8.6H66.93a8.63,8.63,0,0,1-8.63-8.63v-.06l.27-103.41a8.63,8.63,0,0,1,8.64-8.6h0l17.23.05a8.63,8.63,0,0,1,8.6,8.64ZM316.92,361.5l-155.12-.41v0h0l.13-51.7,155.12.39v0h0ZM386,284.13a8.67,8.67,0,0,1,8.67-8.62l17.23,0a8.61,8.61,0,0,1,8.59,8.64l-.27,103.41a8.62,8.62,0,0,1-8.64,8.6l-8.11,0h-9.14a8.63,8.63,0,0,1-8.6-8.64Zm-25.7-60.48a8.63,8.63,0,0,1,8.6,8.64v.05h0L368.8,284l-.26,103.42-.13,51.7a8.63,8.63,0,0,1-8.64,8.6l-17.24-.05a8.62,8.62,0,0,1-8.59-8.59V439h0l.52-206.77a8.65,8.65,0,0,1,8.64-8.6Z" transform="translate(-41.07 -28.68)"/>
    <path class="cls-3" d="M162.06,251.12l.05-19.27a25.8,25.8,0,0,0-7-17.74l6.95,37Z" transform="translate(-41.07 -28.68)"/>
    <polygon class="cls-4" points="275.83 332.79 120.73 332.39 120.73 332.42 275.85 332.82 275.99 281.11 275.96 281.11 275.83 332.79"/>
    <polygon class="cls-5" points="275.83 332.79 120.73 332.39 120.73 332.42 275.85 332.82 275.99 281.11 275.96 281.11 275.83 332.79"/>
    <path class="cls-4" d="M67.24,274.65h0a8.63,8.63,0,0,0-8.64,8.6L58.3,386.66l.3-103.41A8.63,8.63,0,0,1,67.24,274.65Z" transform="translate(-41.07 -28.68)"/>
    <path class="cls-6" d="M67.24,274.65h0a8.63,8.63,0,0,0-8.64,8.6L58.3,386.66l.3-103.41A8.63,8.63,0,0,1,67.24,274.65Z" transform="translate(-41.07 -28.68)"/>
    <path class="cls-4" d="M368.54,387.41l-.13,51.7a8.64,8.64,0,0,1-8.64,8.6l-17.24,0a8.62,8.62,0,0,1-8.59-8.63v.09a8.62,8.62,0,0,0,8.59,8.59l17.24.05a8.63,8.63,0,0,0,8.64-8.6l.13-51.7L368.8,284l.14-51.7h0L368.8,284Z" transform="translate(-41.07 -28.68)"/>
    <path class="cls-7" d="M368.54,387.41l-.13,51.7a8.64,8.64,0,0,1-8.64,8.6l-17.24,0a8.62,8.62,0,0,1-8.59-8.63v.09a8.62,8.62,0,0,0,8.59,8.59l17.24.05a8.63,8.63,0,0,0,8.64-8.6l.13-51.7L368.8,284l.14-51.7h0L368.8,284Z" transform="translate(-41.07 -28.68)"/>
    <path class="cls-4" d="M394.68,275.53l17.23.05a8.64,8.64,0,0,1,8.6,8.6l-.27,103.41a8.62,8.62,0,0,1-8.64,8.59h-8.09l8.11,0a8.62,8.62,0,0,0,8.64-8.6l.27-103.41a8.61,8.61,0,0,0-8.59-8.64l-17.23,0a8.59,8.59,0,0,0-7.16,3.78A8.62,8.62,0,0,1,394.68,275.53Z" transform="translate(-41.07 -28.68)"/>
    <path class="cls-8" d="M394.68,275.53l17.23.05a8.64,8.64,0,0,1,8.6,8.6l-.27,103.41a8.62,8.62,0,0,1-8.64,8.59h-8.09l8.11,0a8.62,8.62,0,0,0,8.64-8.6l.27-103.41a8.61,8.61,0,0,0-8.59-8.64l-17.23,0a8.59,8.59,0,0,0-7.16,3.78A8.62,8.62,0,0,1,394.68,275.53Z" transform="translate(-41.07 -28.68)"/>
    <path class="cls-4" d="M139.82,446.14l-.46.22Z" transform="translate(-41.07 -28.68)"/>
    <path class="cls-9" d="M139.82,446.14l-.46.22Z" transform="translate(-41.07 -28.68)"/>
    <path class="cls-4" d="M144,441.14a2.6,2.6,0,0,1-.13.36A2.6,2.6,0,0,0,144,441.14Z" transform="translate(-41.07 -28.68)"/>
    <path class="cls-10" d="M144,441.14a2.6,2.6,0,0,1-.13.36A2.6,2.6,0,0,0,144,441.14Z" transform="translate(-41.07 -28.68)"/>
    <path class="cls-4" d="M144.3,439.46c0,.14,0,.27-.06.4C144.26,439.73,144.29,439.6,144.3,439.46Z" transform="translate(-41.07 -28.68)"/>
    <path class="cls-11" d="M144.3,439.46c0,.14,0,.27-.06.4C144.26,439.73,144.29,439.6,144.3,439.46Z" transform="translate(-41.07 -28.68)"/>
    <path class="cls-4" d="M142.86,443.39c-.08.13-.18.24-.27.36C142.68,443.63,142.78,443.52,142.86,443.39Z" transform="translate(-41.07 -28.68)"/>
    <path class="cls-12" d="M142.86,443.39c-.08.13-.18.24-.27.36C142.68,443.63,142.78,443.52,142.86,443.39Z" transform="translate(-41.07 -28.68)"/>
    <path class="cls-4" d="M143.3,442.68c-.07.13-.15.24-.22.36C143.15,442.92,143.23,442.81,143.3,442.68Z" transform="translate(-41.07 -28.68)"/>
    <path class="cls-13" d="M143.3,442.68c-.07.13-.15.24-.22.36C143.15,442.92,143.23,442.81,143.3,442.68Z" transform="translate(-41.07 -28.68)"/>
    <path class="cls-4" d="M143.66,441.93c0,.13-.12.24-.17.37C143.54,442.17,143.61,442.06,143.66,441.93Z" transform="translate(-41.07 -28.68)"/>
    <path class="cls-14" d="M143.66,441.93c0,.13-.12.24-.17.37C143.54,442.17,143.61,442.06,143.66,441.93Z" transform="translate(-41.07 -28.68)"/>
    <path class="cls-4" d="M142.37,444.05c-.1.12-.21.22-.31.33C142.16,444.27,142.27,444.17,142.37,444.05Z" transform="translate(-41.07 -28.68)"/>
    <path class="cls-15" d="M142.37,444.05c-.1.12-.21.22-.31.33C142.16,444.27,142.27,444.17,142.37,444.05Z" transform="translate(-41.07 -28.68)"/>
    <path class="cls-4" d="M141.19,445.22l-.36.27Z" transform="translate(-41.07 -28.68)"/>
    <path class="cls-16" d="M141.19,445.22l-.36.27Z" transform="translate(-41.07 -28.68)"/>
    <path class="cls-4" d="M141.81,444.66l-.31.28Z" transform="translate(-41.07 -28.68)"/>
    <path class="cls-17" d="M141.81,444.66l-.31.28Z" transform="translate(-41.07 -28.68)"/>
    <path class="cls-4" d="M140.53,445.71l-.37.22Z" transform="translate(-41.07 -28.68)"/>
    <path class="cls-18" d="M140.53,445.71l-.37.22Z" transform="translate(-41.07 -28.68)"/>
    <path class="cls-4" d="M144.17,440.32c0,.13-.07.26-.1.39C144.1,440.58,144.14,440.45,144.17,440.32Z" transform="translate(-41.07 -28.68)"/>
    <path class="cls-19" d="M144.17,440.32c0,.13-.07.26-.1.39C144.1,440.58,144.14,440.45,144.17,440.32Z" transform="translate(-41.07 -28.68)"/>
    <path class="cls-4" d="M144.35,438.59h0c0,.14,0,.28,0,.42C144.34,438.86,144.35,438.73,144.35,438.59Z" transform="translate(-41.07 -28.68)"/>
    <path class="cls-20" d="M144.35,438.59h0c0,.14,0,.28,0,.42C144.34,438.86,144.35,438.73,144.35,438.59Z" transform="translate(-41.07 -28.68)"/>
    <path class="cls-4" d="M138.27,446.79c-.23.07-.46.12-.7.18C137.81,446.91,138,446.86,138.27,446.79Z" transform="translate(-41.07 -28.68)"/>
    <path class="cls-21" d="M138.27,446.79c-.23.07-.46.12-.7.18C137.81,446.91,138,446.86,138.27,446.79Z" transform="translate(-41.07 -28.68)"/>
    <path class="cls-4" d="M110.67,442.14l-.12-.26Z" transform="translate(-41.07 -28.68)"/>
    <path class="cls-22" d="M110.67,442.14l-.12-.26Z" transform="translate(-41.07 -28.68)"/>
    <path class="cls-4" d="M110.12,440.53c0-.09-.05-.18-.07-.27C110.07,440.35,110.1,440.44,110.12,440.53Z" transform="translate(-41.07 -28.68)"/>
    <path class="cls-23" d="M110.12,440.53c0-.09-.05-.18-.07-.27C110.07,440.35,110.1,440.44,110.12,440.53Z" transform="translate(-41.07 -28.68)"/>
    <path class="cls-4" d="M110.36,441.35c0-.09-.07-.17-.1-.26C110.29,441.18,110.33,441.26,110.36,441.35Z" transform="translate(-41.07 -28.68)"/>
    <path class="cls-24" d="M110.36,441.35c0-.09-.07-.17-.1-.26C110.29,441.18,110.33,441.26,110.36,441.35Z" transform="translate(-41.07 -28.68)"/>
    <path class="cls-4" d="M112,444.16l-.14-.15Z" transform="translate(-41.07 -28.68)"/>
    <path class="cls-25" d="M112,444.16l-.14-.15Z" transform="translate(-41.07 -28.68)"/>
    <path class="cls-4" d="M111.49,443.56l-.15-.21Z" transform="translate(-41.07 -28.68)"/>
    <path class="cls-26" d="M111.49,443.56l-.15-.21Z" transform="translate(-41.07 -28.68)"/>
    <path class="cls-4" d="M111.07,442.89c-.06-.08-.11-.17-.16-.25C111,442.72,111,442.81,111.07,442.89Z" transform="translate(-41.07 -28.68)"/>
    <path class="cls-27" d="M111.07,442.89c-.06-.08-.11-.17-.16-.25C111,442.72,111,442.81,111.07,442.89Z" transform="translate(-41.07 -28.68)"/>
    <polygon class="cls-4" points="103.59 289.77 103.79 212.06 103.79 212.06 103.59 289.77"/>
    <polygon class="cls-28" points="103.59 289.77 103.79 212.06 103.79 212.06 103.59 289.77"/>
    <polygon class="cls-4" points="69.34 203.04 69.26 231.84 69.34 203.04 69.34 203.04"/>
    <polygon class="cls-29" points="69.34 203.04 69.26 231.84 69.34 203.04 69.34 203.04"/>
    <path class="cls-4" d="M109.88,438.53a2.83,2.83,0,0,0,0,.29c0-.1,0-.2,0-.3Z" transform="translate(-41.07 -28.68)"/>
    <path class="cls-30" d="M109.88,438.53a2.83,2.83,0,0,0,0,.29c0-.1,0-.2,0-.3Z" transform="translate(-41.07 -28.68)"/>
    <path class="cls-4" d="M110,439.66c0-.09,0-.17,0-.25C109.93,439.49,110,439.57,110,439.66Z" transform="translate(-41.07 -28.68)"/>
    <path class="cls-31" d="M110,439.66c0-.09,0-.17,0-.25C109.93,439.49,110,439.57,110,439.66Z" transform="translate(-41.07 -28.68)"/>
    <path class="cls-4" d="M137.45,447c-.21,0-.42.07-.64.09C137,447.07,137.24,447,137.45,447Z" transform="translate(-41.07 -28.68)"/>
    <path class="cls-32" d="M137.45,447c-.21,0-.42.07-.64.09C137,447.07,137.24,447,137.45,447Z" transform="translate(-41.07 -28.68)"/>
    <path class="cls-4" d="M116.2,446.85l-.29-.08Z" transform="translate(-41.07 -28.68)"/>
    <path class="cls-33" d="M116.2,446.85l-.29-.08Z" transform="translate(-41.07 -28.68)"/>
    <path class="cls-4" d="M117.11,447.05l-.37-.06Z" transform="translate(-41.07 -28.68)"/>
    <path class="cls-34" d="M117.11,447.05l-.37-.06Z" transform="translate(-41.07 -28.68)"/>
    <path class="cls-4" d="M112.58,444.8l-.19-.17Z" transform="translate(-41.07 -28.68)"/>
    <path class="cls-35" d="M112.58,444.8l-.19-.17Z" transform="translate(-41.07 -28.68)"/>
    <path class="cls-4" d="M136.59,447.13a8.51,8.51,0,0,1-.88,0A8.51,8.51,0,0,0,136.59,447.13Z" transform="translate(-41.07 -28.68)"/>
    <path class="cls-36" d="M136.59,447.13a8.51,8.51,0,0,1-.88,0A8.51,8.51,0,0,0,136.59,447.13Z" transform="translate(-41.07 -28.68)"/>
    <path class="cls-4" d="M139.06,446.5a4.24,4.24,0,0,1-.5.18A4.24,4.24,0,0,0,139.06,446.5Z" transform="translate(-41.07 -28.68)"/>
    <path class="cls-37" d="M139.06,446.5a4.24,4.24,0,0,1-.5.18A4.24,4.24,0,0,0,139.06,446.5Z" transform="translate(-41.07 -28.68)"/>
    <path class="cls-4" d="M118.47,447.17a8.49,8.49,0,0,1-.88-.05A8.49,8.49,0,0,0,118.47,447.17Z" transform="translate(-41.07 -28.68)"/>
    <path class="cls-38" d="M118.47,447.17a8.49,8.49,0,0,1-.88-.05A8.49,8.49,0,0,0,118.47,447.17Z" transform="translate(-41.07 -28.68)"/>
    <path class="cls-4" d="M113.26,445.38l-.26-.2Z" transform="translate(-41.07 -28.68)"/>
    <path class="cls-39" d="M113.26,445.38l-.26-.2Z" transform="translate(-41.07 -28.68)"/>
    <path class="cls-4" d="M113.94,445.86l-.28-.18Z" transform="translate(-41.07 -28.68)"/>
    <path class="cls-40" d="M113.94,445.86l-.28-.18Z" transform="translate(-41.07 -28.68)"/>
    <path class="cls-4" d="M114.61,446.23l-.24-.11Z" transform="translate(-41.07 -28.68)"/>
    <path class="cls-41" d="M114.61,446.23l-.24-.11Z" transform="translate(-41.07 -28.68)"/>
    <path class="cls-4" d="M115.38,446.58l-.26-.1Z" transform="translate(-41.07 -28.68)"/>
    <path class="cls-42" d="M115.38,446.58l-.26-.1Z" transform="translate(-41.07 -28.68)"/>
    <path class="cls-43" d="M455.72,74.39a77.55,77.55,0,0,0-75-7.43v0a77,77,0,0,0-25,17.35L318.6,53.82l28.21-12.21a6.06,6.06,0,1,1,4.79,11.14l-6,2.6a6.26,6.26,0,0,0,5,11.47l6-2.6a18.55,18.55,0,0,0-14.73-34L304.23,46.45A6.25,6.25,0,0,0,302.75,57l18.46,15.13L238.43,108,223,95.21l13.2-5.71a6.26,6.26,0,1,0-5-11.48L193.6,94.3a6.28,6.28,0,0,0,5,11.52l11.54-5,20.6,17-4.32,26a77.58,77.58,0,0,0-82.75,62.91,2.36,2.36,0,0,0,0,.28,26,26,0,0,1,11.48,7.1h0a65.11,65.11,0,0,1,69.23-57.92l-10.62,63.87a6.24,6.24,0,0,0,8.64,6.76l59.45-25.71a65.11,65.11,0,0,1-119.74,50L162,272.74a77.43,77.43,0,0,0,26.88,19.5l61.64.16a77.58,77.58,0,0,0,42.81-96.26l16.81-7.32,2.67,24.11-3.77,1.62a6.26,6.26,0,0,0,5,11.48l4.54-2a26,26,0,0,1,18.3-16.84,6.26,6.26,0,0,0-7.2-1.6l-4.88,2.11-3.08-27.82L337.6,85.58,347.82,94a77.54,77.54,0,1,0,107.9-19.57ZM227.92,210.82l8.74-52.54a65.06,65.06,0,0,1,40.18,31.38Zm60.44-26.15a77.54,77.54,0,0,0-49.64-38.85L241.85,127l61.73,51Zm22.7-16.62L249.24,117,325.18,84.1ZM457.72,184a65.06,65.06,0,0,1-100.19-82.09l50.07,41a6.24,6.24,0,0,0,6.45.9A6.13,6.13,0,0,0,416.4,142a6.26,6.26,0,0,0-.86-8.8h0l-50.09-41A65.07,65.07,0,0,1,457.72,184Z" transform="translate(-41.07 -28.68)"/>
    <path class="cls-44" d="M144.88,231.76h0a8.61,8.61,0,0,0-2.4-6h0A8.61,8.61,0,0,1,144.88,231.76Z" transform="translate(-41.07 -28.68)"/>
    <path class="cls-4" d="M144.86,240.73l0-9a8.61,8.61,0,0,0-2.4-6A77.5,77.5,0,0,0,144.86,240.73Z" transform="translate(-41.07 -28.68)"/>
    <path class="cls-45" d="M144.86,240.73l0-9a8.61,8.61,0,0,0-2.4-6A77.5,77.5,0,0,0,144.86,240.73Z" transform="translate(-41.07 -28.68)"/>
    <path class="cls-46" d="M213.38,298.41a77.22,77.22,0,0,0,37.15-6h0l-61.64-.16h0A77.45,77.45,0,0,0,213.38,298.41Z" transform="translate(-41.07 -28.68)"/>
    <path class="cls-47" d="M318.59,224.06l16.1-7a6.26,6.26,0,0,0,3.24-8.24,6.66,6.66,0,0,0-1-1.63A26,26,0,0,0,318.59,224.06Z" transform="translate(-41.07 -28.68)"/>
    <path class="cls-48" d="M318.59,224.06l16.1-7a6.26,6.26,0,0,0,3.24-8.24,6.66,6.66,0,0,0-1-1.63A26,26,0,0,0,318.59,224.06Z" transform="translate(-41.07 -28.68)"/>
    <path class="cls-49" d="M142.48,225.79a8.61,8.61,0,0,1,2.4,6h0l0,9a77.5,77.5,0,0,0,17.15,32h0l.05-21.62h0l-6.95-37a26,26,0,0,0-11.48-7.1,74.92,74.92,0,0,0-1,7.59A79,79,0,0,0,142.48,225.79Z" transform="translate(-41.07 -28.68)"/>
    <polygon class="cls-4" points="103.81 203.08 103.79 212.06 103.79 212.06 103.81 203.08 103.81 203.08"/>
    <polygon class="cls-50" points="103.81 203.08 103.79 212.06 103.79 212.06 103.81 203.08 103.81 203.08"/>
    <polygon class="cls-51" points="103.81 203.08 103.79 212.06 103.79 212.06 103.81 203.08 103.81 203.08"/>
  </g>
</svg>
