<?xml version="1.0" encoding="utf-8"?>
<!-- Generator: Adobe Illustrator 23.0.6, SVG Export Plug-In . SVG Version: 6.00 Build 0)  -->
<svg version="1.1" id="Capa_1" xmlns="http://www.w3.org/2000/svg" xmlns:xlink="http://www.w3.org/1999/xlink" x="0px" y="0px"
	 viewBox="0 0 448 436.3" style="enable-background:new 0 0 448 436.3;" xml:space="preserve">
<style type="text/css">
	.st0{fill:#FFFFFF;}
</style>
<title>stationary-bike</title>
<g>
	<path class="st0" d="M70.3,414.7c-0.1-0.1-0.2-0.3-0.3-0.5C70.1,414.4,70.2,414.5,70.3,414.7z"/>
	<path class="st0" d="M69.8,414c-0.1-0.2-0.2-0.3-0.2-0.5C69.7,413.6,69.8,413.8,69.8,414z"/>
	<path class="st0" d="M102.4,413.6c-0.1,0.1-0.1,0.3-0.2,0.4C102.3,413.9,102.3,413.8,102.4,413.6z"/>
	<path class="st0" d="M69.5,413.2c-0.1-0.2-0.1-0.4-0.2-0.5C69.3,412.9,69.4,413,69.5,413.2z"/>
	<path class="st0" d="M71.3,416c-0.1-0.1-0.3-0.3-0.4-0.5C71,415.6,71.2,415.8,71.3,416z"/>
	<path class="st0" d="M70.8,415.3c-0.1-0.1-0.2-0.3-0.3-0.5C70.5,415,70.6,415.2,70.8,415.3z"/>
	<path class="st0" d="M102,414.3c-0.1,0.1-0.1,0.2-0.2,0.4C101.9,414.6,101.9,414.5,102,414.3z"/>
	<path class="st0" d="M103,412c0,0.1-0.1,0.3-0.1,0.4C102.9,412.3,102.9,412.2,103,412z"/>
	<path class="st0" d="M68.8,410.7c0-0.2,0-0.4,0-0.6C68.8,410.3,68.8,410.5,68.8,410.7z"/>
	<path class="st0" d="M101.5,415.1l-0.2,0.3L101.5,415.1z"/>
	<path class="st0" d="M69.2,412.4c-0.1-0.2-0.1-0.4-0.1-0.6C69.1,412,69.1,412.2,69.2,412.4z"/>
	<path class="st0" d="M68.8,409.8L68.8,409.8L68.8,409.8l0.1-51.7L68.8,409.8z"/>
	<path class="st0" d="M102.8,412.8c0,0.1-0.1,0.3-0.2,0.4C102.7,413.1,102.7,413,102.8,412.8z"/>
	<path class="st0" d="M98.3,417.7c-0.1,0-0.2,0.1-0.3,0.1C98.1,417.8,98.2,417.7,98.3,417.7z"/>
	<path class="st0" d="M69,411.6c0-0.2-0.1-0.4-0.1-0.6C68.9,411.2,68.9,411.4,69,411.6z"/>
	<path class="st0" d="M75.7,418.3l-0.5-0.1L75.7,418.3z"/>
	<path class="st0" d="M99.1,417.3c-0.1,0.1-0.2,0.1-0.3,0.2C98.9,417.4,99,417.3,99.1,417.3z"/>
	<path class="st0" d="M71.9,416.5c-0.2-0.1-0.3-0.3-0.4-0.4C71.7,416.3,71.8,416.4,71.9,416.5z"/>
	<path class="st0" d="M76.5,418.4l-0.5-0.1L76.5,418.4z"/>
	<path class="st0" d="M95.7,418.4h-0.2H95.7z"/>
	<path class="st0" d="M97.5,418l-0.3,0.1L97.5,418z"/>
	<path class="st0" d="M96.5,418.3L96.5,418.3L96.5,418.3z"/>
	<path class="st0" d="M99.8,416.8l-0.3,0.2L99.8,416.8z"/>
	<path class="st0" d="M101,415.7c-0.1,0.1-0.2,0.2-0.3,0.3C100.8,415.9,100.9,415.8,101,415.7z"/>
	<path class="st0" d="M73.3,417.4c-0.2-0.1-0.3-0.2-0.4-0.3C73,417.3,73.2,417.3,73.3,417.4z"/>
	<path class="st0" d="M72.6,417c-0.1-0.1-0.3-0.2-0.4-0.3C72.3,416.8,72.4,416.9,72.6,417z"/>
	<path class="st0" d="M74.8,418.1c-0.2,0-0.3-0.1-0.5-0.2C74.5,418,74.7,418,74.8,418.1z"/>
	<path class="st0" d="M100.4,416.3l-0.3,0.3L100.4,416.3z"/>
	<path class="st0" d="M74.1,417.8c-0.2-0.1-0.3-0.2-0.5-0.3C73.7,417.6,73.9,417.7,74.1,417.8z"/>
	<path class="st0" d="M103.2,411.2c0,0.1,0,0.3-0.1,0.5C103.1,411.5,103.2,411.3,103.2,411.2z"/>
	<path class="st0" d="M293.4,203.6l-0.5,206.8l0,0L293.4,203.6c0-4.7,3.9-8.6,8.6-8.6h17.2c4.8,0,8.6,3.9,8.6,8.6v-0.1
		c0-4.8-3.8-8.6-8.6-8.6H302C297.3,194.9,293.4,198.8,293.4,203.6z"/>
	<polygon class="st0" points="276,281.1 276,281.1 120.8,280.7 120.7,332.4 120.7,332.4 120.9,280.7 	"/>
	<path class="st0" d="M353.3,367.5h9.1H353.3c-4.7,0-8.6-3.9-8.6-8.6l0.3-103.4c0-1.7,0.5-3.4,1.5-4.8c-1,1.4-1.5,3.1-1.5,4.8
		l-0.3,103.4C344.7,363.6,348.5,367.5,353.3,367.5z"/>
	<path class="st0" d="M43.4,246H26.2l0,0H43.4c4.7,0,8.6,3.9,8.6,8.6L51.7,358c0,4.7-3.9,8.6-8.6,8.5H25.8c-4.8,0-8.6-3.9-8.6-8.6
		v0.1c0,4.8,3.9,8.6,8.6,8.6l0,0H43c4.8,0,8.6-3.8,8.6-8.6L52,254.7C52,249.9,48.2,246,43.4,246z"/>
	<path class="st0" d="M103.3,409.9l0.3-120.1L103.3,409.9z"/>
	<polygon class="st0" points="69.3,231.8 69.2,254.7 68.9,358.1 69.2,254.7 	"/>
	<path class="st0" d="M103.3,410.3c0,0.1,0,0.3,0,0.5C103.3,410.6,103.3,410.5,103.3,410.3z"/>
	<path class="st0" d="M78,194.4h17.2c2.3,0,4.6,1,6.2,2.7l0,0c-1.6-1.7-3.9-2.7-6.2-2.7H78c-4.8,0-8.6,3.8-8.6,8.6l0,0
		C69.4,198.3,73.2,194.4,78,194.4z"/>
	<path class="st0" d="M293.6,188.4l-16.1,7c-0.9,2.6-1.3,5.4-1.4,8.2l-0.1,60.3l-66.5-0.2l0,0c-19.7,8.4-42,8.4-61.6-0.2l0,0
		l-26.9-0.1V244l0,0c-8.2-9.2-14-20.1-17.1-32l-0.2,77.7l-0.3,120.1l0,0c0,0.1,0,0.3,0,0.4s0,0.3,0,0.5s0,0.3-0.1,0.4s0,0.3-0.1,0.5
		s-0.1,0.3-0.1,0.4s-0.1,0.3-0.1,0.4s-0.1,0.2-0.1,0.4c0,0.1-0.1,0.3-0.2,0.4s-0.1,0.2-0.2,0.4s-0.1,0.3-0.2,0.4s-0.1,0.2-0.2,0.4
		s-0.1,0.2-0.2,0.4s-0.2,0.2-0.3,0.4l-0.2,0.3c-0.1,0.1-0.2,0.2-0.3,0.3c-0.1,0.1-0.2,0.2-0.3,0.3l-0.3,0.3l-0.3,0.3l-0.4,0.3
		l-0.3,0.2l-0.4,0.2c-0.1,0.1-0.2,0.1-0.3,0.2l-0.5,0.2c-0.1,0-0.2,0.1-0.3,0.1c-0.2,0.1-0.3,0.1-0.5,0.2l-0.3,0.1
		c-0.2,0.1-0.5,0.1-0.7,0.2h-0.1c-0.2,0-0.4,0.1-0.6,0.1h-0.2c-0.3,0-0.6,0-0.9,0H77.4c-0.3,0-0.6,0-0.9,0l-0.5-0.1l-0.4-0.1
		l-0.5-0.1l-0.3-0.1c-0.2,0-0.3-0.1-0.5-0.2l-0.3-0.1c-0.2-0.1-0.3-0.2-0.5-0.3l-0.2-0.1c-0.2-0.1-0.3-0.2-0.4-0.3l-0.3-0.2
		c-0.1-0.1-0.3-0.2-0.4-0.3l-0.3-0.2c-0.2-0.1-0.3-0.3-0.4-0.4l-0.2-0.2c-0.1-0.1-0.3-0.3-0.4-0.5l-0.1-0.1
		c-0.1-0.1-0.2-0.3-0.3-0.5l-0.2-0.2c-0.1-0.1-0.2-0.3-0.3-0.5c-0.1-0.1-0.1-0.2-0.2-0.3s-0.2-0.3-0.2-0.5l-0.1-0.3
		c-0.1-0.2-0.1-0.4-0.2-0.5s-0.1-0.2-0.1-0.3s-0.1-0.4-0.1-0.6s-0.1-0.2-0.1-0.3s-0.1-0.4-0.1-0.6s0-0.2,0-0.3c0-0.2,0-0.4,0-0.6
		c0-0.1,0-0.2,0-0.3l0,0l0,0l0.1-51.7l0.3-103.4l0.1-22.9l0.1-28.8l0,0c0-4.8,3.9-8.6,8.6-8.6h17.2c2.3,0,4.6,1,6.2,2.7
		c-0.2-3.7-0.2-7.5,0.1-11.2c0.2-2.5,0.5-5.1,1-7.6c-2.4-0.7-4.8-1.1-7.3-1.1H78c-14.3,0-25.9,11.5-25.9,25.8L52,230.4
		c-2.8-1-5.7-1.6-8.6-1.6H26.2c-14.3,0-25.9,11.5-25.9,25.8L0,357.9c0,14.3,11.5,25.9,25.8,25.9H43c2.9,0,5.9-0.5,8.6-1.5l-0.1,27.5
		c0,14.3,11.5,25.9,25.8,25.9h17.3c14.3,0,25.9-11.5,25.9-25.8l0,0l0.2-60.3l155.1,0.4l-0.1,60.3c-0.1,14.3,11.5,25.9,25.8,26l0,0
		h17.2c14.2,0,25.8-11.5,25.9-25.7l0.1-27.4c2.8,1,5.7,1.6,8.6,1.6h17.2c14.3,0,25.9-11.5,25.9-25.8l0.3-103.4
		c0-14.3-11.5-25.9-25.8-25.9h-17.2c-2.9,0-5.8,0.5-8.6,1.5l0.1-27.4c0-14.3-11.5-25.9-25.8-25.9h-17.2c-2.1,0-4.2,0.3-6.3,0.8
		c0.4,0.5,0.7,1,1,1.6C298.2,183.4,296.7,187,293.6,188.4z M51.7,358.1c0,4.8-3.9,8.6-8.6,8.6H25.9c-4.8,0-8.6-3.9-8.6-8.6l0,0V358
		l0.3-103.4c0-4.8,3.9-8.6,8.6-8.6l0,0h17.2c4.8,0,8.6,3.9,8.6,8.6L51.7,358.1z M275.9,332.8l-155.1-0.4l0,0l0,0l0.1-51.7l155.1,0.4
		l0,0l0,0L275.9,332.8z M344.9,255.5c0-4.8,3.9-8.6,8.7-8.6h17.2c4.8,0,8.6,3.9,8.6,8.6l0,0l-0.3,103.4c0,4.8-3.9,8.6-8.6,8.6l0,0
		h-8.1h-9.1c-4.8,0-8.6-3.9-8.6-8.6L344.9,255.5z M319.2,195c4.8,0,8.6,3.9,8.6,8.6l0,0l0,0l-0.1,51.7l-0.3,103.4l-0.1,51.7
		c0,4.8-3.9,8.6-8.6,8.6h-17.2c-4.7,0-8.6-3.9-8.6-8.6v-0.1l0,0l0.5-206.8c0-4.8,3.9-8.6,8.6-8.6L319.2,195z"/>
	<path class="st0" d="M121,222.4l0.1-19.3c0-6.6-2.5-12.9-7-17.7L121,222.4L121,222.4z"/>
	<polygon class="st0" points="275.8,332.8 120.7,332.4 120.7,332.4 275.9,332.8 276,281.1 276,281.1 	"/>
	<polygon class="st0" points="275.8,332.8 120.7,332.4 120.7,332.4 275.9,332.8 276,281.1 276,281.1 	"/>
	<path class="st0" d="M26.2,246L26.2,246c-4.8,0-8.6,3.8-8.6,8.6L17.2,358l0.3-103.4C17.5,249.8,21.4,246,26.2,246z"/>
	<path class="st0" d="M26.2,246L26.2,246c-4.8,0-8.6,3.8-8.6,8.6L17.2,358l0.3-103.4C17.5,249.8,21.4,246,26.2,246z"/>
	<path class="st0" d="M327.5,358.7l-0.1,51.7c0,4.8-3.9,8.6-8.6,8.6h-17.2c-4.8,0-8.6-3.9-8.6-8.6v0.1c0,4.7,3.9,8.6,8.6,8.6h17.2
		c4.8,0,8.6-3.8,8.6-8.6L327.5,358.7l0.3-103.4l0.1-51.7l0,0l-0.1,51.7L327.5,358.7z"/>
	<path class="st0" d="M327.5,358.7l-0.1,51.7c0,4.8-3.9,8.6-8.6,8.6h-17.2c-4.8,0-8.6-3.9-8.6-8.6v0.1c0,4.7,3.9,8.6,8.6,8.6h17.2
		c4.8,0,8.6-3.8,8.6-8.6L327.5,358.7l0.3-103.4l0.1-51.7l0,0l-0.1,51.7L327.5,358.7z"/>
	<path class="st0" d="M353.6,246.9h17.2c4.7,0,8.6,3.9,8.6,8.6l-0.3,103.4c0,4.8-3.9,8.6-8.6,8.6h-8.1h8.1c4.8,0,8.6-3.8,8.6-8.6
		l0,0l0.3-103.4c0-4.8-3.8-8.6-8.6-8.6l0,0H353.6c-2.8,0-5.5,1.4-7.1,3.8C348.1,248.3,350.8,246.9,353.6,246.9z"/>
	<path class="st0" d="M353.6,246.9h17.2c4.7,0,8.6,3.9,8.6,8.6l-0.3,103.4c0,4.8-3.9,8.6-8.6,8.6h-8.1h8.1c4.8,0,8.6-3.8,8.6-8.6
		l0,0l0.3-103.4c0-4.8-3.8-8.6-8.6-8.6l0,0H353.6c-2.8,0-5.5,1.4-7.1,3.8C348.1,248.3,350.8,246.9,353.6,246.9z"/>
	<path class="st0" d="M98.8,417.5l-0.5,0.2L98.8,417.5z"/>
	<path class="st0" d="M98.8,417.5l-0.5,0.2L98.8,417.5z"/>
	<path class="st0" d="M102.9,412.5c0,0.1-0.1,0.2-0.1,0.4C102.9,412.7,102.9,412.6,102.9,412.5z"/>
	<path class="st0" d="M102.9,412.5c0,0.1-0.1,0.2-0.1,0.4C102.9,412.7,102.9,412.6,102.9,412.5z"/>
	<path class="st0" d="M103.2,410.8c0,0.1,0,0.3-0.1,0.4C103.2,411.1,103.2,410.9,103.2,410.8z"/>
	<path class="st0" d="M103.2,410.8c0,0.1,0,0.3-0.1,0.4C103.2,411.1,103.2,410.9,103.2,410.8z"/>
	<path class="st0" d="M101.8,414.7c-0.1,0.1-0.2,0.2-0.3,0.4C101.6,415,101.7,414.8,101.8,414.7z"/>
	<path class="st0" d="M101.8,414.7c-0.1,0.1-0.2,0.2-0.3,0.4C101.6,415,101.7,414.8,101.8,414.7z"/>
	<path class="st0" d="M102.2,414c-0.1,0.1-0.1,0.2-0.2,0.4C102.1,414.2,102.2,414.1,102.2,414z"/>
	<path class="st0" d="M102.2,414c-0.1,0.1-0.1,0.2-0.2,0.4C102.1,414.2,102.2,414.1,102.2,414z"/>
	<path class="st0" d="M102.6,413.3c0,0.1-0.1,0.2-0.2,0.4C102.5,413.5,102.5,413.4,102.6,413.3z"/>
	<path class="st0" d="M102.6,413.3c0,0.1-0.1,0.2-0.2,0.4C102.5,413.5,102.5,413.4,102.6,413.3z"/>
	<path class="st0" d="M101.3,415.4c-0.1,0.1-0.2,0.2-0.3,0.3C101.1,415.6,101.2,415.5,101.3,415.4z"/>
	<path class="st0" d="M101.3,415.4c-0.1,0.1-0.2,0.2-0.3,0.3C101.1,415.6,101.2,415.5,101.3,415.4z"/>
	<path class="st0" d="M100.1,416.5l-0.4,0.3L100.1,416.5z"/>
	<path class="st0" d="M100.1,416.5l-0.4,0.3L100.1,416.5z"/>
	<path class="st0" d="M100.7,416l-0.3,0.3L100.7,416z"/>
	<path class="st0" d="M100.7,416l-0.3,0.3L100.7,416z"/>
	<path class="st0" d="M99.5,417l-0.4,0.2L99.5,417z"/>
	<path class="st0" d="M99.5,417l-0.4,0.2L99.5,417z"/>
	<path class="st0" d="M103.1,411.6c0,0.1-0.1,0.3-0.1,0.4C103,411.9,103.1,411.8,103.1,411.6z"/>
	<path class="st0" d="M103.1,411.6c0,0.1-0.1,0.3-0.1,0.4C103,411.9,103.1,411.8,103.1,411.6z"/>
	<path class="st0" d="M103.3,409.9L103.3,409.9c0,0.1,0,0.3,0,0.4C103.3,410.2,103.3,410.1,103.3,409.9z"/>
	<path class="st0" d="M103.3,409.9L103.3,409.9c0,0.1,0,0.3,0,0.4C103.3,410.2,103.3,410.1,103.3,409.9z"/>
	<path class="st0" d="M97.2,418.1c-0.2,0.1-0.5,0.1-0.7,0.2C96.7,418.2,96.9,418.2,97.2,418.1z"/>
	<path class="st0" d="M97.2,418.1c-0.2,0.1-0.5,0.1-0.7,0.2C96.7,418.2,96.9,418.2,97.2,418.1z"/>
	<path class="st0" d="M69.6,413.5l-0.1-0.3L69.6,413.5z"/>
	<path class="st0" d="M69.6,413.5l-0.1-0.3L69.6,413.5z"/>
	<path class="st0" d="M69.1,411.9c0-0.1-0.1-0.2-0.1-0.3C69,411.7,69,411.8,69.1,411.9z"/>
	<path class="st0" d="M69.1,411.9c0-0.1-0.1-0.2-0.1-0.3C69,411.7,69,411.8,69.1,411.9z"/>
	<path class="st0" d="M69.3,412.7c0-0.1-0.1-0.2-0.1-0.3C69.2,412.5,69.3,412.6,69.3,412.7z"/>
	<path class="st0" d="M69.3,412.7c0-0.1-0.1-0.2-0.1-0.3C69.2,412.5,69.3,412.6,69.3,412.7z"/>
	<path class="st0" d="M70.9,415.5l-0.1-0.1L70.9,415.5z"/>
	<path class="st0" d="M70.9,415.5l-0.1-0.1L70.9,415.5z"/>
	<path class="st0" d="M70.4,414.9l-0.2-0.2L70.4,414.9z"/>
	<path class="st0" d="M70.4,414.9l-0.2-0.2L70.4,414.9z"/>
	<path class="st0" d="M70,414.2c-0.1-0.1-0.1-0.2-0.2-0.3C69.9,414,69.9,414.1,70,414.2z"/>
	<path class="st0" d="M70,414.2c-0.1-0.1-0.1-0.2-0.2-0.3C69.9,414,69.9,414.1,70,414.2z"/>
	<polygon class="st0" points="103.6,289.8 103.8,212.1 103.8,212.1 	"/>
	<polygon class="st0" points="103.6,289.8 103.8,212.1 103.8,212.1 	"/>
	<path class="st0" d="M69.3,203v28.8V203z"/>
	<path class="st0" d="M69.3,203v28.8V203z"/>
	<path class="st0" d="M68.8,409.9c0,0.1,0,0.2,0,0.3C68.8,410,68.8,409.9,68.8,409.9L68.8,409.9z"/>
	<path class="st0" d="M68.8,409.9c0,0.1,0,0.2,0,0.3C68.8,410,68.8,409.9,68.8,409.9L68.8,409.9z"/>
	<path class="st0" d="M68.9,411c0-0.1,0-0.2,0-0.3C68.9,410.8,68.9,410.9,68.9,411z"/>
	<path class="st0" d="M68.9,411c0-0.1,0-0.2,0-0.3C68.9,410.8,68.9,410.9,68.9,411z"/>
	<path class="st0" d="M96.4,418.3c-0.2,0-0.4,0.1-0.6,0.1C95.9,418.4,96.2,418.3,96.4,418.3z"/>
	<path class="st0" d="M96.4,418.3c-0.2,0-0.4,0.1-0.6,0.1C95.9,418.4,96.2,418.3,96.4,418.3z"/>
	<path class="st0" d="M75.1,418.2l-0.3-0.1L75.1,418.2z"/>
	<path class="st0" d="M75.1,418.2l-0.3-0.1L75.1,418.2z"/>
	<path class="st0" d="M76,418.4l-0.4-0.1L76,418.4z"/>
	<path class="st0" d="M76,418.4l-0.4-0.1L76,418.4z"/>
	<path class="st0" d="M71.5,416.1l-0.2-0.2L71.5,416.1z"/>
	<path class="st0" d="M71.5,416.1l-0.2-0.2L71.5,416.1z"/>
	<path class="st0" d="M95.5,418.5c-0.3,0-0.6,0-0.9,0C94.9,418.5,95.2,418.5,95.5,418.5z"/>
	<path class="st0" d="M95.5,418.5c-0.3,0-0.6,0-0.9,0C94.9,418.5,95.2,418.5,95.5,418.5z"/>
	<path class="st0" d="M98,417.8c-0.2,0.1-0.3,0.1-0.5,0.2C97.7,418,97.8,417.9,98,417.8z"/>
	<path class="st0" d="M98,417.8c-0.2,0.1-0.3,0.1-0.5,0.2C97.7,418,97.8,417.9,98,417.8z"/>
	<path class="st0" d="M77.4,418.5c-0.3,0-0.6,0-0.9,0C76.8,418.5,77.1,418.5,77.4,418.5z"/>
	<path class="st0" d="M77.4,418.5c-0.3,0-0.6,0-0.9,0C76.8,418.5,77.1,418.5,77.4,418.5z"/>
	<path class="st0" d="M72.2,416.7l-0.3-0.2L72.2,416.7z"/>
	<path class="st0" d="M72.2,416.7l-0.3-0.2L72.2,416.7z"/>
	<path class="st0" d="M72.9,417.2l-0.3-0.2L72.9,417.2z"/>
	<path class="st0" d="M72.9,417.2l-0.3-0.2L72.9,417.2z"/>
	<path class="st0" d="M73.5,417.6l-0.2-0.1L73.5,417.6z"/>
	<path class="st0" d="M73.5,417.6l-0.2-0.1L73.5,417.6z"/>
	<path class="st0" d="M74.3,417.9l-0.3-0.1L74.3,417.9z"/>
	<path class="st0" d="M74.3,417.9l-0.3-0.1L74.3,417.9z"/>
	<path class="st0" d="M414.6,45.7c-22-15.3-50.4-18.1-75-7.4l0,0c-9.4,4.1-17.9,10-25,17.3l-37.1-30.5l28.2-12.2
		c3.1-1.3,6.6,0.1,8,3.2s-0.1,6.6-3.2,8l-6,2.6c-3.1,1.5-4.4,5.2-2.9,8.3c1.4,3,4.9,4.3,7.9,3.1l6-2.6c9.2-4.5,13-15.7,8.4-24.8
		c-4.2-8.5-14.2-12.5-23.1-9.2l-37.6,16.2c-3.2,1.4-4.6,5.1-3.2,8.2c0.4,0.9,1,1.7,1.8,2.3l18.5,15.1l-82.8,35.9l-15.4-12.8
		l13.2-5.7c3.2-1.4,4.6-5.1,3.2-8.2s-5.1-4.6-8.2-3.2l-37.6,16.3c-3.2,1.4-4.6,5.2-3.1,8.3c1.4,3.1,5,4.5,8.1,3.2l11.5-5l20.6,17
		l-4.3,26c-39.6-3.3-75.4,23.8-82.8,62.9c0,0.1,0,0.2,0,0.3c4.4,1.3,8.3,3.8,11.5,7.1l0,0c3.8-34.8,34.3-60.3,69.2-57.9l-10.6,63.9
		c-0.6,3.4,1.7,6.6,5.1,7.2c1.2,0.2,2.4,0.1,3.5-0.4l59.4-25.7c11,34.2-7.8,70.9-42,81.9c-30.2,9.7-63.1-3.8-77.7-31.9l-0.1,21.6
		c7.4,8.4,16.6,15,26.9,19.5l61.6,0.2c37.2-16,55.9-57.9,42.8-96.3l16.8-7.3l2.7,24.1l-3.8,1.6c-3.2,1.4-4.6,5.1-3.2,8.2
		c1.4,3.2,5.1,4.6,8.2,3.2l4.5-2c2.8-8.4,9.7-14.7,18.3-16.8c-1.8-2-4.7-2.7-7.2-1.6l-4.9,2.1l-3.1-27.8l15.9-94.3l10.2,8.4
		c-24.4,35.2-15.6,83.5,19.6,107.9s83.5,15.6,107.9-19.6C458.6,118.4,449.8,70.1,414.6,45.7L414.6,45.7z M186.9,182.1l8.7-52.5
		c17.1,4.6,31.6,15.9,40.2,31.4L186.9,182.1z M247.3,156c-10.3-19.4-28.3-33.5-49.6-38.9l3.1-18.8l61.7,51L247.3,156z M270,139.4
		l-61.8-51.1l75.9-32.9L270,139.4z M416.6,155.3c-25.3,25.5-66.5,25.6-92,0.3c-22.1-22-25.5-56.5-8.2-82.4l50.1,41
		c1.8,1.5,4.3,1.8,6.5,0.9c0.9-0.4,1.7-1,2.3-1.8c2.2-2.7,1.8-6.6-0.9-8.8l0,0l-50.1-41c25.3-25.5,66.6-25.6,92-0.2
		C441.9,88.6,442,129.8,416.6,155.3z"/>
	<path class="st0" d="M103.8,203.1L103.8,203.1c0-2.2-0.9-4.4-2.4-6l0,0C103,198.7,103.8,200.8,103.8,203.1z"/>
	<path class="st0" d="M103.8,212v-9c0-2.2-0.9-4.4-2.4-6C101.7,202.1,102.5,207.1,103.8,212z"/>
	<path class="st0" d="M103.8,212v-9c0-2.2-0.9-4.4-2.4-6C101.7,202.1,102.5,207.1,103.8,212z"/>
	<path class="st0" d="M172.3,269.7c12.7,1.1,25.5-1,37.1-6l0,0l-61.6-0.2l0,0C155.6,266.9,163.9,269,172.3,269.7z"/>
	<path class="st0" d="M277.5,195.4l16.1-7c3.2-1.4,4.6-5.1,3.2-8.2l0,0c-0.3-0.6-0.6-1.1-1-1.6C287.3,180.6,280.4,187,277.5,195.4z"
		/>
	<path class="st0" d="M277.5,195.4l16.1-7c3.2-1.4,4.6-5.1,3.2-8.2l0,0c-0.3-0.6-0.6-1.1-1-1.6C287.3,180.6,280.4,187,277.5,195.4z"
		/>
	<path class="st0" d="M101.4,197.1c1.5,1.6,2.4,3.8,2.4,6l0,0v9c3.1,11.9,9,22.8,17.1,32l0,0l0.1-21.6l0,0l-6.9-37
		c-3.1-3.3-7.1-5.8-11.5-7.1c-0.5,2.5-0.8,5-1,7.6C101.3,189.7,101.2,193.4,101.4,197.1z"/>
	<polygon class="st0" points="103.8,203.1 103.8,212.1 103.8,212.1 	"/>
	<polygon class="st0" points="103.8,203.1 103.8,212.1 103.8,212.1 	"/>
	<polygon class="st0" points="103.8,203.1 103.8,212.1 103.8,212.1 	"/>
</g>
</svg>
