<svg id="Outline" xmlns="http://www.w3.org/2000/svg" viewBox="0 0 480 480">
  <defs>
    <style>
      .cls-1 {
        fill: #fff;
      }
    </style>
  </defs>
  <title>stationary-bike</title>
  <path class="cls-1" d="M483.92,435.18,467,387.88a96,96,0,0,0-54.91-153.75L371.35,120H384a72.07,72.07,0,0,0,72-72V40a24,24,0,0,0-48,0v8a24,24,0,0,1-24,24H328a24,24,0,0,0-5.9,47.26l15.18,42.5-127,114.87-67.85-4.24-6-.37-.49,0c-.61,0-1.22,0-1.83.05L99.72,184H120a24,24,0,0,0,24-24v-2.12a24.11,24.11,0,0,0-20.61-23.76l-80-11.43A24,24,0,0,0,16,146.45V160a24,24,0,0,0,24,24H50.54L92.91,292.28A55.91,55.91,0,0,0,100.17,371c1,.85,2.08,1.66,3.16,2.44L38.55,432.05A24,24,0,0,0,16,456v16a24,24,0,0,0,24,24H56a24,24,0,0,0,24-24H432a24,24,0,0,0,24,24h16a24,24,0,0,0,24-24V456A24,24,0,0,0,483.92,435.18ZM452.7,275.89a80,80,0,0,1,7.73,93.54L418.7,252.58A80.17,80.17,0,0,1,452.7,275.89ZM465.79,432H456a24.35,24.35,0,0,0-5,.53L339.35,120h15ZM423,401.77a80,80,0,0,1-97.68-29.59L392.26,368a39.91,39.91,0,0,0,17.24-4ZM363.86,236.2a96.4,96.4,0,0,0-56.5,46.49l-32.71-2,79.12-72.72Zm5.39,15.08,12.89,36.09-56.83-3.56a80.42,80.42,0,0,1,43.94-32.53ZM328,88h56a40,40,0,0,0,40-40V40a8,8,0,0,1,16,0v8a56.06,56.06,0,0,1-56,56H328a8,8,0,0,1,0-16Zm15.1,90.07,4.82,13.5L252.5,279.26,232.63,278ZM32,160V146.45a8,8,0,0,1,8-8,9.2,9.2,0,0,1,1.17.08l80,11.43a8,8,0,0,1,6.87,7.92V160a8,8,0,0,1-8,8H40A8,8,0,0,1,32,160Zm50.54,24,35.59,90.94a55.36,55.36,0,0,0-12.46,6L67.72,184ZM96,328a40,40,0,0,1,39.76-40L388,303.77l16.06,45A23.83,23.83,0,0,1,392,352a4.18,4.18,0,0,0-.5,0L165.76,366.13l-11.95-22.06a23.94,23.94,0,1,0-14.06,7.64l8.41,15.52-6.67.42-5.73.35A40,40,0,0,1,96,328Zm40,8a8,8,0,1,1,8-8A8,8,0,0,1,136,336Zm0,48a4,4,0,0,0,.49,0l2.2-.13L75.45,442a24.07,24.07,0,0,0-13.76-9.27l56.9-51.48A55.65,55.65,0,0,0,136,384ZM64,472a8,8,0,0,1-8,8H40a8,8,0,0,1-8-8V456a8,8,0,0,1,8-8H56a8,8,0,0,1,8,8Zm19.82-16,75.07-69,8.2,15.13-7,3.81a8,8,0,1,0,7.49,14.13l.13-.07,28.13-15.25a8,8,0,1,0-7.49-14.13l-.13.07-7,3.81-7-12.89,133.2-8.33a96,96,0,0,0,121,43.55l8.72,24.39A23.88,23.88,0,0,0,432,456ZM480,472a8,8,0,0,1-8,8H456a8,8,0,0,1-8-8V456a8,8,0,0,1,8-8h16a8,8,0,0,1,8,8Z" transform="translate(-16 -16)"/>
</svg>
