<?xml version="1.0" standalone="no"?><svg xmlns="http://www.w3.org/2000/svg" viewBox="0 0 1440 320"><path fill="#3DE987" fill-opacity="1" d="M0,224L20,186.7C40,149,80,75,120,85.3C160,96,200,192,240,218.7C280,245,320,203,360,202.7C400,203,440,245,480,245.3C520,245,560,203,600,181.3C640,160,680,160,720,170.7C760,181,800,203,840,202.7C880,203,920,181,960,197.3C1000,213,1040,267,1080,272C1120,277,1160,235,1200,192C1240,149,1280,107,1320,96C1360,85,1400,107,1420,117.3L1440,128L1440,320L1420,320C1400,320,1360,320,1320,320C1280,320,1240,320,1200,320C1160,320,1120,320,1080,320C1040,320,1000,320,960,320C920,320,880,320,840,320C800,320,760,320,720,320C680,320,640,320,600,320C560,320,520,320,480,320C440,320,400,320,360,320C320,320,280,320,240,320C200,320,160,320,120,320C80,320,40,320,20,320L0,320Z"></path></svg>